{"glyphs":{"0":{"ha":735,"x_min":61,"x_max":681,"o":"m 417 704 q 681 399 681 704 q 640 185 681 278 q 519 41 599 93 q 329 -11 439 -11 q 130 65 199 -11 q 61 293 61 140 q 103 506 61 413 q 226 651 146 599 q 417 704 306 704 m 397 581 q 228 508 286 581 q 169 310 169 436 q 210 158 169 207 q 342 108 251 108 q 513 179 454 108 q 572 376 572 250 q 530 531 572 481 q 397 581 488 581 z "},"1":{"ha":485,"x_min":38,"x_max":374,"o":"m 317 288 l 289 0 l 153 0 l 193 272 l 226 547 l 49 500 l 38 507 l 50 614 l 357 701 l 374 688 l 317 288 z "},"2":{"ha":640,"x_min":22,"x_max":575,"o":"m 361 701 q 497 660 444 701 q 550 549 550 618 q 505 428 550 492 q 339 240 460 365 l 214 110 l 217 104 l 446 104 l 567 114 l 575 106 l 544 -6 l 394 0 l 82 0 l 31 -3 l 22 3 l 33 86 l 246 293 q 374 429 336 381 q 413 517 413 478 q 390 567 413 549 q 325 586 368 586 q 226 562 279 586 q 126 496 174 538 l 110 496 l 101 600 q 361 701 236 701 z "},"3":{"ha":582,"x_min":-3,"x_max":519,"o":"m 301 703 q 460 656 401 703 q 519 535 519 610 q 477 415 519 475 q 354 318 435 356 l 354 313 q 497 140 497 269 q 451 0 497 63 q 324 -99 404 -62 q 143 -135 243 -135 q -3 -119 71 -135 l 3 -3 l 15 8 q 157 -28 83 -28 q 308 15 250 -28 q 365 132 365 58 q 219 246 365 240 l 133 246 l 126 254 l 142 349 l 206 350 q 283 370 243 350 q 351 426 324 390 q 378 506 378 463 q 351 569 378 546 q 278 592 325 592 q 97 514 199 592 l 82 514 l 76 618 q 301 703 192 703 z "},"4":{"ha":678,"x_min":8,"x_max":619,"o":"m 475 97 l 454 -117 l 444 -126 l 340 -135 l 333 -125 l 365 97 l 118 97 l 17 94 l 8 107 l 18 196 l 424 696 l 550 696 l 488 201 l 613 201 l 619 189 l 601 94 l 475 97 m 381 201 l 422 536 l 413 536 l 139 201 l 381 201 z "},"5":{"ha":586,"x_min":-1,"x_max":572,"o":"m 546 586 l 535 576 l 425 586 l 236 586 l 210 390 l 296 372 q 507 161 507 328 q 459 11 507 79 q 327 -97 411 -57 q 142 -136 243 -136 q -1 -121 81 -136 l 4 -6 l 15 6 q 169 -31 93 -31 q 320 19 263 -31 q 378 144 378 68 q 242 271 378 243 l 106 296 l 96 307 l 142 681 l 164 699 l 240 696 l 431 696 l 565 701 l 572 692 l 546 586 z "},"6":{"ha":658,"x_min":51,"x_max":636,"o":"m 635 750 q 213 447 304 647 l 221 436 q 382 490 308 490 q 494 461 444 490 q 571 383 543 432 q 599 274 599 333 q 570 146 599 211 q 477 35 542 81 q 310 -11 413 -11 q 118 60 185 -11 q 51 254 51 131 q 100 466 51 360 q 256 667 149 572 q 529 825 363 763 l 536 825 l 636 764 l 635 750 m 351 393 q 178 319 263 393 q 175 261 175 281 q 206 131 175 178 q 315 85 236 85 q 437 135 400 85 q 474 260 474 186 q 442 358 474 324 q 351 393 411 393 z "},"7":{"ha":588,"x_min":56,"x_max":593,"o":"m 532 696 l 593 699 l 583 599 l 257 39 l 168 -140 l 61 -107 l 56 -85 l 450 583 l 182 583 l 68 571 l 60 585 l 83 700 l 218 696 l 532 696 z "},"8":{"ha":669,"x_min":50,"x_max":608,"o":"m 386 824 q 548 774 488 824 q 608 636 608 724 q 454 429 608 508 l 453 422 q 553 347 518 389 q 589 231 589 304 q 553 106 589 161 q 453 20 518 51 q 304 -11 389 -11 q 119 45 188 -11 q 50 193 50 101 q 99 319 50 271 q 235 407 147 368 l 236 414 q 154 484 183 444 q 125 590 125 524 q 158 711 125 658 q 250 794 190 764 q 386 824 310 824 m 383 729 q 277 694 318 729 q 236 601 236 658 q 267 520 236 549 q 360 465 297 492 q 462 530 425 494 q 499 624 499 565 q 469 701 499 674 q 383 729 439 729 m 326 368 q 207 306 249 339 q 165 210 165 272 q 202 116 165 150 q 307 82 239 82 q 429 122 382 82 q 476 222 476 163 q 440 306 476 276 q 326 368 404 336 z "},"9":{"ha":658,"x_min":29,"x_max":614,"o":"m 31 -54 q 453 249 361 49 l 444 260 q 283 206 357 206 q 172 235 221 206 q 94 313 122 264 q 67 422 67 363 q 95 550 67 485 q 188 661 124 615 q 356 707 253 707 q 547 636 481 707 q 614 442 614 565 q 565 230 614 336 q 410 28 517 124 q 136 -129 303 -67 l 129 -129 l 29 -68 l 31 -54 m 314 303 q 488 376 403 303 q 490 435 490 415 q 460 565 490 518 q 350 611 429 611 q 228 560 265 611 q 192 436 192 510 q 223 338 192 372 q 314 303 254 303 z "}," ":{"ha":199,"x_min":0,"x_max":0,"o":""},"!":{"ha":369,"x_min":86,"x_max":342,"o":"m 232 311 l 151 301 l 139 317 l 207 897 l 222 913 l 328 919 l 342 903 l 232 311 m 164 144 q 216 125 197 144 q 235 71 235 106 q 214 14 235 35 q 158 -7 193 -7 q 86 67 86 -7 q 107 124 86 103 q 164 144 128 144 z "},"\"":{"ha":425,"x_min":110,"x_max":436,"o":"m 188 607 l 119 597 l 110 607 l 147 881 l 251 889 l 260 878 l 188 607 m 364 607 l 296 597 l 286 607 l 324 881 l 429 889 l 436 878 l 364 607 z "},"#":{"ha":731,"x_min":28,"x_max":704,"o":"m 507 347 l 647 347 l 656 338 l 649 265 l 489 265 l 442 44 l 364 44 l 356 54 l 400 265 l 253 265 l 206 44 l 126 44 l 119 54 l 164 265 l 38 265 l 28 275 l 33 347 l 182 347 l 215 503 l 85 503 l 75 513 l 82 583 l 232 583 l 278 797 l 356 797 l 364 785 l 321 583 l 468 583 l 514 797 l 592 797 l 601 785 l 558 583 l 694 583 l 704 575 l 696 503 l 540 503 l 507 347 m 304 503 l 271 347 l 418 347 l 451 503 l 304 503 z "},"$":{"ha":603,"x_min":31,"x_max":543,"o":"m 494 554 q 385 610 442 599 l 356 389 q 472 315 431 354 q 514 210 514 276 q 458 75 514 136 q 306 -3 403 14 l 283 -182 l 217 -182 l 206 -169 l 225 -8 q 31 38 113 -3 l 56 150 l 71 157 q 147 103 103 124 q 235 79 192 83 l 265 304 q 142 379 186 340 q 99 488 99 418 q 158 625 99 565 q 317 697 217 685 l 339 890 l 406 890 l 418 878 l 394 699 q 543 667 479 694 l 514 560 l 494 554 m 211 508 q 281 424 211 463 l 306 607 q 236 569 261 597 q 211 508 211 542 m 401 186 q 340 268 401 233 l 317 88 q 378 128 356 101 q 401 186 401 154 z "},"%":{"ha":1168,"x_min":89,"x_max":1108,"o":"m 986 890 l 208 -126 l 154 -92 l 149 -75 l 928 946 l 979 911 l 986 890 m 339 897 q 469 848 424 897 q 514 704 514 799 q 449 483 514 563 q 264 403 385 403 q 134 453 179 403 q 89 597 89 504 q 154 817 89 738 q 339 897 219 897 m 319 807 q 214 757 250 807 q 178 614 178 707 q 279 489 178 489 q 424 682 424 489 q 319 807 424 807 m 933 488 q 1063 438 1018 488 q 1108 294 1108 389 q 1044 73 1108 153 q 858 -7 979 -7 q 728 44 774 -7 q 683 188 683 94 q 749 408 683 328 q 933 488 814 488 m 914 397 q 808 347 844 397 q 772 204 772 297 q 874 79 772 79 q 1018 272 1018 79 q 914 397 1018 397 z "},"&":{"ha":1035,"x_min":61,"x_max":1124,"o":"m 1124 410 q 1063 336 1096 361 q 981 306 1029 311 q 833 326 940 306 q 768 147 822 225 q 625 27 714 69 q 424 -15 536 -15 q 158 83 254 -15 q 61 349 61 181 q 98 537 61 456 q 199 662 135 618 q 344 706 264 706 q 464 669 421 706 q 507 575 507 632 q 504 546 507 568 q 872 988 764 746 l 885 988 q 939 897 925 947 q 774 664 890 788 q 503 433 658 540 q 192 264 349 326 q 274 132 213 179 q 435 85 335 85 q 585 117 518 85 q 691 209 651 150 q 735 346 731 268 q 668 354 694 354 q 563 275 606 354 l 547 274 l 524 350 q 587 423 553 399 q 669 453 621 447 q 824 429 711 453 q 979 406 950 406 q 1086 483 1053 406 l 1101 485 l 1124 410 m 342 615 q 223 547 267 615 q 179 367 179 479 l 179 360 q 364 451 263 392 q 419 554 422 496 q 342 615 414 615 z "},"'":{"ha":249,"x_min":110,"x_max":260,"o":"m 188 607 l 119 597 l 110 607 l 147 881 l 251 889 l 260 878 l 188 607 z "},"(":{"ha":403,"x_min":86,"x_max":449,"o":"m 447 864 q 251 576 306 760 q 196 211 196 393 q 224 6 196 88 q 324 -140 253 -75 l 322 -151 l 267 -196 l 254 -196 q 124 -27 163 -121 q 86 213 86 67 q 154 613 86 418 q 392 919 222 808 l 404 919 l 449 875 l 447 864 z "},")":{"ha":404,"x_min":-36,"x_max":326,"o":"m -35 -140 q 162 147 107 -36 q 217 513 217 331 q 188 717 217 636 q 89 864 160 799 l 90 875 l 146 919 l 158 919 q 288 751 250 844 q 326 511 326 657 q 258 110 326 306 q 21 -196 190 -85 l 8 -196 l -36 -151 l -35 -140 z "},"*":{"ha":525,"x_min":115,"x_max":558,"o":"m 356 846 l 304 839 l 296 850 l 293 1008 q 385 1024 336 1024 l 390 1013 l 356 846 m 269 778 l 257 772 l 115 819 q 128 913 115 875 l 140 915 l 276 829 l 269 778 m 517 883 q 558 799 547 839 l 553 792 l 394 772 l 372 819 l 378 832 l 517 883 m 475 618 q 410 551 453 583 l 399 553 l 338 713 l 374 747 l 388 746 l 475 618 m 311 708 l 231 578 q 144 619 197 588 l 144 631 l 265 746 l 310 722 l 311 708 z "},"+":{"ha":663,"x_min":39,"x_max":636,"o":"m 389 413 l 625 413 l 636 403 l 617 319 l 378 319 l 349 79 l 264 72 l 256 82 l 283 319 l 46 319 l 39 329 l 57 413 l 294 413 l 325 653 l 410 661 l 419 650 l 389 413 z "},",":{"ha":318,"x_min":18,"x_max":207,"o":"m 147 142 q 207 40 207 101 q 64 -164 207 -60 l 18 -124 l 18 -112 q 94 14 94 -51 q 51 86 94 54 l 51 99 q 147 142 99 128 z "},"-":{"ha":425,"x_min":36,"x_max":397,"o":"m 386 329 l 47 281 l 36 292 l 47 378 l 386 425 l 397 414 l 386 329 z "},".":{"ha":319,"x_min":54,"x_max":203,"o":"m 132 144 q 184 125 165 144 q 203 71 203 106 q 182 14 203 35 q 126 -7 161 -7 q 54 67 54 -7 q 75 124 54 103 q 132 144 96 144 z "},"/":{"ha":397,"x_min":-17,"x_max":446,"o":"m 85 -158 l -10 -158 l -17 -146 l 344 943 l 436 943 l 446 929 l 85 -158 z "},":":{"ha":318,"x_min":54,"x_max":247,"o":"m 132 144 q 184 125 165 144 q 203 71 203 106 q 182 14 203 35 q 126 -7 161 -7 q 54 67 54 -7 q 75 124 54 103 q 132 144 96 144 m 176 515 q 228 496 210 515 q 247 442 247 476 q 226 385 247 406 q 171 364 206 364 q 99 438 99 364 q 119 494 99 474 q 176 515 140 515 z "},";":{"ha":318,"x_min":15,"x_max":244,"o":"m 144 142 q 204 40 204 101 q 61 -164 204 -60 l 15 -124 l 15 -112 q 92 14 92 -51 q 49 86 92 54 l 49 99 q 144 142 96 128 m 174 515 q 226 496 207 515 q 244 442 244 476 q 224 385 244 406 q 168 364 203 364 q 96 438 96 364 q 117 494 96 474 q 174 515 138 515 z "},"<":{"ha":690,"x_min":47,"x_max":643,"o":"m 636 557 l 154 372 l 154 364 l 592 189 l 563 113 l 547 103 l 47 310 l 60 421 l 72 435 l 624 647 l 643 569 l 636 557 z "},"=":{"ha":664,"x_min":33,"x_max":650,"o":"m 642 439 l 71 439 l 61 449 l 69 532 l 639 532 l 650 522 l 642 439 m 614 199 l 43 199 l 33 208 l 42 292 l 611 292 l 622 282 l 614 199 z "},">":{"ha":699,"x_min":71,"x_max":660,"o":"m 660 421 l 647 310 l 93 103 l 81 113 l 71 189 l 553 364 l 553 372 l 117 557 l 113 569 l 151 647 l 651 435 l 660 421 z "},"?":{"ha":465,"x_min":100,"x_max":513,"o":"m 179 922 q 426 860 340 913 q 513 719 513 808 q 475 606 513 660 q 368 514 438 553 l 249 443 l 246 438 l 238 310 l 142 297 l 132 308 l 140 471 l 149 485 l 289 560 q 388 693 388 614 q 138 826 388 810 l 129 840 l 164 914 l 179 922 m 178 144 q 230 125 211 144 q 249 71 249 106 q 228 14 249 35 q 172 -7 207 -7 q 100 67 100 -7 q 121 124 100 103 q 178 144 142 144 z "},"@":{"ha":1154,"x_min":46,"x_max":1117,"o":"m 1117 421 q 990 113 1117 222 q 628 -4 863 3 l 665 258 l 650 258 q 446 -11 554 94 l 424 -11 q 306 211 306 49 q 343 401 306 308 q 456 560 381 493 q 636 646 531 626 l 643 646 l 736 614 l 814 647 l 828 639 l 760 154 l 757 93 q 954 195 883 110 q 1025 417 1025 281 q 978 605 1025 524 q 843 731 931 686 q 638 775 756 775 q 377 711 490 775 q 201 534 264 647 q 139 276 139 421 q 205 20 139 128 q 390 -144 271 -87 q 669 -201 510 -201 l 675 -215 l 635 -281 q 325 -214 458 -279 q 119 -27 192 -149 q 46 260 46 94 q 120 571 46 433 q 331 785 194 708 q 643 863 467 863 q 892 808 785 863 q 1058 654 1000 754 q 1117 421 1117 554 m 458 122 q 513 165 475 122 q 601 289 551 207 q 697 482 650 371 l 699 493 l 700 514 l 613 546 q 471 461 524 546 q 418 249 418 376 q 458 122 418 122 z "},"A":{"ha":779,"x_min":-22,"x_max":715,"o":"m 578 0 l 568 99 l 546 226 l 367 231 l 204 228 l 149 104 l 113 0 l -22 0 l 392 892 l 551 892 l 715 0 l 578 0 m 457 756 l 446 756 l 257 340 l 390 338 l 528 339 l 457 756 z "},"B":{"ha":739,"x_min":79,"x_max":689,"o":"m 532 464 q 649 393 611 438 q 686 278 686 349 q 289 -6 686 -6 q 81 0 157 -6 l 79 0 l 121 268 l 192 892 l 449 893 q 625 844 561 893 q 689 703 689 796 q 648 558 689 619 q 532 464 607 496 m 549 679 q 515 761 549 736 q 407 786 482 786 l 313 786 l 275 507 l 411 503 q 549 679 549 536 m 322 101 q 488 147 429 101 q 547 274 547 192 q 417 401 547 382 l 260 400 l 243 279 l 226 107 q 322 101 293 101 z "},"C":{"ha":699,"x_min":60,"x_max":736,"o":"m 508 900 q 736 838 643 900 l 694 717 l 682 713 q 492 786 601 786 q 279 680 354 786 q 204 378 204 574 q 257 175 204 244 q 408 106 310 106 q 632 183 526 106 l 644 175 l 617 50 q 388 -10 506 -10 q 145 86 231 -10 q 60 357 60 182 q 113 647 60 525 q 267 835 165 769 q 508 900 368 900 z "},"D":{"ha":871,"x_min":79,"x_max":847,"o":"m 504 897 q 758 806 668 897 q 847 549 847 715 q 792 251 847 376 q 631 59 738 126 q 374 -8 525 -8 q 81 0 236 -8 l 79 0 l 121 268 l 192 892 l 193 892 l 504 897 m 401 101 q 624 209 546 101 q 703 525 703 317 q 489 785 703 785 q 314 779 414 785 l 243 279 l 228 111 q 401 101 335 101 z "},"E":{"ha":660,"x_min":79,"x_max":701,"o":"m 276 511 l 432 508 l 572 513 l 579 503 l 557 397 l 407 401 l 261 399 l 244 279 l 228 113 l 393 110 l 597 117 l 601 106 l 581 0 l 79 0 l 121 268 l 192 892 l 694 892 l 701 879 l 678 774 l 476 779 l 314 778 l 276 511 z "},"F":{"ha":592,"x_min":79,"x_max":674,"o":"m 274 492 l 407 489 l 550 493 l 557 481 l 533 378 l 382 382 l 258 381 l 244 279 l 217 0 l 79 0 l 121 268 l 192 892 l 667 892 l 674 879 l 649 771 l 453 779 l 314 778 l 274 492 z "},"G":{"ha":803,"x_min":57,"x_max":792,"o":"m 538 900 q 792 840 676 900 l 746 713 l 732 710 q 621 769 671 751 q 511 786 571 786 q 197 356 197 786 q 252 164 197 225 q 422 103 307 103 q 571 132 479 103 l 586 225 l 600 356 l 728 365 l 711 244 l 690 43 q 411 -11 536 -11 q 147 83 238 -11 q 57 346 57 176 q 182 756 57 611 q 538 900 307 900 z "},"H":{"ha":919,"x_min":79,"x_max":874,"o":"m 789 279 l 761 0 l 625 0 l 665 268 l 679 392 l 458 396 l 258 392 l 243 279 l 217 0 l 79 0 l 119 268 l 190 892 l 328 892 l 275 508 l 483 504 l 692 508 l 735 892 l 874 892 l 789 279 z "},"I":{"ha":375,"x_min":79,"x_max":328,"o":"m 217 0 l 79 0 l 119 268 l 190 892 l 328 892 l 243 279 l 217 0 z "},"J":{"ha":432,"x_min":-42,"x_max":378,"o":"m 294 294 l 282 165 q 204 -12 268 57 q -3 -143 140 -82 l -42 -68 l -40 -53 q 102 45 58 -3 q 156 167 146 93 l 171 282 l 226 785 l 69 782 l 58 793 l 78 892 l 378 892 l 294 294 z "},"K":{"ha":747,"x_min":78,"x_max":801,"o":"m 215 0 l 78 0 l 119 268 l 190 892 l 328 892 l 243 279 l 215 0 m 421 468 q 718 29 544 258 l 714 13 q 579 -12 643 -4 l 565 -6 q 278 467 396 251 l 279 475 l 589 811 l 651 892 l 801 892 l 421 468 z "},"L":{"ha":564,"x_min":75,"x_max":535,"o":"m 511 0 l 75 0 l 117 268 l 186 892 l 325 892 l 240 279 l 224 114 l 529 114 l 535 103 l 511 0 z "},"M":{"ha":1057,"x_min":35,"x_max":974,"o":"m 819 0 l 838 271 l 849 682 l 839 682 l 547 100 l 438 100 l 306 682 l 294 682 l 206 282 l 149 0 l 35 0 l 233 892 l 389 892 l 413 757 l 517 276 l 528 276 l 763 763 l 819 892 l 974 892 l 942 0 l 819 0 z "},"N":{"ha":919,"x_min":79,"x_max":875,"o":"m 760 0 l 615 0 l 296 678 l 286 678 l 238 297 l 206 0 l 79 0 l 119 264 l 193 892 l 336 892 l 656 213 l 665 213 l 746 885 l 875 894 l 788 265 l 760 0 z "},"O":{"ha":858,"x_min":60,"x_max":835,"o":"m 504 901 q 748 808 661 901 q 835 540 835 714 q 783 247 835 371 q 630 56 731 124 q 388 -11 529 -11 q 147 85 233 -11 q 60 357 60 182 q 175 757 60 613 q 504 901 290 901 m 489 789 q 200 364 200 789 q 249 164 200 229 q 401 99 299 99 q 690 526 690 99 q 641 725 690 661 q 489 789 592 789 z "},"P":{"ha":714,"x_min":79,"x_max":715,"o":"m 465 893 q 649 833 582 893 q 715 658 715 774 q 670 476 715 557 q 541 350 625 396 q 346 304 457 304 l 247 304 l 244 279 l 217 0 l 79 0 l 121 268 l 192 892 l 465 893 m 408 410 q 528 485 483 424 q 574 638 574 547 q 540 745 574 710 q 428 785 506 781 l 314 781 l 263 414 l 408 410 z "},"Q":{"ha":857,"x_min":60,"x_max":944,"o":"m 944 -179 q 882 -267 918 -228 l 871 -271 q 408 -11 604 -199 l 388 -11 q 147 85 233 -11 q 60 357 60 182 q 176 757 60 613 q 504 901 292 901 q 748 808 661 901 q 835 540 835 714 q 758 197 835 335 q 539 13 682 60 q 942 -162 717 -118 l 944 -179 m 200 364 q 249 164 200 229 q 401 99 299 99 q 690 526 690 99 q 641 725 690 661 q 489 789 592 789 q 200 364 200 789 z "},"R":{"ha":760,"x_min":79,"x_max":717,"o":"m 717 672 q 662 485 717 568 q 510 357 607 403 q 685 32 589 192 l 682 17 q 549 -12 614 -7 l 535 -1 q 393 321 446 186 l 249 321 l 243 279 l 217 0 l 79 0 l 119 268 l 192 892 l 469 893 q 651 835 585 893 q 717 672 717 778 m 414 428 q 574 650 574 478 q 428 785 574 778 l 314 781 l 265 432 l 414 428 z "},"S":{"ha":644,"x_min":21,"x_max":635,"o":"m 426 900 q 635 857 532 900 l 597 732 l 574 724 q 406 790 499 790 q 292 753 335 790 q 249 663 249 715 q 283 585 249 617 q 389 510 317 553 q 491 442 451 472 q 558 366 531 411 q 586 258 586 321 q 545 122 586 183 q 431 25 504 61 q 265 -11 357 -11 q 21 50 132 -11 l 56 185 l 72 193 q 172 122 115 146 q 282 97 229 97 q 401 136 356 97 q 447 232 447 175 q 413 313 447 281 q 306 389 378 344 q 206 455 244 425 q 141 530 168 485 q 114 636 114 575 q 155 770 114 710 q 267 865 196 831 q 426 900 338 900 z "},"T":{"ha":660,"x_min":85,"x_max":706,"o":"m 682 775 l 531 783 l 458 783 l 389 279 l 361 0 l 224 0 l 267 268 l 322 783 l 250 783 l 93 775 l 85 788 l 110 892 l 699 892 l 706 879 l 682 775 z "},"U":{"ha":842,"x_min":90,"x_max":819,"o":"m 747 335 q 635 78 728 168 q 383 -11 543 -11 q 168 57 246 -11 q 90 250 90 125 q 94 324 90 285 l 113 446 l 164 892 l 299 892 l 225 342 q 221 282 221 308 q 393 107 221 107 q 621 328 596 107 l 683 892 l 819 892 l 760 438 l 747 335 z "},"V":{"ha":761,"x_min":88,"x_max":825,"o":"m 253 0 l 88 892 l 226 892 l 235 792 l 349 133 l 357 133 l 656 785 l 692 892 l 825 892 l 414 0 l 253 0 z "},"W":{"ha":1193,"x_min":99,"x_max":1256,"o":"m 707 0 l 617 488 l 606 488 l 389 0 l 244 0 l 99 892 l 232 892 l 235 799 l 340 146 l 350 146 l 582 669 l 542 892 l 682 892 l 689 785 l 797 146 l 807 146 l 1094 790 l 1128 892 l 1256 892 l 849 0 l 707 0 z "},"X":{"ha":796,"x_min":-11,"x_max":818,"o":"m 721 0 l 563 0 l 536 78 l 394 358 l 175 69 l 131 0 l -11 0 l 326 454 l 111 892 l 271 892 l 297 814 l 429 551 l 628 818 l 672 892 l 818 892 l 500 457 l 721 0 z "},"Y":{"ha":719,"x_min":86,"x_max":781,"o":"m 401 256 l 375 0 l 238 0 l 279 256 l 285 317 l 86 892 l 228 892 l 238 838 l 361 458 l 374 458 l 606 833 l 635 892 l 781 892 l 410 314 l 401 256 z "},"Z":{"ha":714,"x_min":3,"x_max":735,"o":"m 179 108 l 504 108 l 640 119 l 646 111 l 621 -3 l 450 0 l 90 0 l 3 -4 l 17 96 l 561 782 l 258 782 l 119 771 l 114 779 l 140 893 l 663 892 l 735 893 l 722 792 l 179 108 z "},"[":{"ha":404,"x_min":57,"x_max":456,"o":"m 447 828 l 286 810 l 176 -90 l 333 -107 l 325 -171 l 317 -178 l 57 -164 l 128 360 l 185 885 l 450 899 l 456 890 l 447 828 z "},"\\":{"ha":414,"x_min":33,"x_max":422,"o":"m 422 -146 l 413 -158 l 319 -158 l 33 929 l 44 943 l 136 943 l 422 -146 z "},"]":{"ha":404,"x_min":-42,"x_max":357,"o":"m -33 -108 l 128 -90 l 238 810 l 81 826 l 89 890 l 97 897 l 357 883 l 286 360 l 229 -165 l -36 -179 l -42 -171 l -33 -108 z "},"^":{"ha":596,"x_min":10,"x_max":554,"o":"m 543 179 l 464 160 l 342 586 l 333 586 l 97 163 l 83 156 l 10 185 l 282 676 l 297 685 l 408 685 l 554 192 l 543 179 z "},"_":{"ha":622,"x_min":-85,"x_max":588,"o":"m 571 -210 l -75 -210 l -85 -200 l -68 -122 l 579 -122 l 588 -132 l 571 -210 z "},"`":{"ha":542,"x_min":185,"x_max":485,"o":"m 249 981 q 485 775 338 894 l 449 722 l 435 721 q 188 893 324 794 l 185 907 l 235 979 l 249 981 z "},"a":{"ha":696,"x_min":-10,"x_max":615,"o":"m 486 0 l 482 83 l 467 164 l 317 165 l 183 164 l 147 90 l 115 0 l -10 0 l 328 696 l 476 696 l 615 0 l 486 0 m 388 574 l 379 574 l 232 267 l 338 265 l 447 267 l 388 574 z "},"b":{"ha":668,"x_min":75,"x_max":597,"o":"m 468 360 q 594 211 594 324 q 265 -4 594 -4 q 75 0 165 -4 l 106 208 l 161 696 l 389 696 q 542 656 486 696 q 597 540 597 617 q 563 433 597 479 q 468 360 529 386 m 361 399 q 464 522 464 422 q 436 582 464 564 q 346 600 408 600 l 274 600 l 247 403 l 361 399 m 289 90 q 418 122 372 90 q 464 214 464 153 q 363 306 464 289 l 233 304 l 222 219 l 210 94 q 289 90 251 90 z "},"c":{"ha":618,"x_min":56,"x_max":622,"o":"m 433 703 q 622 658 549 703 l 586 543 l 571 539 q 411 599 508 599 q 247 523 304 599 q 190 301 190 447 q 232 149 190 201 q 353 97 274 97 q 536 157 449 97 l 549 150 l 524 36 q 340 -8 435 -8 q 129 69 203 -8 q 56 286 56 146 q 156 593 56 483 q 433 703 256 703 z "},"d":{"ha":768,"x_min":75,"x_max":721,"o":"m 432 700 q 644 628 568 700 q 721 425 721 556 q 618 108 721 222 q 325 -7 515 -7 q 75 0 190 -7 l 106 208 l 161 696 l 432 700 m 351 94 q 526 172 464 94 q 588 401 588 249 q 414 594 588 594 q 274 589 360 594 l 224 219 l 211 103 q 351 94 300 94 z "},"e":{"ha":596,"x_min":75,"x_max":600,"o":"m 249 406 l 379 404 l 494 408 l 501 399 l 481 300 l 356 304 l 235 303 l 224 219 l 211 103 l 336 101 l 517 107 l 525 97 l 503 0 l 75 0 l 106 208 l 161 696 l 594 696 l 600 685 l 578 588 l 410 594 l 275 593 l 249 406 z "},"f":{"ha":531,"x_min":68,"x_max":569,"o":"m 240 386 l 347 385 l 468 389 l 475 379 l 454 282 l 324 285 l 225 283 l 217 219 l 194 0 l 68 0 l 99 208 l 154 696 l 564 696 l 569 685 l 547 588 l 382 594 l 269 593 l 240 386 z "},"g":{"ha":708,"x_min":56,"x_max":674,"o":"m 457 703 q 674 658 561 703 l 618 538 l 607 538 q 516 584 554 571 q 431 597 478 597 q 188 297 188 597 q 226 142 188 190 q 365 94 265 94 q 489 121 418 94 l 496 181 l 507 283 l 624 292 l 611 201 l 590 33 q 354 -10 447 -10 q 56 293 56 -10 q 103 510 56 417 q 241 653 150 603 q 457 703 332 703 z "},"h":{"ha":808,"x_min":75,"x_max":743,"o":"m 676 219 l 654 0 l 529 0 l 560 208 l 569 294 l 233 293 l 224 219 l 201 0 l 75 0 l 107 208 l 161 696 l 290 696 l 250 404 l 418 403 l 582 404 l 615 696 l 743 696 l 676 219 z "},"i":{"ha":363,"x_min":75,"x_max":290,"o":"m 201 0 l 75 0 l 107 208 l 161 696 l 290 696 l 224 219 l 201 0 z "},"j":{"ha":414,"x_min":-6,"x_max":326,"o":"m 264 229 l 253 131 q 193 -12 242 43 q 35 -114 144 -67 l -6 -44 l -4 -32 q 97 40 65 3 q 135 133 128 78 l 146 215 l 188 599 l 60 597 l 53 607 l 72 696 l 326 696 l 264 229 z "},"k":{"ha":674,"x_min":75,"x_max":692,"o":"m 201 0 l 75 0 l 106 208 l 161 696 l 289 696 l 224 219 l 201 0 m 382 368 q 626 28 482 210 l 622 10 q 496 -12 554 -7 l 478 -4 q 246 361 335 206 l 246 371 l 494 631 l 549 696 l 692 696 l 382 368 z "},"l":{"ha":515,"x_min":72,"x_max":465,"o":"m 443 0 l 72 0 l 104 208 l 158 696 l 286 696 l 219 219 l 208 106 l 457 106 l 465 96 l 443 0 z "},"m":{"ha":921,"x_min":38,"x_max":824,"o":"m 693 0 l 707 211 l 713 504 l 704 504 l 472 75 l 375 75 l 264 504 l 256 504 l 188 224 l 144 0 l 38 0 l 199 696 l 343 696 l 361 592 l 447 239 l 457 239 l 638 594 l 683 696 l 824 696 l 804 0 l 693 0 z "},"n":{"ha":810,"x_min":75,"x_max":743,"o":"m 653 0 l 518 0 l 257 500 l 249 500 l 215 235 l 189 0 l 75 0 l 106 204 l 163 696 l 296 696 l 558 196 l 568 196 l 626 690 l 743 699 l 674 211 l 653 0 z "},"o":{"ha":756,"x_min":56,"x_max":708,"o":"m 429 704 q 636 629 564 704 q 708 401 708 554 q 664 188 708 282 q 535 42 619 94 q 336 -10 451 -10 q 128 67 200 -10 q 56 297 56 143 q 99 510 56 418 q 228 653 143 601 q 429 704 313 704 m 413 599 q 188 304 188 599 q 225 141 188 189 q 350 93 263 93 q 575 389 575 93 q 538 550 575 501 q 413 599 500 599 z "},"p":{"ha":643,"x_min":74,"x_max":617,"o":"m 404 696 q 560 645 504 696 q 617 503 617 594 q 578 365 617 428 q 471 267 539 303 q 319 231 403 231 l 225 231 l 224 219 l 200 0 l 74 0 l 106 208 l 161 696 l 404 696 m 358 326 q 451 385 418 340 q 483 490 483 429 q 455 570 483 544 q 367 599 426 596 l 275 597 l 239 329 l 358 326 z "},"q":{"ha":756,"x_min":56,"x_max":779,"o":"m 779 -132 q 713 -211 744 -185 l 701 -214 q 353 -10 506 -153 l 336 -10 q 128 67 200 -10 q 56 297 56 143 q 99 510 56 418 q 228 653 143 601 q 429 704 313 704 q 636 629 564 704 q 708 401 708 554 q 647 155 708 258 q 471 13 585 51 q 776 -119 611 -85 l 779 -132 m 188 304 q 225 141 188 189 q 350 93 263 93 q 575 389 575 93 q 538 550 575 501 q 413 599 500 599 q 188 304 188 599 z "},"r":{"ha":682,"x_min":75,"x_max":618,"o":"m 618 514 q 575 376 618 436 q 453 279 532 317 q 600 31 515 160 l 596 15 q 474 -10 526 -7 l 454 3 l 438 38 q 346 244 354 222 l 228 243 l 225 219 l 201 0 l 75 0 l 107 208 l 163 696 l 407 696 q 562 647 506 696 q 618 514 618 599 m 360 340 q 485 497 485 378 q 456 571 485 547 q 368 597 428 594 l 276 596 l 242 346 l 360 340 z "},"s":{"ha":582,"x_min":32,"x_max":536,"o":"m 363 703 q 536 669 457 703 l 503 547 l 482 542 q 344 606 414 606 q 259 576 292 606 q 226 510 226 547 q 254 453 226 475 q 339 406 282 432 q 426 358 393 379 q 482 303 458 338 q 506 217 506 268 q 474 108 506 160 q 383 23 443 56 q 238 -10 322 -10 q 32 36 124 -10 l 61 164 l 78 172 q 163 110 114 132 q 256 88 213 88 q 342 117 307 88 q 378 186 378 147 q 351 243 378 221 q 264 293 324 265 q 178 340 210 319 q 122 397 146 361 q 99 483 99 432 q 131 592 99 542 q 224 672 164 642 q 363 703 283 703 z "},"t":{"ha":593,"x_min":72,"x_max":600,"o":"m 578 581 l 450 590 l 393 590 l 342 219 l 321 0 l 194 0 l 225 208 l 271 590 l 213 590 l 81 581 l 72 592 l 94 696 l 593 696 l 600 685 l 578 581 z "},"u":{"ha":743,"x_min":81,"x_max":697,"o":"m 636 240 q 544 55 622 119 q 332 -10 467 -10 q 147 42 213 -10 q 81 190 81 94 q 85 240 81 214 l 100 346 l 140 696 l 268 696 l 206 260 q 203 224 203 235 q 344 97 203 97 q 521 260 503 97 l 569 696 l 697 696 l 650 342 l 636 240 z "},"v":{"ha":681,"x_min":79,"x_max":704,"o":"m 219 0 l 79 696 l 208 696 l 217 610 l 308 121 l 317 121 l 550 604 l 579 696 l 704 696 l 369 0 l 219 0 z "},"w":{"ha":1035,"x_min":89,"x_max":1058,"o":"m 599 0 l 521 356 l 514 356 l 346 0 l 213 0 l 89 696 l 214 696 l 215 614 l 300 133 l 308 133 l 490 524 l 460 696 l 589 696 l 592 603 l 681 133 l 692 133 l 911 608 l 940 696 l 1058 696 l 731 0 l 599 0 z "},"x":{"ha":708,"x_min":1,"x_max":701,"o":"m 629 0 l 481 0 l 456 65 l 342 268 l 175 58 l 138 0 l 1 0 l 283 354 l 92 696 l 244 696 l 267 631 l 372 439 l 524 635 l 561 696 l 701 696 l 435 357 l 629 0 z "},"y":{"ha":646,"x_min":75,"x_max":668,"o":"m 357 196 l 338 0 l 211 0 l 240 196 l 244 240 l 75 696 l 210 696 l 219 651 l 321 371 l 329 371 l 511 646 l 536 696 l 668 696 l 364 235 l 357 196 z "},"z":{"ha":639,"x_min":14,"x_max":624,"o":"m 178 99 l 433 99 l 556 111 l 561 104 l 535 -3 l 382 0 l 92 0 l 14 -3 l 25 89 l 463 594 l 214 594 l 100 582 l 96 592 l 119 697 l 253 696 l 624 696 l 613 601 l 178 99 z "},"{":{"ha":404,"x_min":49,"x_max":449,"o":"m 368 910 q 444 900 400 910 l 449 889 l 428 818 q 378 825 397 825 q 281 694 281 825 q 285 615 281 699 q 289 540 289 574 q 176 369 289 417 l 175 364 q 253 239 253 326 q 222 115 253 204 q 192 -15 192 24 q 265 -93 192 -93 q 317 -86 285 -93 l 321 -157 l 313 -167 q 233 -178 278 -178 q 83 -43 83 -178 q 115 114 83 7 q 142 232 142 199 q 49 332 142 314 l 57 399 q 150 448 121 413 q 179 550 179 483 l 178 621 q 175 701 175 676 q 368 910 175 910 z "},"|":{"ha":433,"x_min":82,"x_max":365,"o":"m 278 401 l 185 -357 l 90 -362 l 82 -350 l 172 393 l 261 1103 l 357 1110 l 365 1101 l 278 401 z "},"}":{"ha":404,"x_min":-33,"x_max":367,"o":"m 47 -178 q -29 -168 15 -178 l -33 -157 l -12 -86 q 38 -93 18 -93 q 135 38 135 -93 q 131 117 135 33 q 126 192 126 158 q 239 363 126 315 l 240 368 q 163 493 163 406 q 193 617 163 528 q 224 747 224 708 q 150 825 224 825 q 99 818 131 825 l 94 889 l 103 899 q 182 910 138 910 q 332 775 332 910 q 300 618 332 725 q 274 500 274 533 q 367 400 274 418 l 358 333 q 265 284 294 319 q 236 182 236 249 l 238 111 q 240 31 240 56 q 47 -178 240 -178 z "},"~":{"ha":667,"x_min":61,"x_max":618,"o":"m 211 347 q 131 294 188 347 q 106 274 131 294 l 92 274 l 61 319 l 63 333 l 182 443 l 197 450 q 329 415 215 447 q 469 381 442 381 q 553 435 492 381 l 575 454 l 589 454 l 618 408 l 617 394 l 499 283 l 482 278 q 344 314 454 281 q 211 347 231 347 z "}," ":{"ha":199,"x_min":0,"x_max":0,"o":""},"¡":{"ha":369,"x_min":32,"x_max":288,"o":"m 142 335 l 222 344 l 235 329 l 167 -251 l 151 -267 l 46 -274 l 32 -257 l 142 335 m 210 501 q 158 521 176 501 q 139 575 139 540 q 160 632 139 611 q 215 653 181 653 q 288 579 288 653 q 267 522 288 543 q 210 501 246 501 z "},"¢":{"ha":542,"x_min":51,"x_max":511,"o":"m 457 569 q 378 615 418 608 l 301 156 q 406 267 357 182 l 422 265 l 458 217 q 286 63 388 100 l 249 -168 l 182 -168 l 174 -156 l 206 51 q 89 121 126 68 q 51 288 51 174 q 117 553 51 443 q 311 694 182 664 l 346 907 l 413 907 l 422 894 l 392 704 l 403 704 l 503 675 l 511 660 l 481 574 l 457 569 m 157 307 q 221 147 157 168 l 297 607 q 194 505 231 583 q 157 307 157 426 z "},"£":{"ha":597,"x_min":-3,"x_max":597,"o":"m 447 824 q 597 801 521 824 l 578 700 l 569 693 q 429 739 496 739 q 292 608 307 739 l 274 469 l 451 469 l 456 461 l 440 396 l 264 396 l 243 236 q 171 100 231 140 l 171 94 l 390 94 l 522 104 l 526 94 l 506 -3 l 357 0 l 3 0 l -3 8 l 13 79 q 131 225 117 101 l 151 396 l 53 396 l 49 404 l 63 469 l 160 469 l 175 590 q 258 763 188 703 q 447 824 329 824 z "},"¤":{"ha":606,"x_min":31,"x_max":614,"o":"m 611 690 l 507 603 q 531 513 531 564 q 482 388 531 444 l 568 303 l 568 289 l 501 228 l 488 229 l 413 322 q 297 286 356 286 q 196 321 238 286 l 100 225 l 86 225 l 31 283 l 35 297 l 138 383 q 114 475 114 422 q 164 600 114 538 l 79 685 l 79 699 l 144 760 l 158 760 l 236 664 q 349 699 288 699 q 449 667 408 699 l 546 761 l 560 763 l 614 704 l 611 690 m 339 622 q 235 581 279 622 q 192 479 192 539 q 224 396 192 428 q 307 364 256 364 q 413 405 369 364 q 456 507 456 446 q 423 590 456 557 q 339 622 390 622 z "},"¥":{"ha":742,"x_min":36,"x_max":724,"o":"m 703 408 l 690 350 l 483 350 l 403 235 l 403 229 l 672 229 l 679 221 l 668 164 l 393 164 l 376 0 l 264 0 l 289 164 l 42 164 l 36 171 l 47 229 l 297 229 l 299 240 l 254 350 l 64 350 l 60 358 l 71 414 l 228 414 l 114 693 l 233 693 l 244 651 l 364 361 l 374 361 l 581 647 l 606 693 l 724 693 l 529 414 l 697 414 l 703 408 z "},"¦":{"ha":433,"x_min":82,"x_max":365,"o":"m 293 519 l 197 508 l 189 517 l 260 1103 l 357 1110 l 365 1101 l 293 519 m 185 -357 l 92 -362 l 82 -350 l 151 211 l 244 222 l 254 208 l 185 -357 z "},"§":{"ha":593,"x_min":4,"x_max":575,"o":"m 278 719 q 305 663 278 689 q 388 600 332 638 q 508 503 465 549 q 550 392 550 458 q 509 277 550 331 q 399 192 468 224 q 456 68 456 135 q 421 -35 456 13 q 326 -110 386 -82 q 193 -139 265 -139 q 95 -128 147 -139 q 4 -96 43 -117 l 33 15 l 47 25 q 215 -53 125 -53 q 303 -24 268 -53 q 339 40 339 6 q 311 99 339 72 q 226 163 283 125 q 106 259 149 214 q 64 369 64 304 q 106 486 64 432 q 217 574 147 540 q 161 693 161 629 q 195 796 161 749 q 289 872 229 843 q 419 900 349 900 q 575 869 504 900 l 546 760 l 528 756 q 392 811 456 811 q 311 782 344 811 q 278 719 278 753 m 331 246 q 435 357 435 289 q 405 426 435 396 q 313 500 375 457 q 286 518 289 515 q 182 403 182 471 q 210 338 182 367 q 300 267 239 310 l 331 246 z "},"¨":{"ha":542,"x_min":151,"x_max":518,"o":"m 225 919 q 273 901 256 919 q 290 851 290 882 q 271 797 290 817 q 219 776 251 776 q 151 846 151 776 q 171 899 151 879 q 225 919 190 919 m 453 918 q 501 900 483 918 q 518 850 518 882 q 499 795 518 815 q 449 775 481 775 q 381 844 381 775 q 400 898 381 878 q 453 918 419 918 z "},"©":{"ha":961,"x_min":78,"x_max":903,"o":"m 490 831 q 707 778 614 831 q 851 629 800 725 q 903 407 903 533 q 851 185 903 281 q 707 36 800 89 q 490 -17 614 -17 q 274 36 368 -17 q 129 185 181 89 q 78 407 78 281 q 129 629 78 533 q 274 778 181 725 q 490 831 368 831 m 490 778 q 302 731 383 778 q 176 601 221 685 q 131 407 131 517 q 176 213 131 297 q 302 83 221 129 q 490 36 383 36 q 678 83 597 36 q 805 213 760 129 q 850 407 850 297 q 805 601 850 517 q 678 731 760 685 q 490 778 597 778 m 515 646 q 643 617 575 646 l 625 543 l 617 539 q 511 568 569 568 q 381 417 381 568 q 513 253 381 253 q 625 281 569 253 l 635 278 l 626 203 q 507 175 568 175 q 341 235 397 175 q 285 408 285 294 q 344 584 285 522 q 515 646 404 646 z "},"ª":{"ha":440,"x_min":81,"x_max":450,"o":"m 406 565 l 399 465 l 300 457 l 324 638 l 322 632 l 311 632 q 189 456 253 519 l 172 456 q 101 508 121 474 q 81 599 81 542 q 137 790 81 706 q 299 896 193 874 l 304 896 l 378 886 l 440 901 l 450 894 l 406 565 m 201 549 q 256 607 215 549 q 339 760 296 665 l 343 792 l 344 813 l 285 824 q 204 771 233 822 q 175 638 175 719 q 183 571 175 593 q 201 549 192 549 z "},"«":{"ha":568,"x_min":49,"x_max":576,"o":"m 51 331 l 278 568 l 338 532 l 338 517 l 150 314 l 289 111 l 283 96 l 215 61 l 49 306 l 51 331 m 290 331 l 517 568 l 576 532 l 576 517 l 389 314 l 528 111 l 522 96 l 454 61 l 288 306 l 290 331 z "},"¬":{"ha":667,"x_min":39,"x_max":603,"o":"m 563 79 l 479 72 l 469 82 l 499 319 l 47 319 l 39 329 l 56 413 l 596 413 l 603 403 l 563 79 z "},"­":{"ha":425,"x_min":36,"x_max":397,"o":"m 386 329 l 47 281 l 36 292 l 47 378 l 386 425 l 397 414 l 386 329 z "},"®":{"ha":613,"x_min":53,"x_max":561,"o":"m 307 975 q 492 906 422 975 q 561 722 561 836 q 492 537 561 607 q 307 467 422 467 q 122 537 192 467 q 53 722 53 607 q 122 906 53 836 q 307 975 192 975 m 308 507 q 463 566 404 507 q 522 722 522 625 q 463 876 522 818 q 308 935 404 935 q 152 877 211 935 q 93 722 93 819 q 152 566 93 625 q 308 507 211 507 m 411 785 q 357 703 411 731 q 429 607 400 640 l 428 601 q 374 592 408 594 l 368 596 q 311 689 343 631 l 265 689 l 265 682 l 268 596 l 213 596 l 214 676 l 213 865 l 319 865 q 411 785 411 865 m 314 731 q 354 779 354 746 q 301 824 354 821 l 268 822 l 267 733 l 314 731 z "},"¯":{"ha":542,"x_min":131,"x_max":539,"o":"m 532 806 l 140 806 l 131 817 l 139 893 l 531 893 l 539 883 l 532 806 z "},"°":{"ha":407,"x_min":75,"x_max":432,"o":"m 275 901 q 388 856 343 901 q 432 744 432 811 q 404 649 432 693 q 331 578 376 604 q 233 551 285 551 q 119 597 164 551 q 75 708 75 642 q 103 806 75 761 q 176 876 131 850 q 275 901 222 901 m 268 839 q 178 802 217 839 q 139 715 139 765 q 168 644 139 674 q 239 614 197 614 q 330 650 292 614 q 368 738 368 686 q 340 810 368 781 q 268 839 311 839 z "},"±":{"ha":664,"x_min":-12,"x_max":636,"o":"m 389 413 l 625 413 l 636 403 l 617 319 l 378 319 l 349 79 l 264 72 l 256 82 l 283 319 l 46 319 l 39 329 l 57 413 l 294 413 l 325 653 l 410 661 l 419 650 l 389 413 m 568 -137 l -3 -137 l -12 -128 l -4 -44 l 565 -44 l 576 -54 l 568 -137 z "},"²":{"ha":490,"x_min":38,"x_max":451,"o":"m 289 978 q 396 946 353 978 q 439 863 439 914 q 406 772 439 819 q 294 640 374 724 l 193 533 l 194 531 l 356 531 l 447 535 l 451 526 l 429 440 l 311 444 l 81 444 l 43 443 l 38 447 l 44 514 l 199 665 q 294 770 267 733 q 322 838 322 807 q 306 874 322 860 q 261 888 290 888 q 118 819 190 888 l 106 819 l 96 903 q 289 978 199 978 z "},"³":{"ha":433,"x_min":75,"x_max":436,"o":"m 279 979 q 391 947 346 979 q 436 863 436 914 q 410 788 436 824 q 333 729 385 751 l 332 725 q 424 614 424 700 q 354 488 424 536 q 174 439 285 439 q 75 449 118 439 l 79 526 l 88 533 q 185 519 146 519 q 281 544 244 519 q 317 608 317 568 q 231 675 317 671 l 168 675 l 163 681 l 172 754 l 217 754 q 288 781 256 756 q 321 842 321 807 q 258 893 321 893 q 142 851 208 893 l 129 851 l 121 925 q 279 979 204 979 z "},"´":{"ha":542,"x_min":185,"x_max":485,"o":"m 485 907 l 481 893 q 233 721 344 794 l 219 722 l 185 775 q 421 981 336 901 l 433 979 l 485 907 z "},"µ":{"ha":678,"x_min":24,"x_max":618,"o":"m 549 154 l 543 4 l 415 -6 l 457 288 l 443 288 q 324 109 378 178 q 211 -6 271 40 l 196 -6 q 171 1 188 -4 l 156 -107 l 150 -260 l 24 -269 l 131 496 l 136 636 l 261 644 l 196 178 q 222 131 190 131 q 331 227 261 131 q 488 507 401 324 l 493 636 l 618 644 l 549 154 z "},"¶":{"ha":693,"x_min":82,"x_max":729,"o":"m 707 786 l 608 786 l 539 260 l 531 183 q 456 17 519 86 q 258 -111 393 -53 l 228 -49 l 231 -35 q 353 61 313 11 q 401 175 394 111 l 410 240 l 474 788 l 399 788 q 270 723 315 778 q 225 579 225 668 q 261 460 225 510 q 367 385 297 410 l 313 311 q 142 402 201 335 q 82 572 82 469 q 181 806 82 721 q 447 892 279 892 l 721 892 l 729 879 l 707 786 z "},"·":{"ha":319,"x_min":88,"x_max":236,"o":"m 165 419 q 217 400 199 419 q 236 346 236 381 q 215 289 236 310 q 160 268 194 268 q 88 342 88 268 q 108 399 88 378 q 165 419 129 419 z "},"¸":{"ha":542,"x_min":93,"x_max":318,"o":"m 264 -97 q 318 -176 318 -128 q 285 -247 318 -219 q 199 -274 253 -274 q 93 -231 142 -274 l 106 -168 l 113 -165 q 192 -207 151 -207 q 233 -174 233 -207 q 206 -142 233 -154 l 138 -101 l 171 29 l 244 29 l 217 -69 l 264 -97 z "},"¹":{"ha":367,"x_min":82,"x_max":331,"o":"m 286 632 l 267 444 l 154 444 l 179 619 l 208 857 l 89 829 l 82 835 l 93 921 l 318 981 l 331 968 l 286 632 z "},"º":{"ha":419,"x_min":81,"x_max":422,"o":"m 311 900 q 422 751 422 881 q 363 540 422 619 q 203 454 304 460 l 193 456 q 81 608 81 471 q 140 815 81 736 q 299 900 199 894 l 311 900 m 282 825 q 202 767 229 825 q 175 608 175 710 q 186 546 175 565 q 222 526 197 526 q 325 744 325 526 q 315 806 325 788 q 282 825 306 825 z "},"»":{"ha":561,"x_min":-4,"x_max":522,"o":"m 519 300 l 293 63 l 233 99 l 233 114 l 421 317 l 282 519 l 288 535 l 356 569 l 522 325 l 519 300 m 282 300 l 56 63 l -4 99 l -4 114 l 183 317 l 44 519 l 50 535 l 118 569 l 285 325 l 282 300 z "},"¼":{"ha":979,"x_min":-7,"x_max":921,"o":"m 51 -126 l -1 -92 l -7 -75 l 772 946 l 824 911 l 831 890 l 51 -126 m 71 754 l 82 840 l 307 900 l 319 888 l 275 551 l 256 364 l 143 364 l 168 539 l 197 776 l 78 749 l 71 754 m 828 135 l 818 7 l 810 0 l 722 -4 l 717 1 l 736 135 l 579 135 l 503 132 l 496 140 l 504 210 l 775 529 l 876 529 l 836 218 l 915 218 l 921 207 l 907 132 l 828 135 m 747 218 l 771 407 l 764 407 l 604 218 l 747 218 z "},"½":{"ha":975,"x_min":-7,"x_max":911,"o":"m 831 890 l 51 -126 l -1 -92 l -7 -75 l 772 946 l 824 911 l 831 890 m 275 551 l 256 364 l 143 364 l 168 539 l 197 776 l 78 749 l 71 754 l 82 840 l 307 900 l 319 888 l 275 551 m 749 533 q 856 501 813 533 q 899 418 899 469 q 866 327 899 375 q 754 196 833 279 l 653 89 l 654 86 l 815 86 l 907 90 l 911 82 l 889 -4 l 771 0 l 540 0 l 503 -1 l 497 3 l 504 69 l 658 221 q 754 326 726 289 q 782 393 782 363 q 766 429 782 415 q 721 443 750 443 q 578 375 650 443 l 565 375 l 556 458 q 749 533 658 533 z "},"¾":{"ha":1046,"x_min":53,"x_max":988,"o":"m 118 -126 l 65 -92 l 60 -75 l 839 946 l 890 911 l 897 890 l 118 -126 m 401 533 q 332 407 401 456 q 151 358 263 358 q 53 368 96 358 l 57 446 l 65 453 q 163 439 124 439 q 258 463 222 439 q 294 528 294 488 q 208 594 294 590 l 146 594 l 140 600 l 150 674 l 194 674 q 266 701 233 675 q 299 761 299 726 q 236 813 299 813 q 119 771 186 813 l 107 771 l 99 844 q 257 899 182 899 q 369 866 324 899 q 414 782 414 833 q 388 707 414 743 q 311 649 363 671 l 310 644 q 401 533 401 619 m 894 135 l 885 7 l 876 0 l 789 -4 l 783 1 l 803 135 l 646 135 l 569 132 l 563 140 l 571 210 l 842 529 l 943 529 l 903 218 l 982 218 l 988 207 l 974 132 l 894 135 m 814 218 l 838 407 l 831 407 l 671 218 l 814 218 z "},"¿":{"ha":464,"x_min":-42,"x_max":371,"o":"m 292 -276 q 44 -215 131 -267 q -42 -74 -42 -162 q -4 40 -42 -14 q 103 132 33 93 l 222 203 l 225 208 l 233 336 l 329 349 l 339 338 l 331 175 l 322 161 l 182 86 q 83 -47 83 32 q 333 -181 83 -164 l 342 -194 l 307 -268 l 292 -276 m 293 501 q 241 521 260 501 q 222 575 222 540 q 243 632 222 611 q 299 653 264 653 q 371 579 371 653 q 350 522 371 543 q 293 501 329 501 z "},"À":{"ha":779,"x_min":-22,"x_max":715,"o":"m 578 0 l 568 99 l 546 226 l 367 231 l 204 228 l 149 104 l 113 0 l -22 0 l 392 892 l 551 892 l 715 0 l 578 0 m 457 756 l 446 756 l 257 340 l 390 338 l 528 339 l 457 756 m 378 1214 q 653 1067 500 1143 l 629 1008 l 614 1003 q 335 1118 428 1076 l 329 1132 l 364 1211 l 378 1214 z "},"Á":{"ha":779,"x_min":-22,"x_max":715,"o":"m 578 0 l 568 99 l 546 226 l 367 231 l 204 228 l 149 104 l 113 0 l -22 0 l 392 892 l 551 892 l 715 0 l 578 0 m 457 756 l 446 756 l 257 340 l 390 338 l 528 339 l 457 756 m 665 1128 l 660 1114 q 381 999 551 1065 l 365 1004 l 342 1063 q 617 1211 522 1154 l 631 1207 l 665 1128 z "},"Â":{"ha":779,"x_min":-22,"x_max":715,"o":"m 578 0 l 568 99 l 546 226 l 367 231 l 204 228 l 149 104 l 113 0 l -22 0 l 392 892 l 551 892 l 715 0 l 578 0 m 457 756 l 446 756 l 257 340 l 390 338 l 528 339 l 457 756 m 306 1071 q 488 1203 396 1128 l 521 1203 q 679 1071 589 1139 l 644 1014 l 631 1014 q 499 1106 569 1054 l 393 1044 l 340 1014 l 325 1014 l 306 1071 z "},"Ã":{"ha":779,"x_min":-22,"x_max":717,"o":"m 578 0 l 568 99 l 546 226 l 367 231 l 204 228 l 149 104 l 113 0 l -22 0 l 392 892 l 551 892 l 715 0 l 578 0 m 457 756 l 446 756 l 257 340 l 390 338 l 528 339 l 457 756 m 717 1140 l 628 1035 l 614 1029 q 496 1058 576 1035 q 399 1081 413 1081 q 374 1070 386 1081 q 336 1033 361 1060 l 317 1013 l 304 1013 l 263 1054 l 263 1067 l 351 1172 l 367 1176 q 485 1150 406 1171 q 582 1128 558 1128 q 608 1139 594 1128 q 638 1167 622 1150 q 664 1194 654 1185 l 676 1194 l 717 1153 l 717 1140 z "},"Ä":{"ha":779,"x_min":-22,"x_max":715,"o":"m 578 0 l 568 99 l 546 226 l 367 231 l 204 228 l 149 104 l 113 0 l -22 0 l 392 892 l 551 892 l 715 0 l 578 0 m 457 756 l 446 756 l 257 340 l 390 338 l 528 339 l 457 756 m 381 1171 q 428 1152 411 1171 q 446 1103 446 1133 q 426 1048 446 1068 q 375 1028 407 1028 q 307 1097 307 1028 q 326 1151 307 1131 q 381 1171 346 1171 m 608 1169 q 656 1151 639 1169 q 674 1101 674 1133 q 655 1047 674 1067 q 604 1026 636 1026 q 536 1096 536 1026 q 556 1149 536 1129 q 608 1169 575 1169 z "},"Å":{"ha":779,"x_min":-22,"x_max":715,"o":"m 578 0 l 568 99 l 546 226 l 367 231 l 204 228 l 149 104 l 113 0 l -22 0 l 392 892 l 551 892 l 715 0 l 578 0 m 457 756 l 446 756 l 257 340 l 390 338 l 528 339 l 457 756 m 494 1232 q 583 1200 553 1232 q 614 1115 614 1168 q 579 1024 614 1057 q 489 992 544 992 q 403 1023 436 992 q 371 1111 371 1054 q 403 1200 371 1168 q 494 1232 436 1232 m 490 1169 q 432 1113 432 1169 q 493 1053 432 1053 q 553 1110 553 1053 q 490 1169 553 1169 z "},"Æ":{"ha":1081,"x_min":-61,"x_max":1038,"o":"m 1014 0 l 531 0 l 536 99 l 535 343 l 225 268 l 126 104 l 76 0 l -61 0 l 485 892 l 1015 892 l 1022 879 l 999 774 l 788 781 l 664 781 l 664 478 l 947 543 l 957 535 l 954 436 l 665 374 l 665 108 l 813 108 l 1031 117 l 1038 106 l 1014 0 m 531 756 l 522 756 l 301 393 l 533 447 l 531 756 z "},"Ç":{"ha":699,"x_min":60,"x_max":736,"o":"m 508 900 q 736 838 643 900 l 696 717 l 682 713 q 492 786 601 786 q 279 680 354 786 q 204 378 204 574 q 257 175 204 244 q 408 106 310 106 q 632 183 526 106 l 644 175 l 617 50 q 436 -7 525 1 l 419 -68 l 467 -96 q 521 -175 521 -126 q 488 -245 521 -218 q 401 -272 456 -272 q 296 -229 344 -272 l 308 -167 l 315 -164 q 394 -206 354 -206 q 436 -172 436 -206 q 408 -140 436 -153 l 340 -100 l 364 -10 q 139 94 218 -1 q 60 357 60 189 q 113 647 60 525 q 267 835 165 769 q 508 900 368 900 z "},"È":{"ha":660,"x_min":79,"x_max":701,"o":"m 276 511 l 432 508 l 572 513 l 579 503 l 557 397 l 407 401 l 261 399 l 244 279 l 228 113 l 393 110 l 597 117 l 601 106 l 581 0 l 79 0 l 121 268 l 192 892 l 694 892 l 701 879 l 678 774 l 476 779 l 314 778 l 276 511 m 347 1214 q 622 1067 469 1143 l 599 1008 l 583 1003 q 304 1118 397 1076 l 299 1132 l 333 1211 l 347 1214 z "},"É":{"ha":660,"x_min":79,"x_max":701,"o":"m 276 511 l 432 508 l 572 513 l 579 503 l 557 397 l 407 401 l 261 399 l 244 279 l 228 113 l 393 110 l 597 117 l 601 106 l 581 0 l 79 0 l 121 268 l 192 892 l 694 892 l 701 879 l 678 774 l 476 779 l 314 778 l 276 511 m 635 1128 l 629 1114 q 350 999 521 1065 l 335 1004 l 311 1063 q 586 1211 492 1154 l 600 1207 l 635 1128 z "},"Ê":{"ha":660,"x_min":79,"x_max":701,"o":"m 276 511 l 432 508 l 572 513 l 579 503 l 557 397 l 407 401 l 261 399 l 244 279 l 228 113 l 393 110 l 597 117 l 601 106 l 581 0 l 79 0 l 121 268 l 192 892 l 694 892 l 701 879 l 678 774 l 476 779 l 314 778 l 276 511 m 275 1071 q 457 1203 365 1128 l 490 1203 q 649 1071 558 1139 l 614 1014 l 600 1014 q 468 1106 539 1054 l 363 1044 l 310 1014 l 294 1014 l 275 1071 z "},"Ë":{"ha":660,"x_min":79,"x_max":701,"o":"m 276 511 l 432 508 l 572 513 l 579 503 l 557 397 l 407 401 l 261 399 l 244 279 l 228 113 l 393 110 l 597 117 l 601 106 l 581 0 l 79 0 l 121 268 l 192 892 l 694 892 l 701 879 l 678 774 l 476 779 l 314 778 l 276 511 m 350 1171 q 398 1152 381 1171 q 415 1103 415 1133 q 396 1048 415 1068 q 344 1028 376 1028 q 276 1097 276 1028 q 296 1151 276 1131 q 350 1171 315 1171 m 578 1169 q 626 1151 608 1169 q 643 1101 643 1133 q 624 1047 643 1067 q 574 1026 606 1026 q 506 1096 506 1026 q 525 1149 506 1129 q 578 1169 544 1169 z "},"Ì":{"ha":375,"x_min":79,"x_max":446,"o":"m 217 0 l 79 0 l 119 268 l 190 892 l 328 892 l 243 279 l 217 0 m 171 1214 q 446 1067 293 1143 l 422 1008 l 407 1003 q 128 1118 221 1076 l 122 1132 l 157 1211 l 171 1214 z "},"Í":{"ha":375,"x_min":79,"x_max":458,"o":"m 217 0 l 79 0 l 119 268 l 190 892 l 328 892 l 243 279 l 217 0 m 458 1128 l 453 1114 q 174 999 344 1065 l 158 1004 l 135 1063 q 410 1211 315 1154 l 424 1207 l 458 1128 z "},"Î":{"ha":375,"x_min":79,"x_max":472,"o":"m 217 0 l 79 0 l 119 268 l 190 892 l 328 892 l 243 279 l 217 0 m 99 1071 q 281 1203 189 1128 l 314 1203 q 472 1071 382 1139 l 438 1014 l 424 1014 q 292 1106 363 1054 l 186 1044 l 133 1014 l 118 1014 l 99 1071 z "},"Ï":{"ha":375,"x_min":79,"x_max":447,"o":"m 217 0 l 79 0 l 119 268 l 190 892 l 328 892 l 243 279 l 217 0 m 193 1169 q 242 1151 224 1169 q 260 1101 260 1133 q 240 1047 260 1067 q 189 1026 221 1026 q 121 1096 121 1026 q 140 1149 121 1129 q 193 1169 160 1169 m 381 1169 q 429 1151 411 1169 q 447 1101 447 1133 q 428 1047 447 1067 q 376 1026 408 1026 q 308 1096 308 1026 q 328 1149 308 1129 q 381 1169 347 1169 z "},"Ð":{"ha":907,"x_min":40,"x_max":882,"o":"m 539 897 q 792 806 701 897 q 882 549 882 715 q 827 251 882 376 q 666 59 772 126 q 408 -8 560 -8 q 115 0 271 -8 l 114 0 l 156 268 l 171 401 l 46 401 l 40 413 l 53 496 l 181 496 l 225 892 l 226 892 l 539 897 m 436 101 q 659 209 581 101 q 738 525 738 317 q 524 785 738 785 q 349 779 451 785 l 308 496 l 507 496 l 511 485 l 501 401 l 294 401 l 278 279 l 261 111 q 436 101 368 101 z "},"Ñ":{"ha":919,"x_min":79,"x_max":875,"o":"m 760 0 l 615 0 l 296 678 l 286 678 l 238 297 l 206 0 l 79 0 l 119 264 l 193 892 l 336 892 l 656 213 l 665 213 l 746 885 l 875 894 l 788 265 l 760 0 m 783 1140 l 694 1035 l 681 1029 q 563 1058 643 1035 q 465 1081 479 1081 q 440 1070 453 1081 q 403 1033 428 1060 l 383 1013 l 371 1013 l 329 1054 l 329 1067 l 418 1172 l 433 1176 q 551 1150 472 1171 q 649 1128 625 1128 q 675 1139 661 1128 q 705 1167 689 1150 q 731 1194 721 1185 l 743 1194 l 783 1153 l 783 1140 z "},"Ò":{"ha":858,"x_min":60,"x_max":835,"o":"m 504 901 q 748 808 661 901 q 835 540 835 714 q 783 247 835 371 q 630 56 731 124 q 388 -11 529 -11 q 147 85 233 -11 q 60 357 60 182 q 175 757 60 613 q 504 901 290 901 m 489 789 q 200 364 200 789 q 249 164 200 229 q 401 99 299 99 q 690 526 690 99 q 641 725 690 661 q 489 789 592 789 m 413 1214 q 688 1067 535 1143 l 664 1008 l 649 1003 q 369 1118 463 1076 l 364 1132 l 399 1211 l 413 1214 z "},"Ó":{"ha":858,"x_min":60,"x_max":835,"o":"m 504 901 q 748 808 661 901 q 835 540 835 714 q 783 247 835 371 q 630 56 731 124 q 388 -11 529 -11 q 147 85 233 -11 q 60 357 60 182 q 175 757 60 613 q 504 901 290 901 m 489 789 q 200 364 200 789 q 249 164 200 229 q 401 99 299 99 q 690 526 690 99 q 641 725 690 661 q 489 789 592 789 m 701 1128 l 696 1114 q 417 999 588 1065 l 401 1004 l 378 1063 q 653 1211 558 1154 l 667 1207 l 701 1128 z "},"Ô":{"ha":858,"x_min":60,"x_max":835,"o":"m 504 901 q 748 808 661 901 q 835 540 835 714 q 783 247 835 371 q 630 56 731 124 q 388 -11 529 -11 q 147 85 233 -11 q 60 357 60 182 q 175 757 60 613 q 504 901 290 901 m 489 789 q 200 364 200 789 q 249 164 200 229 q 401 99 299 99 q 690 526 690 99 q 641 725 690 661 q 489 789 592 789 m 340 1071 q 522 1203 431 1128 l 556 1203 q 714 1071 624 1139 l 679 1014 l 665 1014 q 533 1106 604 1054 l 428 1044 l 375 1014 l 360 1014 l 340 1071 z "},"Õ":{"ha":858,"x_min":60,"x_max":835,"o":"m 504 901 q 748 808 661 901 q 835 540 835 714 q 783 247 835 371 q 630 56 731 124 q 388 -11 529 -11 q 147 85 233 -11 q 60 357 60 182 q 175 757 60 613 q 504 901 290 901 m 489 789 q 200 364 200 789 q 249 164 200 229 q 401 99 299 99 q 690 526 690 99 q 641 725 690 661 q 489 789 592 789 m 751 1140 l 663 1035 l 649 1029 q 531 1058 611 1035 q 433 1081 447 1081 q 408 1070 421 1081 q 371 1033 396 1060 l 351 1013 l 339 1013 l 297 1054 l 297 1067 l 386 1172 l 401 1176 q 519 1150 440 1171 q 617 1128 593 1128 q 643 1139 629 1128 q 673 1167 657 1150 q 699 1194 689 1185 l 711 1194 l 751 1153 l 751 1140 z "},"Ö":{"ha":858,"x_min":60,"x_max":835,"o":"m 504 901 q 748 808 661 901 q 835 540 835 714 q 783 247 835 371 q 630 56 731 124 q 388 -11 529 -11 q 147 85 233 -11 q 60 357 60 182 q 175 757 60 613 q 504 901 290 901 m 489 789 q 200 364 200 789 q 249 164 200 229 q 401 99 299 99 q 690 526 690 99 q 641 725 690 661 q 489 789 592 789 m 415 1171 q 463 1152 446 1171 q 481 1103 481 1133 q 461 1048 481 1068 q 410 1028 442 1028 q 342 1097 342 1028 q 361 1151 342 1131 q 415 1171 381 1171 m 643 1169 q 691 1151 674 1169 q 708 1101 708 1133 q 690 1047 708 1067 q 639 1026 671 1026 q 571 1096 571 1026 q 590 1149 571 1129 q 643 1169 610 1169 z "},"×":{"ha":668,"x_min":83,"x_max":596,"o":"m 594 533 l 406 367 l 553 199 l 551 185 l 481 129 l 331 299 l 139 129 l 83 185 l 85 197 l 274 367 l 126 533 l 128 549 l 197 603 l 349 432 l 538 603 l 596 549 l 594 533 z "},"Ø":{"ha":860,"x_min":60,"x_max":835,"o":"m 721 833 q 835 540 835 740 q 783 247 835 371 q 631 56 731 124 q 389 -11 531 -11 q 249 14 311 -11 l 156 -149 l 79 -118 l 75 -106 l 171 61 q 60 357 60 157 q 176 757 60 613 q 504 901 292 901 q 640 879 582 901 l 715 1011 l 790 981 l 796 965 l 721 833 m 200 364 q 239 179 200 244 l 579 772 q 488 789 539 789 q 200 364 200 789 m 401 99 q 690 526 690 99 q 650 711 690 646 l 308 117 q 401 99 346 99 z "},"Ù":{"ha":842,"x_min":90,"x_max":819,"o":"m 747 335 q 635 78 728 168 q 383 -11 543 -11 q 168 57 246 -11 q 90 250 90 125 q 94 324 90 285 l 113 446 l 164 892 l 299 892 l 225 342 q 221 282 221 308 q 393 107 221 107 q 621 328 596 107 l 683 892 l 819 892 l 760 438 l 747 335 m 406 1214 q 681 1067 528 1143 l 657 1008 l 642 1003 q 363 1118 456 1076 l 357 1132 l 392 1211 l 406 1214 z "},"Ú":{"ha":842,"x_min":90,"x_max":819,"o":"m 747 335 q 635 78 728 168 q 383 -11 543 -11 q 168 57 246 -11 q 90 250 90 125 q 94 324 90 285 l 113 446 l 164 892 l 299 892 l 225 342 q 221 282 221 308 q 393 107 221 107 q 621 328 596 107 l 683 892 l 819 892 l 760 438 l 747 335 m 693 1128 l 688 1114 q 408 999 579 1065 l 393 1004 l 369 1063 q 644 1211 550 1154 l 658 1207 l 693 1128 z "},"Û":{"ha":842,"x_min":90,"x_max":819,"o":"m 747 335 q 635 78 728 168 q 383 -11 543 -11 q 168 57 246 -11 q 90 250 90 125 q 94 324 90 285 l 113 446 l 164 892 l 299 892 l 225 342 q 221 282 221 308 q 393 107 221 107 q 621 328 596 107 l 683 892 l 819 892 l 760 438 l 747 335 m 333 1071 q 515 1203 424 1128 l 549 1203 q 707 1071 617 1139 l 672 1014 l 658 1014 q 526 1106 597 1054 l 421 1044 l 368 1014 l 353 1014 l 333 1071 z "},"Ü":{"ha":842,"x_min":90,"x_max":819,"o":"m 747 335 q 635 78 728 168 q 383 -11 543 -11 q 168 57 246 -11 q 90 250 90 125 q 94 324 90 285 l 113 446 l 164 892 l 299 892 l 225 342 q 221 282 221 308 q 393 107 221 107 q 621 328 596 107 l 683 892 l 819 892 l 760 438 l 747 335 m 408 1171 q 456 1152 439 1171 q 474 1103 474 1133 q 454 1048 474 1068 q 403 1028 435 1028 q 335 1097 335 1028 q 354 1151 335 1131 q 408 1171 374 1171 m 636 1169 q 684 1151 667 1169 q 701 1101 701 1133 q 683 1047 701 1067 q 632 1026 664 1026 q 564 1096 564 1026 q 583 1149 564 1129 q 636 1169 603 1169 z "},"Ý":{"ha":719,"x_min":86,"x_max":781,"o":"m 401 256 l 375 0 l 238 0 l 279 256 l 285 317 l 86 892 l 228 892 l 238 838 l 361 458 l 374 458 l 606 833 l 635 892 l 781 892 l 410 314 l 401 256 m 632 1128 l 626 1114 q 347 999 518 1065 l 332 1004 l 308 1063 q 583 1211 489 1154 l 597 1207 l 632 1128 z "},"Þ":{"ha":722,"x_min":81,"x_max":703,"o":"m 453 743 q 637 684 571 743 q 703 508 703 625 q 658 327 703 407 q 529 201 613 247 q 335 156 446 156 l 232 156 l 217 0 l 81 0 l 119 268 l 193 892 l 329 892 l 308 742 l 453 743 m 396 261 q 516 337 471 275 q 561 489 561 399 q 527 595 561 560 q 415 635 493 631 l 293 631 l 244 279 l 243 265 l 396 261 z "},"ß":{"ha":768,"x_min":56,"x_max":708,"o":"m 440 703 q 570 686 508 703 q 707 633 632 669 l 708 614 l 517 407 q 662 320 617 365 q 707 208 707 275 q 672 91 707 140 q 577 16 636 42 q 449 -10 518 -10 q 260 38 339 -10 l 289 161 l 301 167 q 376 113 335 132 q 453 93 418 93 q 537 124 503 93 q 571 199 571 154 q 521 276 571 243 q 358 344 471 308 l 357 364 l 542 564 q 417 600 479 600 q 292 562 338 600 q 236 451 246 524 l 203 219 l 182 0 l 56 0 l 85 204 l 115 451 q 216 635 129 567 q 440 703 303 703 z "},"à":{"ha":696,"x_min":-10,"x_max":615,"o":"m 486 0 l 482 83 l 467 164 l 317 165 l 183 164 l 147 90 l 115 0 l -10 0 l 328 696 l 476 696 l 615 0 l 486 0 m 388 574 l 379 574 l 232 267 l 338 265 l 447 267 l 388 574 m 321 1036 q 557 831 410 950 l 521 778 l 507 776 q 260 949 396 850 l 257 963 l 307 1035 l 321 1036 z "},"á":{"ha":696,"x_min":-10,"x_max":615,"o":"m 486 0 l 482 83 l 467 164 l 317 165 l 183 164 l 147 90 l 115 0 l -10 0 l 328 696 l 476 696 l 615 0 l 486 0 m 388 574 l 379 574 l 232 267 l 338 265 l 447 267 l 388 574 m 574 963 l 569 949 q 322 776 433 850 l 308 778 l 274 831 q 510 1036 425 957 l 522 1035 l 574 963 z "},"â":{"ha":696,"x_min":-10,"x_max":615,"o":"m 486 0 l 482 83 l 467 164 l 317 165 l 183 164 l 147 90 l 115 0 l -10 0 l 328 696 l 476 696 l 615 0 l 486 0 m 388 574 l 379 574 l 232 267 l 338 265 l 447 267 l 388 574 m 228 836 q 426 1026 301 901 l 461 1026 q 615 836 536 924 l 574 783 l 560 783 q 433 922 479 864 q 271 783 382 874 l 256 783 l 228 836 z "},"ã":{"ha":696,"x_min":-10,"x_max":647,"o":"m 486 0 l 482 83 l 467 164 l 317 165 l 183 164 l 147 90 l 115 0 l -10 0 l 328 696 l 476 696 l 615 0 l 486 0 m 388 574 l 379 574 l 232 267 l 338 265 l 447 267 l 388 574 m 647 944 l 558 839 l 544 833 q 426 863 507 839 q 329 885 343 885 q 304 874 317 885 q 267 838 292 864 l 247 817 l 235 817 l 193 858 l 193 871 l 282 976 l 297 981 q 415 954 336 975 q 513 932 489 932 q 539 943 525 932 q 569 972 553 954 q 594 999 585 989 l 607 999 l 647 957 l 647 944 z "},"ä":{"ha":696,"x_min":-10,"x_max":615,"o":"m 486 0 l 482 83 l 467 164 l 317 165 l 183 164 l 147 90 l 115 0 l -10 0 l 328 696 l 476 696 l 615 0 l 486 0 m 388 574 l 379 574 l 232 267 l 338 265 l 447 267 l 388 574 m 311 975 q 359 956 342 975 q 376 907 376 938 q 357 852 376 872 q 306 832 338 832 q 238 901 238 832 q 257 955 238 935 q 311 975 276 975 m 539 974 q 587 956 569 974 q 604 906 604 938 q 585 851 604 871 q 535 831 567 831 q 467 900 467 831 q 486 953 467 933 q 539 974 506 974 z "},"å":{"ha":696,"x_min":-10,"x_max":615,"o":"m 486 0 l 482 83 l 467 164 l 317 165 l 183 164 l 147 90 l 115 0 l -10 0 l 328 696 l 476 696 l 615 0 l 486 0 m 388 574 l 379 574 l 232 267 l 338 265 l 447 267 l 388 574 m 425 1036 q 514 1004 483 1036 q 544 919 544 972 q 510 828 544 861 q 419 796 475 796 q 334 827 367 796 q 301 915 301 858 q 334 1004 301 972 q 425 1036 367 1036 m 421 974 q 363 917 363 974 q 424 857 363 857 q 483 914 483 857 q 421 974 483 974 z "},"æ":{"ha":944,"x_min":-39,"x_max":889,"o":"m 868 0 l 456 0 l 463 82 l 460 250 l 186 185 l 124 88 l 82 0 l -39 0 l 408 694 l 864 694 l 871 685 l 847 589 l 671 597 l 569 597 l 574 374 l 808 429 l 817 421 l 814 324 l 575 276 l 578 100 l 699 100 l 882 107 l 889 97 l 868 0 m 453 576 l 443 576 l 264 301 l 457 346 l 453 576 z "},"ç":{"ha":618,"x_min":56,"x_max":622,"o":"m 433 703 q 622 658 549 703 l 585 543 l 571 539 q 411 599 508 599 q 247 523 304 599 q 190 301 190 447 q 232 149 190 201 q 353 97 274 97 q 536 157 449 97 l 549 150 l 524 36 q 378 -7 451 -1 l 361 -68 l 408 -96 q 463 -175 463 -126 q 430 -245 463 -218 q 343 -272 397 -272 q 238 -229 286 -272 l 250 -167 l 257 -164 q 336 -206 296 -206 q 378 -172 378 -206 q 350 -140 378 -153 l 282 -100 l 306 -7 q 120 79 185 3 q 56 286 56 156 q 156 593 56 483 q 433 703 256 703 z "},"è":{"ha":596,"x_min":75,"x_max":600,"o":"m 249 406 l 379 404 l 494 408 l 501 399 l 481 300 l 356 304 l 235 303 l 224 219 l 211 103 l 336 101 l 517 107 l 525 97 l 503 0 l 75 0 l 106 208 l 161 696 l 594 696 l 600 685 l 578 588 l 410 594 l 275 593 l 249 406 m 299 1036 q 535 831 388 950 l 499 778 l 485 776 q 238 949 374 850 l 235 963 l 285 1035 l 299 1036 z "},"é":{"ha":596,"x_min":75,"x_max":600,"o":"m 249 406 l 379 404 l 494 408 l 501 399 l 481 300 l 356 304 l 235 303 l 224 219 l 211 103 l 336 101 l 517 107 l 525 97 l 503 0 l 75 0 l 106 208 l 161 696 l 594 696 l 600 685 l 578 588 l 410 594 l 275 593 l 249 406 m 551 963 l 547 949 q 300 776 411 850 l 286 778 l 251 831 q 488 1036 403 957 l 500 1035 l 551 963 z "},"ê":{"ha":596,"x_min":75,"x_max":600,"o":"m 249 406 l 379 404 l 494 408 l 501 399 l 481 300 l 356 304 l 235 303 l 224 219 l 211 103 l 336 101 l 517 107 l 525 97 l 503 0 l 75 0 l 106 208 l 161 696 l 594 696 l 600 685 l 578 588 l 410 594 l 275 593 l 249 406 m 206 836 q 404 1026 279 901 l 439 1026 q 593 836 514 924 l 551 783 l 538 783 q 411 922 457 864 q 249 783 360 874 l 233 783 l 206 836 z "},"ë":{"ha":596,"x_min":75,"x_max":600,"o":"m 249 406 l 379 404 l 494 408 l 501 399 l 481 300 l 356 304 l 235 303 l 224 219 l 211 103 l 336 101 l 517 107 l 525 97 l 503 0 l 75 0 l 106 208 l 161 696 l 594 696 l 600 685 l 578 588 l 410 594 l 275 593 l 249 406 m 289 975 q 337 956 319 975 q 354 907 354 938 q 335 852 354 872 q 283 832 315 832 q 215 901 215 832 q 235 955 215 935 q 289 975 254 975 m 517 974 q 565 956 547 974 q 582 906 582 938 q 563 851 582 871 q 513 831 544 831 q 444 900 444 831 q 464 953 444 933 q 517 974 483 974 z "},"ì":{"ha":363,"x_min":75,"x_max":385,"o":"m 201 0 l 75 0 l 107 208 l 161 696 l 290 696 l 224 219 l 201 0 m 149 1036 q 385 831 238 950 l 349 778 l 335 776 q 88 949 224 850 l 85 963 l 135 1035 l 149 1036 z "},"í":{"ha":363,"x_min":75,"x_max":401,"o":"m 201 0 l 75 0 l 107 208 l 161 696 l 290 696 l 224 219 l 201 0 m 401 963 l 397 949 q 150 776 261 850 l 136 778 l 101 831 q 338 1036 253 957 l 350 1035 l 401 963 z "},"î":{"ha":363,"x_min":56,"x_max":443,"o":"m 201 0 l 75 0 l 107 208 l 161 696 l 290 696 l 224 219 l 201 0 m 56 836 q 254 1026 129 901 l 289 1026 q 443 836 364 924 l 401 783 l 388 783 q 261 922 307 864 q 99 783 210 874 l 83 783 l 56 836 z "},"ï":{"ha":363,"x_min":75,"x_max":413,"o":"m 201 0 l 75 0 l 107 208 l 161 696 l 290 696 l 224 219 l 201 0 m 158 974 q 207 956 189 974 q 225 906 225 938 q 206 851 225 871 q 154 831 186 831 q 86 900 86 831 q 106 953 86 933 q 158 974 125 974 m 346 974 q 394 956 376 974 q 413 906 413 938 q 393 851 413 871 q 342 831 374 831 q 274 900 274 831 q 293 953 274 933 q 346 974 313 974 z "},"ð":{"ha":761,"x_min":4,"x_max":728,"o":"m 439 700 q 651 628 575 700 q 728 425 728 556 q 625 108 728 222 q 332 -7 522 -7 q 82 0 197 -7 l 113 208 l 122 299 l 10 299 l 4 310 l 19 388 l 133 388 l 168 696 l 439 700 m 358 94 q 533 172 471 94 q 594 401 594 249 q 421 594 594 594 q 282 589 368 594 l 254 388 l 413 388 l 417 376 l 403 299 l 242 299 l 231 219 l 218 103 q 358 94 307 94 z "},"ñ":{"ha":810,"x_min":75,"x_max":743,"o":"m 653 0 l 518 0 l 257 500 l 249 500 l 215 235 l 189 0 l 75 0 l 106 204 l 163 696 l 296 696 l 558 196 l 568 196 l 626 690 l 743 699 l 674 211 l 653 0 m 700 944 l 611 839 l 597 833 q 479 863 560 839 q 382 885 396 885 q 357 874 369 885 q 319 838 344 864 l 300 817 l 288 817 l 246 858 l 246 871 l 335 976 l 350 981 q 468 954 389 975 q 565 932 542 932 q 592 943 578 932 q 622 972 606 954 q 647 999 638 989 l 660 999 l 700 957 l 700 944 z "},"ò":{"ha":756,"x_min":56,"x_max":708,"o":"m 429 704 q 636 629 564 704 q 708 401 708 554 q 664 188 708 282 q 535 42 619 94 q 336 -10 451 -10 q 128 67 200 -10 q 56 297 56 143 q 99 510 56 418 q 228 653 143 601 q 429 704 313 704 m 413 599 q 188 304 188 599 q 225 141 188 189 q 350 93 263 93 q 575 389 575 93 q 538 550 575 501 q 413 599 500 599 m 346 1036 q 582 831 435 950 l 546 778 l 532 776 q 285 949 421 850 l 282 963 l 332 1035 l 346 1036 z "},"ó":{"ha":756,"x_min":56,"x_max":708,"o":"m 429 704 q 636 629 564 704 q 708 401 708 554 q 664 188 708 282 q 535 42 619 94 q 336 -10 451 -10 q 128 67 200 -10 q 56 297 56 143 q 99 510 56 418 q 228 653 143 601 q 429 704 313 704 m 413 599 q 188 304 188 599 q 225 141 188 189 q 350 93 263 93 q 575 389 575 93 q 538 550 575 501 q 413 599 500 599 m 599 963 l 594 949 q 347 776 458 850 l 333 778 l 299 831 q 535 1036 450 957 l 547 1035 l 599 963 z "},"ô":{"ha":756,"x_min":56,"x_max":708,"o":"m 429 704 q 636 629 564 704 q 708 401 708 554 q 664 188 708 282 q 535 42 619 94 q 336 -10 451 -10 q 128 67 200 -10 q 56 297 56 143 q 99 510 56 418 q 228 653 143 601 q 429 704 313 704 m 413 599 q 188 304 188 599 q 225 141 188 189 q 350 93 263 93 q 575 389 575 93 q 538 550 575 501 q 413 599 500 599 m 253 836 q 451 1026 326 901 l 486 1026 q 640 836 561 924 l 599 783 l 585 783 q 458 922 504 864 q 296 783 407 874 l 281 783 l 253 836 z "},"õ":{"ha":756,"x_min":56,"x_max":708,"o":"m 429 704 q 636 629 564 704 q 708 401 708 554 q 664 188 708 282 q 535 42 619 94 q 336 -10 451 -10 q 128 67 200 -10 q 56 297 56 143 q 99 510 56 418 q 228 653 143 601 q 429 704 313 704 m 413 599 q 188 304 188 599 q 225 141 188 189 q 350 93 263 93 q 575 389 575 93 q 538 550 575 501 q 413 599 500 599 m 672 944 l 583 839 l 569 833 q 451 863 532 839 q 354 885 368 885 q 329 874 342 885 q 292 838 317 864 l 272 817 l 260 817 l 218 858 l 218 871 l 307 976 l 322 981 q 440 954 361 975 q 538 932 514 932 q 564 943 550 932 q 594 972 578 954 q 619 999 610 989 l 632 999 l 672 957 l 672 944 z "},"ö":{"ha":756,"x_min":56,"x_max":708,"o":"m 429 704 q 636 629 564 704 q 708 401 708 554 q 664 188 708 282 q 535 42 619 94 q 336 -10 451 -10 q 128 67 200 -10 q 56 297 56 143 q 99 510 56 418 q 228 653 143 601 q 429 704 313 704 m 413 599 q 188 304 188 599 q 225 141 188 189 q 350 93 263 93 q 575 389 575 93 q 538 550 575 501 q 413 599 500 599 m 336 975 q 384 956 367 975 q 401 907 401 938 q 382 852 401 872 q 331 832 363 832 q 263 901 263 832 q 282 955 263 935 q 336 975 301 975 m 564 974 q 612 956 594 974 q 629 906 629 938 q 610 851 629 871 q 560 831 592 831 q 492 900 492 831 q 511 953 492 933 q 564 974 531 974 z "},"÷":{"ha":663,"x_min":43,"x_max":632,"o":"m 624 319 l 53 319 l 43 329 l 51 413 l 621 413 l 632 403 l 624 319 m 294 193 q 342 175 324 193 q 359 125 359 157 q 340 73 359 92 q 289 53 321 53 q 222 121 222 53 q 241 174 222 154 q 294 193 260 193 m 348 636 q 396 618 379 636 q 413 568 413 600 q 394 516 413 535 q 343 496 375 496 q 276 564 276 496 q 295 617 276 597 q 348 636 315 636 z "},"ø":{"ha":756,"x_min":54,"x_max":708,"o":"m 619 644 q 708 401 708 571 q 664 188 708 282 q 535 42 619 94 q 336 -10 451 -10 q 222 7 272 -10 l 131 -139 l 57 -94 l 54 -81 l 139 56 q 56 297 56 132 q 99 510 56 418 q 227 653 143 601 q 429 704 311 704 q 535 690 492 704 l 611 811 l 683 767 l 688 753 l 619 644 m 188 304 q 210 168 188 214 l 474 592 q 411 599 443 599 q 188 304 188 599 m 350 93 q 575 389 575 93 q 549 531 575 482 l 281 103 q 350 93 308 93 z "},"ù":{"ha":743,"x_min":81,"x_max":697,"o":"m 636 240 q 544 55 622 119 q 332 -10 467 -10 q 147 42 213 -10 q 81 190 81 94 q 85 240 81 214 l 100 346 l 140 696 l 268 696 l 206 260 q 203 224 203 235 q 344 97 203 97 q 521 260 503 97 l 569 696 l 697 696 l 650 342 l 636 240 m 342 1036 q 578 831 431 950 l 542 778 l 528 776 q 281 949 417 850 l 278 963 l 328 1035 l 342 1036 z "},"ú":{"ha":743,"x_min":81,"x_max":697,"o":"m 636 240 q 544 55 622 119 q 332 -10 467 -10 q 147 42 213 -10 q 81 190 81 94 q 85 240 81 214 l 100 346 l 140 696 l 268 696 l 206 260 q 203 224 203 235 q 344 97 203 97 q 521 260 503 97 l 569 696 l 697 696 l 650 342 l 636 240 m 594 963 l 590 949 q 343 776 454 850 l 329 778 l 294 831 q 531 1036 446 957 l 543 1035 l 594 963 z "},"û":{"ha":743,"x_min":81,"x_max":697,"o":"m 636 240 q 544 55 622 119 q 332 -10 467 -10 q 147 42 213 -10 q 81 190 81 94 q 85 240 81 214 l 100 346 l 140 696 l 268 696 l 206 260 q 203 224 203 235 q 344 97 203 97 q 521 260 503 97 l 569 696 l 697 696 l 650 342 l 636 240 m 249 836 q 447 1026 322 901 l 482 1026 q 636 836 557 924 l 594 783 l 581 783 q 454 922 500 864 q 292 783 403 874 l 276 783 l 249 836 z "},"ü":{"ha":743,"x_min":81,"x_max":697,"o":"m 636 240 q 544 55 622 119 q 332 -10 467 -10 q 147 42 213 -10 q 81 190 81 94 q 85 240 81 214 l 100 346 l 140 696 l 268 696 l 206 260 q 203 224 203 235 q 344 97 203 97 q 521 260 503 97 l 569 696 l 697 696 l 650 342 l 636 240 m 332 975 q 380 956 363 975 q 397 907 397 938 q 378 852 397 872 q 326 832 358 832 q 258 901 258 832 q 278 955 258 935 q 332 975 297 975 m 560 974 q 608 956 590 974 q 625 906 625 938 q 606 851 625 871 q 556 831 588 831 q 488 900 488 831 q 507 953 488 933 q 560 974 526 974 z "},"ý":{"ha":646,"x_min":75,"x_max":668,"o":"m 357 196 l 338 0 l 211 0 l 240 196 l 244 240 l 75 696 l 210 696 l 219 651 l 321 371 l 329 371 l 511 646 l 536 696 l 668 696 l 364 235 l 357 196 m 546 963 l 542 949 q 294 776 406 850 l 281 778 l 246 831 q 482 1036 397 957 l 494 1035 l 546 963 z "},"þ":{"ha":651,"x_min":75,"x_max":610,"o":"m 397 586 q 553 535 496 586 q 610 393 610 483 q 571 256 610 318 q 464 158 532 194 q 311 121 396 121 l 215 121 l 203 0 l 75 0 l 106 208 l 161 696 l 292 696 l 276 585 l 397 586 m 351 217 q 444 275 411 231 q 476 381 476 319 q 448 460 476 435 q 360 489 419 486 l 263 486 l 225 221 l 351 217 z "},"ÿ":{"ha":646,"x_min":75,"x_max":668,"o":"m 357 196 l 338 0 l 211 0 l 240 196 l 244 240 l 75 696 l 210 696 l 219 651 l 321 371 l 329 371 l 511 646 l 536 696 l 668 696 l 364 235 l 357 196 m 282 975 q 330 956 313 975 q 347 907 347 938 q 328 852 347 872 q 276 832 308 832 q 208 901 208 832 q 228 955 208 935 q 282 975 247 975 m 510 974 q 558 956 540 974 q 575 906 575 938 q 556 851 575 871 q 506 831 538 831 q 438 900 438 831 q 457 953 438 933 q 510 974 476 974 z "},"Ā":{"ha":779,"x_min":-22,"x_max":715,"o":"m 578 0 l 568 99 l 546 226 l 367 231 l 204 228 l 149 104 l 113 0 l -22 0 l 392 892 l 551 892 l 715 0 l 578 0 m 457 756 l 446 756 l 257 340 l 390 338 l 528 339 l 457 756 m 688 1057 l 296 1057 l 286 1068 l 294 1144 l 686 1144 l 694 1135 l 688 1057 z "},"ā":{"ha":696,"x_min":-10,"x_max":625,"o":"m 486 0 l 482 83 l 467 164 l 317 165 l 183 164 l 147 90 l 115 0 l -10 0 l 328 696 l 476 696 l 615 0 l 486 0 m 388 574 l 379 574 l 232 267 l 338 265 l 447 267 l 388 574 m 618 861 l 226 861 l 217 872 l 225 949 l 617 949 l 625 939 l 618 861 z "},"Ă":{"ha":779,"x_min":-22,"x_max":715,"o":"m 578 0 l 568 99 l 546 226 l 367 231 l 204 228 l 149 104 l 113 0 l -22 0 l 392 892 l 551 892 l 715 0 l 578 0 m 457 756 l 446 756 l 257 340 l 390 338 l 528 339 l 457 756 m 678 1136 q 486 1004 617 1004 q 365 1038 413 1004 q 304 1136 318 1072 l 344 1182 l 365 1182 q 488 1100 388 1100 q 629 1182 583 1100 l 649 1182 l 678 1136 z "},"ă":{"ha":696,"x_min":-10,"x_max":615,"o":"m 486 0 l 482 83 l 467 164 l 317 165 l 183 164 l 147 90 l 115 0 l -10 0 l 328 696 l 476 696 l 615 0 l 486 0 m 388 574 l 379 574 l 232 267 l 338 265 l 447 267 l 388 574 m 606 953 q 529 833 579 876 q 407 789 479 789 q 233 953 250 789 l 272 1001 l 293 1001 q 411 885 308 885 q 557 1001 514 885 l 576 1001 l 606 953 z "},"Ą":{"ha":779,"x_min":-22,"x_max":715,"o":"m 704 -204 q 582 -272 643 -272 q 512 -246 539 -272 q 485 -175 485 -219 q 504 -106 485 -143 q 578 0 524 -68 l 569 99 l 547 226 l 367 231 l 204 228 l 149 104 l 113 0 l -22 0 l 392 892 l 551 892 l 715 0 l 671 0 q 594 -91 614 -58 q 574 -149 574 -124 q 607 -186 574 -186 q 693 -132 646 -186 l 700 -132 l 704 -204 m 457 756 l 446 756 l 257 340 l 390 338 l 528 339 l 457 756 z "},"ą":{"ha":696,"x_min":-8,"x_max":617,"o":"m 610 -204 q 486 -272 549 -272 q 415 -247 443 -272 q 388 -178 388 -221 q 408 -106 388 -144 q 486 0 429 -68 l 488 0 l 483 83 l 468 164 l 317 165 l 185 164 l 149 90 l 117 0 l -8 0 l 329 696 l 478 696 l 617 0 l 579 0 q 497 -92 518 -60 q 476 -149 476 -124 q 511 -186 476 -186 q 599 -132 551 -186 l 606 -132 l 610 -204 m 389 574 l 381 574 l 233 267 l 338 265 l 449 267 l 389 574 z "},"Ć":{"ha":699,"x_min":60,"x_max":736,"o":"m 508 900 q 736 838 643 900 l 694 717 l 682 713 q 492 786 601 786 q 279 680 354 786 q 204 378 204 574 q 257 175 204 244 q 408 106 310 106 q 632 183 526 106 l 644 175 l 617 50 q 388 -10 506 -10 q 145 86 231 -10 q 60 357 60 182 q 113 647 60 525 q 267 835 165 769 q 508 900 368 900 m 669 1128 l 664 1114 q 385 999 556 1065 l 369 1004 l 346 1063 q 621 1211 526 1154 l 635 1207 l 669 1128 z "},"ć":{"ha":618,"x_min":56,"x_max":622,"o":"m 433 703 q 622 658 549 703 l 586 543 l 571 539 q 411 599 508 599 q 247 523 304 599 q 190 301 190 447 q 232 149 190 201 q 353 97 274 97 q 536 157 449 97 l 549 150 l 524 36 q 340 -8 435 -8 q 129 69 203 -8 q 56 286 56 146 q 156 593 56 483 q 433 703 256 703 m 567 963 l 563 949 q 315 776 426 850 l 301 778 l 267 831 q 503 1036 418 957 l 515 1035 l 567 963 z "},"Ĉ":{"ha":699,"x_min":60,"x_max":736,"o":"m 508 900 q 736 838 643 900 l 694 717 l 682 713 q 492 786 601 786 q 279 680 354 786 q 204 378 204 574 q 257 175 204 244 q 408 106 310 106 q 632 183 526 106 l 644 175 l 617 50 q 388 -10 506 -10 q 145 86 231 -10 q 60 357 60 182 q 113 647 60 525 q 267 835 165 769 q 508 900 368 900 m 310 1071 q 492 1203 400 1128 l 525 1203 q 683 1071 593 1139 l 649 1014 l 635 1014 q 503 1106 574 1054 l 397 1044 l 344 1014 l 329 1014 l 310 1071 z "},"ĉ":{"ha":618,"x_min":56,"x_max":622,"o":"m 433 703 q 622 658 549 703 l 586 543 l 571 539 q 411 599 508 599 q 247 523 304 599 q 190 301 190 447 q 232 149 190 201 q 353 97 274 97 q 536 157 449 97 l 549 150 l 524 36 q 340 -8 435 -8 q 129 69 203 -8 q 56 286 56 146 q 156 593 56 483 q 433 703 256 703 m 221 836 q 419 1026 294 901 l 454 1026 q 608 836 529 924 l 567 783 l 553 783 q 426 922 472 864 q 264 783 375 874 l 249 783 l 221 836 z "},"Ċ":{"ha":699,"x_min":60,"x_max":736,"o":"m 508 900 q 736 838 643 900 l 694 717 l 682 713 q 492 786 601 786 q 279 680 354 786 q 204 378 204 574 q 257 175 204 244 q 408 106 310 106 q 632 183 526 106 l 644 175 l 617 50 q 388 -10 506 -10 q 145 86 231 -10 q 60 357 60 182 q 113 647 60 525 q 267 835 165 769 q 508 900 368 900 m 499 1188 q 552 1168 533 1188 q 571 1115 571 1149 q 550 1058 571 1079 q 494 1036 529 1036 q 422 1110 422 1036 q 443 1167 422 1146 q 499 1188 464 1188 z "},"ċ":{"ha":618,"x_min":56,"x_max":622,"o":"m 433 703 q 622 658 549 703 l 586 543 l 571 539 q 411 599 508 599 q 247 523 304 599 q 190 301 190 447 q 232 149 190 201 q 353 97 274 97 q 536 157 449 97 l 549 150 l 524 36 q 340 -8 435 -8 q 129 69 203 -8 q 56 286 56 146 q 156 593 56 483 q 433 703 256 703 m 418 992 q 472 972 453 992 q 490 919 490 953 q 469 862 490 883 q 414 840 449 840 q 342 914 342 840 q 363 971 342 950 q 418 992 383 992 z "},"Č":{"ha":699,"x_min":60,"x_max":736,"o":"m 508 900 q 736 838 643 900 l 694 717 l 682 713 q 492 786 601 786 q 279 680 354 786 q 204 378 204 574 q 257 175 204 244 q 408 106 310 106 q 632 183 526 106 l 644 175 l 617 50 q 388 -10 506 -10 q 145 86 231 -10 q 60 357 60 182 q 113 647 60 525 q 267 835 165 769 q 508 900 368 900 m 681 1135 q 497 1003 582 1074 l 464 1003 q 307 1135 390 1072 l 340 1192 l 354 1192 l 488 1101 q 646 1192 560 1144 l 660 1192 l 681 1135 z "},"č":{"ha":618,"x_min":56,"x_max":622,"o":"m 433 703 q 622 658 549 703 l 586 543 l 571 539 q 411 599 508 599 q 247 523 304 599 q 190 301 190 447 q 232 149 190 201 q 353 97 274 97 q 536 157 449 97 l 549 150 l 524 36 q 340 -8 435 -8 q 129 69 203 -8 q 56 286 56 146 q 156 593 56 483 q 433 703 256 703 m 608 971 q 413 781 549 917 l 378 781 q 219 971 311 875 l 261 1024 l 275 1024 q 403 885 353 947 q 565 1024 444 926 l 581 1024 l 608 971 z "},"Ď":{"ha":871,"x_min":79,"x_max":847,"o":"m 504 897 q 758 806 668 897 q 847 549 847 715 q 792 251 847 376 q 631 59 738 126 q 374 -8 525 -8 q 81 0 236 -8 l 79 0 l 121 268 l 192 892 l 193 892 l 504 897 m 401 101 q 624 209 546 101 q 703 525 703 317 q 489 785 703 785 q 314 779 414 785 l 243 279 l 228 111 q 401 101 335 101 m 672 1135 q 489 1003 574 1074 l 456 1003 q 299 1135 382 1072 l 332 1192 l 346 1192 l 479 1101 q 638 1192 551 1144 l 651 1192 l 672 1135 z "},"ď":{"ha":768,"x_min":75,"x_max":721,"o":"m 432 700 q 644 628 568 700 q 721 425 721 556 q 618 108 721 222 q 325 -7 515 -7 q 75 0 190 -7 l 106 208 l 161 696 l 432 700 m 351 94 q 526 172 464 94 q 588 401 588 249 q 414 594 588 594 q 274 589 360 594 l 224 219 l 211 103 q 351 94 300 94 m 625 971 q 429 781 565 917 l 394 781 q 236 971 328 875 l 278 1024 l 292 1024 q 419 885 369 947 q 582 1024 461 926 l 597 1024 l 625 971 z "},"Đ":{"ha":871,"x_min":79,"x_max":847,"o":"m 504 897 q 758 806 668 897 q 847 549 847 715 q 792 251 847 376 q 631 59 738 126 q 374 -8 525 -8 q 81 0 236 -8 l 79 0 l 121 268 l 192 892 l 193 892 l 504 897 m 401 101 q 624 209 546 101 q 703 525 703 317 q 489 785 703 785 q 314 779 414 785 l 243 279 l 228 111 q 401 101 335 101 m 683 1057 l 292 1057 l 282 1068 l 290 1144 l 682 1144 l 690 1135 l 683 1057 z "},"đ":{"ha":768,"x_min":75,"x_max":721,"o":"m 432 700 q 644 628 568 700 q 721 425 721 556 q 618 108 721 222 q 325 -7 515 -7 q 75 0 190 -7 l 106 208 l 161 696 l 432 700 m 351 94 q 526 172 464 94 q 588 401 588 249 q 414 594 588 594 q 274 589 360 594 l 224 219 l 211 103 q 351 94 300 94 m 628 861 l 236 861 l 226 872 l 235 949 l 626 949 l 635 939 l 628 861 z "},"Ē":{"ha":660,"x_min":79,"x_max":701,"o":"m 276 511 l 432 508 l 572 513 l 579 503 l 557 397 l 407 401 l 261 399 l 244 279 l 228 113 l 393 110 l 597 117 l 601 106 l 581 0 l 79 0 l 121 268 l 192 892 l 694 892 l 701 879 l 678 774 l 476 779 l 314 778 l 276 511 m 657 1057 l 265 1057 l 256 1068 l 264 1144 l 656 1144 l 664 1135 l 657 1057 z "},"ē":{"ha":596,"x_min":75,"x_max":603,"o":"m 249 406 l 379 404 l 494 408 l 501 399 l 481 300 l 356 304 l 235 303 l 224 219 l 211 103 l 336 101 l 517 107 l 525 97 l 503 0 l 75 0 l 106 208 l 161 696 l 594 696 l 600 685 l 578 588 l 410 594 l 275 593 l 249 406 m 596 861 l 204 861 l 194 872 l 203 949 l 594 949 l 603 939 l 596 861 z "},"Ĕ":{"ha":660,"x_min":79,"x_max":701,"o":"m 276 511 l 432 508 l 572 513 l 579 503 l 557 397 l 407 401 l 261 399 l 244 279 l 228 113 l 393 110 l 597 117 l 601 106 l 581 0 l 79 0 l 121 268 l 192 892 l 694 892 l 701 879 l 678 774 l 476 779 l 314 778 l 276 511 m 647 1136 q 456 1004 586 1004 q 335 1038 382 1004 q 274 1136 288 1072 l 314 1182 l 335 1182 q 457 1100 357 1100 q 599 1182 553 1100 l 618 1182 l 647 1136 z "},"ĕ":{"ha":596,"x_min":75,"x_max":600,"o":"m 249 406 l 379 404 l 494 408 l 501 399 l 481 300 l 356 304 l 235 303 l 224 219 l 211 103 l 336 101 l 517 107 l 525 97 l 503 0 l 75 0 l 106 208 l 161 696 l 594 696 l 600 685 l 578 588 l 410 594 l 275 593 l 249 406 m 583 953 q 507 833 557 876 q 385 789 457 789 q 211 953 228 789 l 250 1001 l 271 1001 q 389 885 286 885 q 535 1001 492 885 l 554 1001 l 583 953 z "},"Ė":{"ha":660,"x_min":79,"x_max":701,"o":"m 276 511 l 432 508 l 572 513 l 579 503 l 557 397 l 407 401 l 261 399 l 244 279 l 228 113 l 393 110 l 597 117 l 601 106 l 581 0 l 79 0 l 121 268 l 192 892 l 694 892 l 701 879 l 678 774 l 476 779 l 314 778 l 276 511 m 464 1188 q 517 1168 499 1188 q 536 1115 536 1149 q 515 1058 536 1079 q 460 1036 494 1036 q 388 1110 388 1036 q 408 1167 388 1146 q 464 1188 429 1188 z "},"ė":{"ha":596,"x_min":75,"x_max":600,"o":"m 249 406 l 379 404 l 494 408 l 501 399 l 481 300 l 356 304 l 235 303 l 224 219 l 211 103 l 336 101 l 517 107 l 525 97 l 503 0 l 75 0 l 106 208 l 161 696 l 594 696 l 600 685 l 578 588 l 410 594 l 275 593 l 249 406 m 403 992 q 456 972 438 992 q 475 919 475 953 q 454 862 475 883 q 399 840 433 840 q 326 914 326 840 q 347 971 326 950 q 403 992 368 992 z "},"Ę":{"ha":660,"x_min":79,"x_max":701,"o":"m 276 511 l 433 508 l 572 513 l 581 503 l 557 397 l 407 401 l 261 399 l 244 279 l 228 113 l 394 110 l 597 117 l 603 106 l 581 0 l 492 0 l 449 -67 q 425 -133 425 -103 q 479 -187 425 -187 q 572 -139 524 -187 l 581 -139 l 596 -203 q 458 -274 522 -274 q 374 -241 406 -274 q 342 -158 342 -208 q 379 -51 342 -104 l 414 0 l 79 0 l 121 268 l 192 892 l 694 892 l 701 879 l 678 774 l 476 779 l 314 778 l 276 511 z "},"ę":{"ha":596,"x_min":75,"x_max":599,"o":"m 249 406 l 378 404 l 494 408 l 500 399 l 481 300 l 356 304 l 235 303 l 224 219 l 211 103 l 338 101 l 518 107 l 525 97 l 504 0 l 399 0 l 356 -67 q 332 -133 332 -103 q 386 -187 332 -187 q 479 -139 431 -187 l 488 -139 l 503 -203 q 365 -274 429 -274 q 281 -241 313 -274 q 249 -158 249 -208 q 286 -51 249 -104 l 321 0 l 75 0 l 106 208 l 161 696 l 593 696 l 599 685 l 578 588 l 410 594 l 275 593 l 249 406 z "},"Ě":{"ha":660,"x_min":79,"x_max":701,"o":"m 276 511 l 432 508 l 572 513 l 579 503 l 557 397 l 407 401 l 261 399 l 244 279 l 228 113 l 393 110 l 597 117 l 601 106 l 581 0 l 79 0 l 121 268 l 192 892 l 694 892 l 701 879 l 678 774 l 476 779 l 314 778 l 276 511 m 646 1135 q 463 1003 547 1074 l 429 1003 q 272 1135 356 1072 l 306 1192 l 319 1192 l 453 1101 q 611 1192 525 1144 l 625 1192 l 646 1135 z "},"ě":{"ha":596,"x_min":75,"x_max":600,"o":"m 249 406 l 379 404 l 494 408 l 501 399 l 481 300 l 356 304 l 235 303 l 224 219 l 211 103 l 336 101 l 517 107 l 525 97 l 503 0 l 75 0 l 106 208 l 161 696 l 594 696 l 600 685 l 578 588 l 410 594 l 275 593 l 249 406 m 593 971 q 397 781 533 917 l 363 781 q 204 971 296 875 l 246 1024 l 260 1024 q 388 885 338 947 q 550 1024 429 926 l 565 1024 l 593 971 z "},"Ĝ":{"ha":803,"x_min":57,"x_max":792,"o":"m 538 900 q 792 840 676 900 l 746 713 l 732 710 q 621 769 671 751 q 511 786 571 786 q 197 356 197 786 q 252 164 197 225 q 422 103 307 103 q 571 132 479 103 l 586 225 l 600 356 l 728 365 l 711 244 l 690 43 q 411 -11 536 -11 q 147 83 238 -11 q 57 346 57 176 q 182 756 57 611 q 538 900 307 900 m 332 1071 q 514 1203 422 1128 l 547 1203 q 706 1071 615 1139 l 671 1014 l 657 1014 q 525 1106 596 1054 l 419 1044 l 367 1014 l 351 1014 l 332 1071 z "},"ĝ":{"ha":708,"x_min":56,"x_max":674,"o":"m 457 703 q 674 658 561 703 l 618 538 l 607 538 q 516 584 554 571 q 431 597 478 597 q 188 297 188 597 q 226 142 188 190 q 365 94 265 94 q 489 121 418 94 l 496 181 l 507 283 l 624 292 l 611 201 l 590 33 q 354 -10 447 -10 q 56 293 56 -10 q 103 510 56 417 q 241 653 150 603 q 457 703 332 703 m 243 836 q 442 1026 317 901 l 476 1026 q 631 836 551 924 l 589 783 l 575 783 q 449 922 494 864 q 286 783 397 874 l 271 783 l 243 836 z "},"Ğ":{"ha":803,"x_min":57,"x_max":792,"o":"m 538 900 q 792 840 676 900 l 746 713 l 732 710 q 621 769 671 751 q 511 786 571 786 q 197 356 197 786 q 252 164 197 225 q 422 103 307 103 q 571 132 479 103 l 586 225 l 600 356 l 728 365 l 711 244 l 690 43 q 411 -11 536 -11 q 147 83 238 -11 q 57 346 57 176 q 182 756 57 611 q 538 900 307 900 m 704 1136 q 513 1004 643 1004 q 392 1038 439 1004 q 331 1136 344 1072 l 371 1182 l 392 1182 q 514 1100 414 1100 q 656 1182 610 1100 l 675 1182 l 704 1136 z "},"ğ":{"ha":708,"x_min":56,"x_max":674,"o":"m 457 703 q 674 658 561 703 l 618 538 l 607 538 q 516 584 554 571 q 431 597 478 597 q 188 297 188 597 q 226 142 188 190 q 365 94 265 94 q 489 121 418 94 l 496 181 l 507 283 l 624 292 l 611 201 l 590 33 q 354 -10 447 -10 q 56 293 56 -10 q 103 510 56 417 q 241 653 150 603 q 457 703 332 703 m 621 953 q 544 833 594 876 q 422 789 494 789 q 249 953 265 789 l 288 1001 l 308 1001 q 426 885 324 885 q 572 1001 529 885 l 592 1001 l 621 953 z "},"Ġ":{"ha":803,"x_min":57,"x_max":792,"o":"m 538 900 q 792 840 676 900 l 746 713 l 732 710 q 621 769 671 751 q 511 786 571 786 q 197 356 197 786 q 252 164 197 225 q 422 103 307 103 q 571 132 479 103 l 586 225 l 600 356 l 728 365 l 711 244 l 690 43 q 411 -11 536 -11 q 147 83 238 -11 q 57 346 57 176 q 182 756 57 611 q 538 900 307 900 m 521 1188 q 574 1168 556 1188 q 593 1115 593 1149 q 572 1058 593 1079 q 517 1036 551 1036 q 444 1110 444 1036 q 465 1167 444 1146 q 521 1188 486 1188 z "},"ġ":{"ha":708,"x_min":56,"x_max":674,"o":"m 457 703 q 674 658 561 703 l 618 538 l 607 538 q 516 584 554 571 q 431 597 478 597 q 188 297 188 597 q 226 142 188 190 q 365 94 265 94 q 489 121 418 94 l 496 181 l 507 283 l 624 292 l 611 201 l 590 33 q 354 -10 447 -10 q 56 293 56 -10 q 103 510 56 417 q 241 653 150 603 q 457 703 332 703 m 440 992 q 494 972 475 992 q 513 919 513 953 q 492 862 513 883 q 436 840 471 840 q 364 914 364 840 q 385 971 364 950 q 440 992 406 992 z "},"Ģ":{"ha":803,"x_min":57,"x_max":792,"o":"m 538 900 q 792 840 676 900 l 746 713 l 732 710 q 621 769 671 751 q 511 786 571 786 q 197 356 197 786 q 252 164 197 225 q 422 103 307 103 q 571 132 479 103 l 586 225 l 600 356 l 728 365 l 711 244 l 690 43 q 411 -11 536 -11 q 147 83 238 -11 q 57 346 57 176 q 182 756 57 611 q 538 900 307 900 m 436 -71 q 490 -164 490 -110 q 360 -351 490 -257 l 319 -314 l 318 -304 q 389 -189 389 -246 q 349 -122 389 -151 l 349 -111 q 436 -71 394 -83 z "},"ģ":{"ha":708,"x_min":56,"x_max":674,"o":"m 457 703 q 674 658 561 703 l 618 538 l 607 538 q 516 584 554 571 q 431 597 478 597 q 188 297 188 597 q 226 142 188 190 q 365 94 265 94 q 489 121 418 94 l 496 181 l 507 283 l 624 292 l 611 201 l 590 33 q 354 -10 447 -10 q 56 293 56 -10 q 103 510 56 417 q 241 653 150 603 q 457 703 332 703 m 385 -71 q 439 -164 439 -110 q 308 -351 439 -257 l 268 -314 l 267 -304 q 338 -189 338 -246 q 297 -122 338 -151 l 297 -111 q 385 -71 343 -83 z "},"Ĥ":{"ha":919,"x_min":79,"x_max":874,"o":"m 789 279 l 761 0 l 625 0 l 665 268 l 679 392 l 458 396 l 258 392 l 243 279 l 217 0 l 79 0 l 119 268 l 190 892 l 328 892 l 275 508 l 483 504 l 692 508 l 735 892 l 874 892 l 789 279 m 372 1071 q 554 1203 463 1128 l 588 1203 q 746 1071 656 1139 l 711 1014 l 697 1014 q 565 1106 636 1054 l 460 1044 l 407 1014 l 392 1014 l 372 1071 z "},"ĥ":{"ha":808,"x_min":75,"x_max":743,"o":"m 676 219 l 654 0 l 529 0 l 560 208 l 569 294 l 233 293 l 224 219 l 201 0 l 75 0 l 107 208 l 161 696 l 290 696 l 250 404 l 418 403 l 582 404 l 615 696 l 743 696 l 676 219 m 281 836 q 479 1026 354 901 l 514 1026 q 668 836 589 924 l 626 783 l 613 783 q 486 922 532 864 q 324 783 435 874 l 308 783 l 281 836 z "},"Ħ":{"ha":960,"x_min":96,"x_max":961,"o":"m 860 661 l 807 279 l 778 0 l 642 0 l 683 268 l 697 392 l 476 396 l 276 392 l 261 279 l 233 0 l 96 0 l 138 268 l 182 661 l 101 661 l 96 669 l 101 751 l 192 751 l 207 892 l 344 892 l 325 751 l 738 751 l 753 892 l 892 892 l 872 751 l 953 751 l 961 743 l 954 661 l 860 661 m 313 661 l 292 508 l 500 504 l 710 508 l 728 661 l 313 661 z "},"ħ":{"ha":808,"x_min":60,"x_max":803,"o":"m 717 506 l 678 219 l 656 0 l 529 0 l 561 208 l 571 294 l 232 293 l 222 219 l 201 0 l 75 0 l 107 208 l 140 506 l 65 506 l 60 515 l 76 583 l 149 583 l 161 696 l 289 696 l 274 583 l 603 583 l 615 696 l 743 696 l 728 583 l 797 583 l 803 576 l 788 506 l 717 506 m 263 506 l 249 404 l 418 403 l 583 404 l 594 506 l 263 506 z "},"Ĩ":{"ha":375,"x_min":79,"x_max":485,"o":"m 217 0 l 79 0 l 119 268 l 190 892 l 328 892 l 243 279 l 217 0 m 485 1136 l 406 1031 l 392 1026 q 288 1056 357 1032 q 210 1076 225 1076 q 187 1067 197 1076 q 156 1032 176 1057 l 138 1010 l 125 1010 l 85 1053 l 85 1064 l 165 1168 l 178 1174 q 281 1146 208 1169 q 360 1125 346 1125 q 386 1137 374 1125 q 413 1166 399 1149 q 432 1190 426 1183 l 444 1190 l 485 1149 l 485 1136 z "},"ĩ":{"ha":363,"x_min":50,"x_max":450,"o":"m 201 0 l 75 0 l 107 208 l 161 696 l 290 696 l 224 219 l 201 0 m 450 940 l 371 835 l 357 831 q 253 860 322 836 q 175 881 190 881 q 152 871 163 881 q 121 836 142 861 l 103 814 l 90 814 l 50 857 l 50 868 l 131 972 l 143 978 q 246 950 174 974 q 325 929 311 929 q 351 941 339 929 q 378 970 364 953 q 397 994 392 988 l 410 994 l 450 953 l 450 940 z "},"Ī":{"ha":375,"x_min":79,"x_max":444,"o":"m 217 0 l 79 0 l 119 268 l 190 892 l 328 892 l 243 279 l 217 0 m 438 1057 l 132 1057 l 124 1068 l 131 1144 l 435 1144 l 444 1135 l 438 1057 z "},"ī":{"ha":363,"x_min":75,"x_max":410,"o":"m 201 0 l 75 0 l 107 208 l 161 696 l 290 696 l 224 219 l 201 0 m 403 861 l 97 861 l 89 872 l 96 949 l 400 949 l 410 939 l 403 861 z "},"Ĭ":{"ha":375,"x_min":79,"x_max":471,"o":"m 217 0 l 79 0 l 119 268 l 190 892 l 328 892 l 243 279 l 217 0 m 471 1136 q 279 1004 410 1004 q 158 1038 206 1004 q 97 1136 111 1072 l 138 1182 l 158 1182 q 281 1100 181 1100 q 422 1182 376 1100 l 442 1182 l 471 1136 z "},"ĭ":{"ha":363,"x_min":61,"x_max":433,"o":"m 201 0 l 75 0 l 107 208 l 161 696 l 290 696 l 224 219 l 201 0 m 433 953 q 357 833 407 876 q 235 789 307 789 q 61 953 78 789 l 100 1001 l 121 1001 q 239 885 136 885 q 385 1001 342 885 l 404 1001 l 433 953 z "},"Į":{"ha":376,"x_min":-17,"x_max":328,"o":"m 244 279 l 217 0 l 160 0 q 86 -94 106 -64 q 67 -147 67 -125 q 107 -187 67 -187 q 188 -142 150 -187 l 194 -142 l 214 -207 q 88 -274 147 -274 q 13 -244 42 -274 q -17 -168 -17 -215 q 3 -99 -17 -136 q 79 4 24 -62 l 121 268 l 190 892 l 328 892 l 244 279 z "},"į":{"ha":363,"x_min":-18,"x_max":289,"o":"m 158 0 q 85 -94 104 -64 q 65 -147 65 -125 q 106 -187 65 -187 q 186 -142 149 -187 l 193 -142 l 213 -207 q 86 -274 146 -274 q 11 -244 40 -274 q -18 -168 -18 -215 q 1 -101 -18 -136 q 75 0 21 -65 l 107 208 l 161 696 l 289 696 l 222 219 l 201 0 l 158 0 z "},"İ":{"ha":375,"x_min":79,"x_max":360,"o":"m 217 0 l 79 0 l 119 268 l 190 892 l 328 892 l 243 279 l 217 0 m 288 1188 q 341 1168 322 1188 q 360 1115 360 1149 q 339 1058 360 1079 q 283 1036 318 1036 q 211 1110 211 1036 q 232 1167 211 1146 q 288 1188 253 1188 z "},"ı":{"ha":363,"x_min":75,"x_max":290,"o":"m 201 0 l 75 0 l 107 208 l 161 696 l 290 696 l 224 219 l 201 0 z "},"Ĳ":{"ha":807,"x_min":79,"x_max":753,"o":"m 217 0 l 79 0 l 119 268 l 190 892 l 328 892 l 243 279 l 217 0 m 669 294 l 657 165 q 579 -12 643 57 q 372 -143 515 -82 l 333 -68 l 335 -53 q 477 45 433 -3 q 531 167 521 93 l 546 282 l 601 785 l 444 782 l 433 793 l 453 892 l 753 892 l 669 294 z "},"ĳ":{"ha":776,"x_min":75,"x_max":689,"o":"m 201 0 l 75 0 l 107 208 l 161 696 l 290 696 l 224 219 l 201 0 m 626 229 l 615 131 q 556 -12 604 43 q 397 -114 507 -67 l 357 -44 l 358 -32 q 459 40 428 3 q 497 133 490 78 l 508 215 l 550 599 l 422 597 l 415 607 l 435 696 l 689 696 l 626 229 z "},"Ĵ":{"ha":432,"x_min":-42,"x_max":465,"o":"m 294 294 l 282 165 q 204 -12 268 57 q -3 -143 140 -82 l -42 -68 l -40 -53 q 102 45 58 -3 q 156 167 146 93 l 171 282 l 226 785 l 69 782 l 58 793 l 78 892 l 378 892 l 294 294 m 92 1071 q 274 1203 182 1128 l 307 1203 q 465 1071 375 1139 l 431 1014 l 417 1014 q 285 1106 356 1054 l 179 1044 l 126 1014 l 111 1014 l 92 1071 z "},"ĵ":{"ha":414,"x_min":-6,"x_max":418,"o":"m 264 229 l 253 131 q 193 -12 242 43 q 35 -114 144 -67 l -6 -44 l -4 -32 q 97 40 65 3 q 135 133 128 78 l 146 215 l 188 599 l 60 597 l 53 607 l 72 696 l 326 696 l 264 229 m 31 836 q 229 1026 104 901 l 264 1026 q 418 836 339 924 l 376 783 l 363 783 q 236 922 282 864 q 74 783 185 874 l 58 783 l 31 836 z "},"Ķ":{"ha":747,"x_min":78,"x_max":801,"o":"m 215 0 l 78 0 l 119 268 l 190 892 l 328 892 l 243 279 l 215 0 m 421 468 q 718 29 544 258 l 714 13 q 579 -12 643 -4 l 565 -6 q 278 467 396 251 l 279 475 l 589 811 l 651 892 l 801 892 l 421 468 m 397 -71 q 451 -164 451 -110 q 321 -351 451 -257 l 281 -314 l 279 -304 q 350 -189 350 -246 q 310 -122 350 -151 l 310 -111 q 397 -71 356 -83 z "},"ķ":{"ha":674,"x_min":75,"x_max":692,"o":"m 201 0 l 75 0 l 106 208 l 161 696 l 289 696 l 224 219 l 201 0 m 382 368 q 626 28 482 210 l 622 10 q 496 -12 554 -7 l 478 -4 q 246 361 335 206 l 246 371 l 494 631 l 549 696 l 692 696 l 382 368 m 328 -71 q 382 -164 382 -110 q 251 -351 382 -257 l 211 -314 l 210 -304 q 281 -189 281 -246 q 240 -122 281 -151 l 240 -111 q 328 -71 286 -83 z "},"ĸ":{"ha":674,"x_min":75,"x_max":692,"o":"m 201 0 l 75 0 l 106 208 l 161 696 l 289 696 l 224 219 l 201 0 m 382 368 q 626 28 482 210 l 622 10 q 496 -12 554 -7 l 478 -4 q 246 361 335 206 l 246 371 l 494 631 l 549 696 l 692 696 l 382 368 z "},"Ĺ":{"ha":564,"x_min":75,"x_max":535,"o":"m 511 0 l 75 0 l 117 268 l 186 892 l 325 892 l 240 279 l 224 114 l 529 114 l 535 103 l 511 0 m 457 1128 l 451 1114 q 172 999 343 1065 l 157 1004 l 133 1063 q 408 1211 314 1154 l 422 1207 l 457 1128 z "},"ĺ":{"ha":515,"x_min":72,"x_max":465,"o":"m 443 0 l 72 0 l 104 208 l 158 696 l 286 696 l 219 219 l 208 106 l 457 106 l 465 96 l 443 0 m 401 963 l 397 949 q 150 776 261 850 l 136 778 l 101 831 q 338 1036 253 957 l 350 1035 l 401 963 z "},"Ļ":{"ha":564,"x_min":75,"x_max":535,"o":"m 511 0 l 75 0 l 117 268 l 186 892 l 325 892 l 240 279 l 224 114 l 529 114 l 535 103 l 511 0 m 288 -71 q 342 -164 342 -110 q 211 -351 342 -257 l 171 -314 l 169 -304 q 240 -189 240 -246 q 200 -122 240 -151 l 200 -111 q 288 -71 246 -83 z "},"ļ":{"ha":515,"x_min":72,"x_max":465,"o":"m 443 0 l 72 0 l 104 208 l 158 696 l 286 696 l 219 219 l 208 106 l 457 106 l 465 96 l 443 0 m 272 -71 q 326 -164 326 -110 q 196 -351 326 -257 l 156 -314 l 154 -304 q 225 -189 225 -246 q 185 -122 225 -151 l 185 -111 q 272 -71 231 -83 z "},"Ľ":{"ha":578,"x_min":75,"x_max":607,"o":"m 535 103 l 513 0 l 75 0 l 117 268 l 188 892 l 325 892 l 240 279 l 224 114 l 529 114 l 535 103 m 540 550 l 476 540 l 467 550 l 501 807 l 599 813 l 607 803 l 540 550 z "},"ľ":{"ha":535,"x_min":72,"x_max":536,"o":"m 465 96 l 443 0 l 72 0 l 104 208 l 158 696 l 286 696 l 221 219 l 210 106 l 458 106 l 465 96 m 468 406 l 404 396 l 394 404 l 431 661 l 526 668 l 536 657 l 468 406 z "},"Ŀ":{"ha":572,"x_min":76,"x_max":553,"o":"m 513 0 l 76 0 l 118 268 l 188 892 l 326 892 l 242 279 l 225 114 l 531 114 l 536 103 l 513 0 m 482 606 q 534 586 515 606 q 553 532 553 567 q 532 475 553 496 q 476 454 511 454 q 404 528 404 454 q 425 585 404 564 q 482 606 446 606 z "},"ŀ":{"ha":536,"x_min":72,"x_max":496,"o":"m 465 96 l 443 0 l 72 0 l 104 208 l 158 696 l 286 696 l 221 219 l 210 106 l 458 106 l 465 96 m 425 488 q 477 468 458 488 q 496 414 496 449 q 475 357 496 378 q 419 336 454 336 q 347 410 347 336 q 368 467 347 446 q 425 488 389 488 z "},"Ł":{"ha":578,"x_min":18,"x_max":547,"o":"m 524 0 l 86 0 l 129 268 l 142 381 l 46 332 l 32 340 l 18 421 l 154 490 l 199 892 l 336 892 l 290 560 l 461 646 l 475 639 l 490 558 l 276 449 l 253 279 l 236 114 l 540 114 l 547 103 l 524 0 z "},"ł":{"ha":517,"x_min":6,"x_max":451,"o":"m 431 0 l 58 0 l 90 208 l 99 288 l 19 253 l 8 260 l 6 333 l 108 376 l 144 696 l 274 696 l 236 431 l 407 503 l 417 497 l 417 424 l 224 340 l 207 219 l 196 106 l 444 106 l 451 96 l 431 0 z "},"Ń":{"ha":919,"x_min":79,"x_max":875,"o":"m 760 0 l 615 0 l 296 678 l 286 678 l 238 297 l 206 0 l 79 0 l 119 264 l 193 892 l 336 892 l 656 213 l 665 213 l 746 885 l 875 894 l 788 265 l 760 0 m 732 1128 l 726 1114 q 447 999 618 1065 l 432 1004 l 408 1063 q 683 1211 589 1154 l 697 1207 l 732 1128 z "},"ń":{"ha":810,"x_min":75,"x_max":743,"o":"m 653 0 l 518 0 l 257 500 l 249 500 l 215 235 l 189 0 l 75 0 l 106 204 l 163 696 l 296 696 l 558 196 l 568 196 l 626 690 l 743 699 l 674 211 l 653 0 m 626 963 l 622 949 q 375 776 486 850 l 361 778 l 326 831 q 563 1036 478 957 l 575 1035 l 626 963 z "},"Ņ":{"ha":919,"x_min":79,"x_max":875,"o":"m 760 0 l 615 0 l 296 678 l 286 678 l 238 297 l 206 0 l 79 0 l 119 264 l 193 892 l 336 892 l 656 213 l 665 213 l 746 885 l 875 894 l 788 265 l 760 0 m 428 -71 q 482 -164 482 -110 q 351 -351 482 -257 l 311 -314 l 310 -304 q 381 -189 381 -246 q 340 -122 381 -151 l 340 -111 q 428 -71 386 -83 z "},"ņ":{"ha":810,"x_min":75,"x_max":743,"o":"m 653 0 l 518 0 l 257 500 l 249 500 l 215 235 l 189 0 l 75 0 l 106 204 l 163 696 l 296 696 l 558 196 l 568 196 l 626 690 l 743 699 l 674 211 l 653 0 m 368 -71 q 422 -164 422 -110 q 292 -351 422 -257 l 251 -314 l 250 -304 q 321 -189 321 -246 q 281 -122 321 -151 l 281 -111 q 368 -71 326 -83 z "},"Ň":{"ha":919,"x_min":79,"x_max":875,"o":"m 760 0 l 615 0 l 296 678 l 286 678 l 238 297 l 206 0 l 79 0 l 119 264 l 193 892 l 336 892 l 656 213 l 665 213 l 746 885 l 875 894 l 788 265 l 760 0 m 743 1135 q 560 1003 644 1074 l 526 1003 q 369 1135 453 1072 l 403 1192 l 417 1192 l 550 1101 q 708 1192 622 1144 l 722 1192 l 743 1135 z "},"ň":{"ha":810,"x_min":75,"x_max":743,"o":"m 653 0 l 518 0 l 257 500 l 249 500 l 215 235 l 189 0 l 75 0 l 106 204 l 163 696 l 296 696 l 558 196 l 568 196 l 626 690 l 743 699 l 674 211 l 653 0 m 668 971 q 472 781 608 917 l 438 781 q 279 971 371 875 l 321 1024 l 335 1024 q 463 885 413 947 q 625 1024 504 926 l 640 1024 l 668 971 z "},"Ŋ":{"ha":931,"x_min":79,"x_max":878,"o":"m 772 81 q 694 -97 757 -28 q 489 -228 631 -167 l 450 -153 l 453 -137 q 621 1 583 -68 l 294 676 l 285 676 l 239 297 l 207 0 l 79 0 l 121 264 l 192 892 l 338 892 l 660 219 l 669 219 l 747 885 l 878 894 l 790 265 l 772 81 z "},"ŋ":{"ha":810,"x_min":75,"x_max":743,"o":"m 657 54 q 604 -81 646 -29 q 467 -178 563 -132 l 432 -125 l 433 -111 q 528 -3 510 -61 l 258 499 l 249 499 l 217 236 l 190 0 l 75 0 l 107 204 l 163 696 l 299 696 l 558 211 l 567 211 l 625 690 l 743 699 l 674 211 l 657 54 z "},"Ō":{"ha":858,"x_min":60,"x_max":835,"o":"m 504 901 q 748 808 661 901 q 835 540 835 714 q 783 247 835 371 q 630 56 731 124 q 388 -11 529 -11 q 147 85 233 -11 q 60 357 60 182 q 175 757 60 613 q 504 901 290 901 m 489 789 q 200 364 200 789 q 249 164 200 229 q 401 99 299 99 q 690 526 690 99 q 641 725 690 661 q 489 789 592 789 m 722 1057 l 331 1057 l 321 1068 l 329 1144 l 721 1144 l 729 1135 l 722 1057 z "},"ō":{"ha":756,"x_min":56,"x_max":708,"o":"m 429 704 q 636 629 564 704 q 708 401 708 554 q 664 188 708 282 q 535 42 619 94 q 336 -10 451 -10 q 128 67 200 -10 q 56 297 56 143 q 99 510 56 418 q 228 653 143 601 q 429 704 313 704 m 413 599 q 188 304 188 599 q 225 141 188 189 q 350 93 263 93 q 575 389 575 93 q 538 550 575 501 q 413 599 500 599 m 643 861 l 251 861 l 242 872 l 250 949 l 642 949 l 650 939 l 643 861 z "},"Ŏ":{"ha":858,"x_min":60,"x_max":835,"o":"m 504 901 q 748 808 661 901 q 835 540 835 714 q 783 247 835 371 q 630 56 731 124 q 388 -11 529 -11 q 147 85 233 -11 q 60 357 60 182 q 175 757 60 613 q 504 901 290 901 m 489 789 q 200 364 200 789 q 249 164 200 229 q 401 99 299 99 q 690 526 690 99 q 641 725 690 661 q 489 789 592 789 m 713 1136 q 521 1004 651 1004 q 400 1038 447 1004 q 339 1136 353 1072 l 379 1182 l 400 1182 q 522 1100 422 1100 q 664 1182 618 1100 l 683 1182 l 713 1136 z "},"ŏ":{"ha":756,"x_min":56,"x_max":708,"o":"m 429 704 q 636 629 564 704 q 708 401 708 554 q 664 188 708 282 q 535 42 619 94 q 336 -10 451 -10 q 128 67 200 -10 q 56 297 56 143 q 99 510 56 418 q 228 653 143 601 q 429 704 313 704 m 413 599 q 188 304 188 599 q 225 141 188 189 q 350 93 263 93 q 575 389 575 93 q 538 550 575 501 q 413 599 500 599 m 631 953 q 554 833 604 876 q 432 789 504 789 q 258 953 275 789 l 297 1001 l 318 1001 q 436 885 333 885 q 582 1001 539 885 l 601 1001 l 631 953 z "},"Ő":{"ha":858,"x_min":60,"x_max":835,"o":"m 504 901 q 748 808 661 901 q 835 540 835 714 q 783 247 835 371 q 630 56 731 124 q 388 -11 529 -11 q 147 85 233 -11 q 60 357 60 182 q 175 757 60 613 q 504 901 290 901 m 489 789 q 200 364 200 789 q 249 164 200 229 q 401 99 299 99 q 690 526 690 99 q 641 725 690 661 q 489 789 592 789 m 339 1064 q 463 1207 435 1172 l 474 1210 l 536 1167 l 536 1154 q 369 997 472 1090 l 356 996 l 313 1033 l 339 1064 m 576 1103 q 667 1207 604 1133 l 676 1210 l 740 1167 l 740 1154 q 636 1056 708 1122 l 574 997 l 560 996 l 517 1033 l 576 1103 z "},"ő":{"ha":756,"x_min":56,"x_max":717,"o":"m 429 704 q 636 629 564 704 q 708 401 708 554 q 664 188 708 282 q 535 42 619 94 q 336 -10 451 -10 q 128 67 200 -10 q 56 297 56 143 q 99 510 56 418 q 228 653 143 601 q 429 704 313 704 m 413 599 q 188 304 188 599 q 225 141 188 189 q 350 93 263 93 q 575 389 575 93 q 538 550 575 501 q 413 599 500 599 m 258 815 q 440 1038 347 917 l 453 1039 l 515 993 l 515 981 q 315 779 424 883 l 301 776 l 258 815 m 460 815 q 643 1038 560 928 l 654 1039 l 717 993 l 717 981 q 517 779 625 883 l 504 776 l 460 815 z "},"Œ":{"ha":1146,"x_min":58,"x_max":1188,"o":"m 549 908 q 671 900 596 908 q 778 892 743 892 l 1179 892 l 1188 879 l 1163 774 l 969 779 l 797 779 l 764 511 l 910 508 l 1060 513 l 1065 503 l 1043 397 l 886 401 l 744 399 l 731 275 l 713 113 l 869 110 l 1082 117 l 1089 106 l 1067 0 l 667 0 q 539 -8 639 1 q 408 -17 453 -17 q 149 83 240 -17 q 58 363 58 183 q 117 653 58 531 q 287 842 176 776 q 549 908 397 908 m 522 796 q 281 688 363 796 q 199 369 199 579 q 435 94 199 94 q 556 108 511 94 q 583 126 575 115 q 594 160 592 138 l 658 722 q 660 746 660 732 q 647 776 660 771 q 522 796 611 796 z "},"œ":{"ha":997,"x_min":57,"x_max":1004,"o":"m 456 708 q 567 701 507 708 q 660 696 631 696 l 999 696 l 1004 685 l 983 588 l 819 594 l 679 594 l 656 406 l 776 404 l 899 408 l 906 399 l 885 300 l 756 304 l 640 303 l 629 217 l 615 101 l 746 101 l 922 107 l 929 97 l 907 0 l 574 0 q 472 -6 542 0 q 361 -12 413 -12 q 137 66 217 -12 q 57 285 57 144 q 162 596 57 483 q 456 708 267 708 m 438 599 q 249 524 310 599 q 189 292 189 450 q 234 140 189 189 q 375 92 279 92 q 476 104 446 92 q 495 119 490 110 q 503 147 500 128 l 547 544 l 549 561 q 538 585 549 578 q 438 599 496 599 z "},"Ŕ":{"ha":760,"x_min":79,"x_max":717,"o":"m 717 672 q 662 485 717 568 q 510 357 607 403 q 685 32 589 192 l 682 17 q 549 -12 614 -7 l 535 -1 q 393 321 446 186 l 249 321 l 243 279 l 217 0 l 79 0 l 119 268 l 192 892 l 469 893 q 651 835 585 893 q 717 672 717 778 m 414 428 q 574 650 574 478 q 428 785 574 778 l 314 781 l 265 432 l 414 428 m 628 1158 l 624 1144 q 376 972 488 1046 l 363 974 l 328 1026 q 564 1232 479 1153 l 576 1231 l 628 1158 z "},"ŕ":{"ha":682,"x_min":75,"x_max":618,"o":"m 618 514 q 575 376 618 436 q 453 279 532 317 q 600 31 515 160 l 596 15 q 474 -10 526 -7 l 454 3 l 438 38 q 346 244 354 222 l 228 243 l 225 219 l 201 0 l 75 0 l 107 208 l 163 696 l 407 696 q 562 647 506 696 q 618 514 618 599 m 360 340 q 485 497 485 378 q 456 571 485 547 q 368 597 428 594 l 276 596 l 242 346 l 360 340 m 551 963 l 547 949 q 300 776 411 850 l 286 778 l 251 831 q 488 1036 403 957 l 500 1035 l 551 963 z "},"Ŗ":{"ha":760,"x_min":79,"x_max":717,"o":"m 717 672 q 662 485 717 568 q 510 357 607 403 q 685 32 589 192 l 682 17 q 549 -12 614 -7 l 535 -1 q 393 321 446 186 l 249 321 l 243 279 l 217 0 l 79 0 l 119 268 l 192 892 l 469 893 q 651 835 585 893 q 717 672 717 778 m 414 428 q 574 650 574 478 q 428 785 574 778 l 314 781 l 265 432 l 414 428 m 346 -71 q 400 -164 400 -110 q 269 -351 400 -257 l 229 -314 l 228 -304 q 299 -189 299 -246 q 258 -122 299 -151 l 258 -111 q 346 -71 304 -83 z "},"ŗ":{"ha":682,"x_min":75,"x_max":618,"o":"m 618 514 q 575 376 618 436 q 453 279 532 317 q 600 31 515 160 l 596 15 q 474 -10 526 -7 l 454 3 l 438 38 q 346 244 354 222 l 228 243 l 225 219 l 201 0 l 75 0 l 107 208 l 163 696 l 407 696 q 562 647 506 696 q 618 514 618 599 m 360 340 q 485 497 485 378 q 456 571 485 547 q 368 597 428 594 l 276 596 l 242 346 l 360 340 m 332 -71 q 386 -164 386 -110 q 256 -351 386 -257 l 215 -314 l 214 -304 q 285 -189 285 -246 q 244 -122 285 -151 l 244 -111 q 332 -71 290 -83 z "},"Ř":{"ha":760,"x_min":79,"x_max":717,"o":"m 717 672 q 662 485 717 568 q 510 357 607 403 q 685 32 589 192 l 682 17 q 549 -12 614 -7 l 535 -1 q 393 321 446 186 l 249 321 l 243 279 l 217 0 l 79 0 l 119 268 l 192 892 l 469 893 q 651 835 585 893 q 717 672 717 778 m 414 428 q 574 650 574 478 q 428 785 574 778 l 314 781 l 265 432 l 414 428 m 669 1167 q 474 976 610 1113 l 439 976 q 281 1167 372 1071 l 322 1219 l 336 1219 q 464 1081 414 1143 q 626 1219 506 1122 l 642 1219 l 669 1167 z "},"ř":{"ha":682,"x_min":75,"x_max":618,"o":"m 618 514 q 575 376 618 436 q 453 279 532 317 q 600 31 515 160 l 596 15 q 474 -10 526 -7 l 454 3 l 438 38 q 346 244 354 222 l 228 243 l 225 219 l 201 0 l 75 0 l 107 208 l 163 696 l 407 696 q 562 647 506 696 q 618 514 618 599 m 360 340 q 485 497 485 378 q 456 571 485 547 q 368 597 428 594 l 276 596 l 242 346 l 360 340 m 594 971 q 399 781 535 917 l 364 781 q 206 971 297 875 l 247 1024 l 261 1024 q 389 885 339 947 q 551 1024 431 926 l 567 1024 l 594 971 z "},"Ś":{"ha":644,"x_min":21,"x_max":635,"o":"m 426 900 q 635 857 532 900 l 597 732 l 574 724 q 406 790 499 790 q 292 753 335 790 q 249 663 249 715 q 283 585 249 617 q 389 510 317 553 q 491 442 451 472 q 558 366 531 411 q 586 258 586 321 q 545 122 586 183 q 431 25 504 61 q 265 -11 357 -11 q 21 50 132 -11 l 56 185 l 72 193 q 172 122 115 146 q 282 97 229 97 q 401 136 356 97 q 447 232 447 175 q 413 313 447 281 q 306 389 378 344 q 206 455 244 425 q 141 530 168 485 q 114 636 114 575 q 155 770 114 710 q 267 865 196 831 q 426 900 338 900 m 574 1158 l 569 1144 q 322 972 433 1046 l 308 974 l 274 1026 q 510 1232 425 1153 l 522 1231 l 574 1158 z "},"ś":{"ha":582,"x_min":32,"x_max":536,"o":"m 363 703 q 536 669 457 703 l 503 547 l 482 542 q 344 606 414 606 q 259 576 292 606 q 226 510 226 547 q 254 453 226 475 q 339 406 282 432 q 426 358 393 379 q 482 303 458 338 q 506 217 506 268 q 474 108 506 160 q 383 23 443 56 q 238 -10 322 -10 q 32 36 124 -10 l 61 164 l 78 172 q 163 110 114 132 q 256 88 213 88 q 342 117 307 88 q 378 186 378 147 q 351 243 378 221 q 264 293 324 265 q 178 340 210 319 q 122 397 146 361 q 99 483 99 432 q 131 592 99 542 q 224 672 164 642 q 363 703 283 703 m 514 963 l 510 949 q 263 776 374 850 l 249 778 l 214 831 q 450 1036 365 957 l 463 1035 l 514 963 z "},"Ŝ":{"ha":644,"x_min":21,"x_max":635,"o":"m 426 900 q 635 857 532 900 l 597 732 l 574 724 q 406 790 499 790 q 292 753 335 790 q 249 663 249 715 q 283 585 249 617 q 389 510 317 553 q 491 442 451 472 q 558 366 531 411 q 586 258 586 321 q 545 122 586 183 q 431 25 504 61 q 265 -11 357 -11 q 21 50 132 -11 l 56 185 l 72 193 q 172 122 115 146 q 282 97 229 97 q 401 136 356 97 q 447 232 447 175 q 413 313 447 281 q 306 389 378 344 q 206 455 244 425 q 141 530 168 485 q 114 636 114 575 q 155 770 114 710 q 267 865 196 831 q 426 900 338 900 m 228 1032 q 426 1222 301 1097 l 461 1222 q 615 1032 536 1119 l 574 979 l 560 979 q 433 1118 479 1060 q 271 979 382 1069 l 256 979 l 228 1032 z "},"ŝ":{"ha":582,"x_min":32,"x_max":554,"o":"m 363 703 q 536 669 457 703 l 503 547 l 482 542 q 344 606 414 606 q 259 576 292 606 q 226 510 226 547 q 254 453 226 475 q 339 406 282 432 q 426 358 393 379 q 482 303 458 338 q 506 217 506 268 q 474 108 506 160 q 383 23 443 56 q 238 -10 322 -10 q 32 36 124 -10 l 61 164 l 78 172 q 163 110 114 132 q 256 88 213 88 q 342 117 307 88 q 378 186 378 147 q 351 243 378 221 q 264 293 324 265 q 178 340 210 319 q 122 397 146 361 q 99 483 99 432 q 131 592 99 542 q 224 672 164 642 q 363 703 283 703 m 167 836 q 365 1026 240 901 l 400 1026 q 554 836 475 924 l 513 783 l 499 783 q 372 922 418 864 q 210 783 321 874 l 194 783 l 167 836 z "},"Ş":{"ha":644,"x_min":21,"x_max":635,"o":"m 406 790 q 292 752 336 790 q 249 663 249 714 q 283 585 249 617 q 390 510 318 553 q 492 442 453 472 q 560 366 532 411 q 588 258 588 321 q 551 129 588 188 q 448 33 514 71 q 297 -10 382 -4 l 281 -68 l 328 -96 q 382 -175 382 -126 q 349 -245 382 -218 q 263 -272 317 -272 q 157 -229 206 -272 l 169 -167 l 176 -164 q 256 -206 215 -206 q 297 -172 297 -206 q 269 -140 297 -153 l 201 -100 l 225 -10 q 21 50 114 0 l 56 185 l 72 193 q 172 122 115 146 q 282 97 229 97 q 401 136 356 97 q 447 232 447 175 q 413 313 447 281 q 306 389 378 344 q 206 455 244 425 q 141 530 168 485 q 114 636 114 575 q 155 770 114 710 q 267 865 196 831 q 426 900 338 900 q 635 857 533 900 l 597 732 l 575 724 q 406 790 497 790 z "},"ş":{"ha":582,"x_min":32,"x_max":535,"o":"m 226 510 q 254 453 226 475 q 339 406 282 432 q 426 358 393 379 q 482 303 458 338 q 506 217 506 268 q 480 117 506 165 q 403 35 454 68 q 281 -7 353 1 l 264 -68 l 311 -96 q 365 -175 365 -126 q 333 -245 365 -218 q 246 -272 300 -272 q 140 -229 189 -272 l 153 -167 l 160 -164 q 239 -206 199 -206 q 281 -172 281 -206 q 253 -140 281 -153 l 185 -100 l 208 -8 q 32 36 111 -4 l 61 164 l 78 172 q 162 110 113 132 q 256 88 211 88 q 342 117 307 88 q 378 186 378 147 q 351 243 378 221 q 264 293 324 265 q 178 340 210 319 q 122 397 146 361 q 99 483 99 432 q 131 592 99 542 q 224 672 164 642 q 363 703 283 703 q 535 669 457 703 l 503 547 l 481 542 q 344 606 415 606 q 259 576 292 606 q 226 510 226 547 z "},"Š":{"ha":644,"x_min":21,"x_max":635,"o":"m 426 900 q 635 857 532 900 l 597 732 l 574 724 q 406 790 499 790 q 292 753 335 790 q 249 663 249 715 q 283 585 249 617 q 389 510 317 553 q 491 442 451 472 q 558 366 531 411 q 586 258 586 321 q 545 122 586 183 q 431 25 504 61 q 265 -11 357 -11 q 21 50 132 -11 l 56 185 l 72 193 q 172 122 115 146 q 282 97 229 97 q 401 136 356 97 q 447 232 447 175 q 413 313 447 281 q 306 389 378 344 q 206 455 244 425 q 141 530 168 485 q 114 636 114 575 q 155 770 114 710 q 267 865 196 831 q 426 900 338 900 m 615 1167 q 419 976 556 1113 l 385 976 q 226 1167 318 1071 l 268 1219 l 282 1219 q 410 1081 360 1143 q 572 1219 451 1122 l 588 1219 l 615 1167 z "},"š":{"ha":582,"x_min":32,"x_max":556,"o":"m 363 703 q 536 669 457 703 l 503 547 l 482 542 q 344 606 414 606 q 259 576 292 606 q 226 510 226 547 q 254 453 226 475 q 339 406 282 432 q 426 358 393 379 q 482 303 458 338 q 506 217 506 268 q 474 108 506 160 q 383 23 443 56 q 238 -10 322 -10 q 32 36 124 -10 l 61 164 l 78 172 q 163 110 114 132 q 256 88 213 88 q 342 117 307 88 q 378 186 378 147 q 351 243 378 221 q 264 293 324 265 q 178 340 210 319 q 122 397 146 361 q 99 483 99 432 q 131 592 99 542 q 224 672 164 642 q 363 703 283 703 m 556 971 q 360 781 496 917 l 325 781 q 167 971 258 875 l 208 1024 l 222 1024 q 350 885 300 947 q 513 1024 392 926 l 528 1024 l 556 971 z "},"Ţ":{"ha":660,"x_min":85,"x_max":704,"o":"m 682 775 l 531 783 l 457 783 l 388 279 l 361 0 l 322 0 l 306 -68 l 347 -94 q 399 -171 399 -126 q 368 -237 399 -211 q 290 -262 338 -262 q 193 -221 240 -262 l 204 -164 l 213 -161 q 283 -203 244 -203 q 319 -168 319 -203 q 297 -135 319 -150 l 235 -96 l 258 0 l 224 0 l 265 268 l 322 783 l 250 783 l 93 775 l 85 788 l 108 892 l 699 892 l 704 879 l 682 775 z "},"ţ":{"ha":593,"x_min":69,"x_max":596,"o":"m 575 581 l 446 590 l 389 590 l 339 219 l 317 0 l 286 0 l 260 -71 l 301 -97 q 344 -168 344 -126 q 308 -242 344 -212 q 219 -271 271 -271 q 126 -229 163 -271 l 146 -169 l 150 -167 q 221 -210 183 -210 q 252 -199 240 -210 q 264 -171 264 -189 q 242 -139 264 -151 l 183 -99 l 222 0 l 192 0 l 222 208 l 268 590 l 210 590 l 76 581 l 69 592 l 90 696 l 590 696 l 596 685 l 575 581 z "},"Ť":{"ha":660,"x_min":85,"x_max":706,"o":"m 682 775 l 531 783 l 458 783 l 389 279 l 361 0 l 224 0 l 267 268 l 322 783 l 250 783 l 93 775 l 85 788 l 110 892 l 699 892 l 706 879 l 682 775 m 622 1167 q 426 976 563 1113 l 392 976 q 233 1167 325 1071 l 275 1219 l 289 1219 q 417 1081 367 1143 q 579 1219 458 1122 l 594 1219 l 622 1167 z "},"ť":{"ha":593,"x_min":72,"x_max":600,"o":"m 578 581 l 450 590 l 393 590 l 342 219 l 321 0 l 194 0 l 225 208 l 271 590 l 213 590 l 81 581 l 72 592 l 94 696 l 593 696 l 600 685 l 578 581 m 563 971 q 367 781 503 917 l 332 781 q 174 971 265 875 l 215 1024 l 229 1024 q 357 885 307 947 q 519 1024 399 926 l 535 1024 l 563 971 z "},"Ŧ":{"ha":660,"x_min":85,"x_max":704,"o":"m 415 478 l 544 478 l 556 468 l 550 397 l 404 397 l 388 279 l 361 0 l 224 0 l 265 268 l 279 397 l 158 397 l 149 406 l 154 478 l 289 478 l 322 783 l 250 783 l 93 775 l 85 788 l 108 892 l 699 892 l 704 879 l 682 775 l 531 783 l 457 783 l 415 478 z "},"ŧ":{"ha":593,"x_min":72,"x_max":600,"o":"m 361 354 l 479 354 l 489 344 l 474 274 l 349 274 l 342 219 l 321 0 l 194 0 l 226 208 l 233 274 l 111 274 l 103 282 l 118 354 l 243 354 l 271 590 l 213 590 l 81 581 l 72 592 l 94 696 l 593 696 l 600 685 l 578 581 l 450 590 l 393 590 l 361 354 z "},"Ũ":{"ha":842,"x_min":90,"x_max":819,"o":"m 747 335 q 635 78 728 168 q 383 -11 543 -11 q 168 57 246 -11 q 90 250 90 125 q 94 324 90 285 l 113 446 l 164 892 l 299 892 l 225 342 q 221 282 221 308 q 393 107 221 107 q 621 328 596 107 l 683 892 l 819 892 l 760 438 l 747 335 m 744 1140 l 656 1035 l 642 1029 q 524 1058 604 1035 q 426 1081 440 1081 q 401 1070 414 1081 q 364 1033 389 1060 l 344 1013 l 332 1013 l 290 1054 l 290 1067 l 379 1172 l 394 1176 q 513 1150 433 1171 q 610 1128 586 1128 q 636 1139 622 1128 q 666 1167 650 1150 q 692 1194 682 1185 l 704 1194 l 744 1153 l 744 1140 z "},"ũ":{"ha":743,"x_min":81,"x_max":697,"o":"m 636 240 q 544 55 622 119 q 332 -10 467 -10 q 147 42 213 -10 q 81 190 81 94 q 85 240 81 214 l 100 346 l 140 696 l 268 696 l 206 260 q 203 224 203 235 q 344 97 203 97 q 521 260 503 97 l 569 696 l 697 696 l 650 342 l 636 240 m 668 944 l 579 839 l 565 833 q 447 863 528 839 q 350 885 364 885 q 325 874 338 885 q 288 838 313 864 l 268 817 l 256 817 l 214 858 l 214 871 l 303 976 l 318 981 q 436 954 357 975 q 533 932 510 932 q 560 943 546 932 q 590 972 574 954 q 615 999 606 989 l 628 999 l 668 957 l 668 944 z "},"Ū":{"ha":842,"x_min":90,"x_max":819,"o":"m 747 335 q 635 78 728 168 q 383 -11 543 -11 q 168 57 246 -11 q 90 250 90 125 q 94 324 90 285 l 113 446 l 164 892 l 299 892 l 225 342 q 221 282 221 308 q 393 107 221 107 q 621 328 596 107 l 683 892 l 819 892 l 760 438 l 747 335 m 715 1057 l 324 1057 l 314 1068 l 322 1144 l 714 1144 l 722 1135 l 715 1057 z "},"ū":{"ha":743,"x_min":81,"x_max":697,"o":"m 636 240 q 544 55 622 119 q 332 -10 467 -10 q 147 42 213 -10 q 81 190 81 94 q 85 240 81 214 l 100 346 l 140 696 l 268 696 l 206 260 q 203 224 203 235 q 344 97 203 97 q 521 260 503 97 l 569 696 l 697 696 l 650 342 l 636 240 m 639 861 l 247 861 l 238 872 l 246 949 l 638 949 l 646 939 l 639 861 z "},"Ŭ":{"ha":842,"x_min":90,"x_max":819,"o":"m 747 335 q 635 78 728 168 q 383 -11 543 -11 q 168 57 246 -11 q 90 250 90 125 q 94 324 90 285 l 113 446 l 164 892 l 299 892 l 225 342 q 221 282 221 308 q 393 107 221 107 q 621 328 596 107 l 683 892 l 819 892 l 760 438 l 747 335 m 703 1149 q 626 1028 676 1072 q 504 985 576 985 q 331 1149 347 985 l 369 1197 l 390 1197 q 508 1081 406 1081 q 654 1197 611 1081 l 674 1197 l 703 1149 z "},"ŭ":{"ha":743,"x_min":81,"x_max":697,"o":"m 636 240 q 544 55 622 119 q 332 -10 467 -10 q 147 42 213 -10 q 81 190 81 94 q 85 240 81 214 l 100 346 l 140 696 l 268 696 l 206 260 q 203 224 203 235 q 344 97 203 97 q 521 260 503 97 l 569 696 l 697 696 l 650 342 l 636 240 m 626 953 q 550 833 600 876 q 428 789 500 789 q 254 953 271 789 l 293 1001 l 314 1001 q 432 885 329 885 q 578 1001 535 885 l 597 1001 l 626 953 z "},"Ů":{"ha":842,"x_min":90,"x_max":819,"o":"m 747 335 q 635 78 728 168 q 383 -11 543 -11 q 168 57 246 -11 q 90 250 90 125 q 94 324 90 285 l 113 446 l 164 892 l 299 892 l 225 342 q 221 282 221 308 q 393 107 221 107 q 621 328 596 107 l 683 892 l 819 892 l 760 438 l 747 335 m 522 1232 q 611 1200 581 1232 q 642 1115 642 1168 q 607 1024 642 1057 q 517 992 572 992 q 431 1023 464 992 q 399 1111 399 1054 q 431 1200 399 1168 q 522 1232 464 1232 m 518 1169 q 460 1113 460 1169 q 521 1053 460 1053 q 581 1110 581 1053 q 518 1169 581 1169 z "},"ů":{"ha":743,"x_min":81,"x_max":697,"o":"m 636 240 q 544 55 622 119 q 332 -10 467 -10 q 147 42 213 -10 q 81 190 81 94 q 85 240 81 214 l 100 346 l 140 696 l 268 696 l 206 260 q 203 224 203 235 q 344 97 203 97 q 521 260 503 97 l 569 696 l 697 696 l 650 342 l 636 240 m 446 1036 q 535 1004 504 1036 q 565 919 565 972 q 531 828 565 861 q 440 796 496 796 q 355 827 388 796 q 322 915 322 858 q 355 1004 322 972 q 446 1036 388 1036 m 442 974 q 383 917 383 974 q 444 857 383 857 q 504 914 504 857 q 442 974 504 974 z "},"Ű":{"ha":842,"x_min":90,"x_max":819,"o":"m 747 335 q 635 78 728 168 q 383 -11 543 -11 q 168 57 246 -11 q 90 250 90 125 q 94 324 90 285 l 113 446 l 164 892 l 299 892 l 225 342 q 221 282 221 308 q 393 107 221 107 q 621 328 596 107 l 683 892 l 819 892 l 760 438 l 747 335 m 332 1064 q 456 1207 428 1172 l 467 1210 l 529 1167 l 529 1154 q 363 997 465 1090 l 349 996 l 306 1033 l 332 1064 m 569 1103 q 660 1207 597 1133 l 669 1210 l 733 1167 l 733 1154 q 629 1056 701 1122 l 567 997 l 553 996 l 510 1033 l 569 1103 z "},"ű":{"ha":743,"x_min":81,"x_max":713,"o":"m 636 240 q 544 55 622 119 q 332 -10 467 -10 q 147 42 213 -10 q 81 190 81 94 q 85 240 81 214 l 100 346 l 140 696 l 268 696 l 206 260 q 203 224 203 235 q 344 97 203 97 q 521 260 503 97 l 569 696 l 697 696 l 650 342 l 636 240 m 254 815 q 436 1038 343 917 l 449 1039 l 511 993 l 511 981 q 311 779 419 883 l 297 776 l 254 815 m 456 815 q 639 1038 556 928 l 650 1039 l 713 993 l 713 981 q 513 779 621 883 l 500 776 l 456 815 z "},"Ų":{"ha":840,"x_min":90,"x_max":821,"o":"m 760 438 l 747 335 q 586 40 724 124 l 519 -75 q 496 -143 496 -111 q 543 -189 496 -189 q 635 -140 594 -189 l 643 -140 l 660 -201 q 525 -274 592 -274 q 445 -242 475 -274 q 415 -158 415 -210 q 447 -62 415 -110 l 488 0 q 383 -11 436 -11 q 168 57 246 -11 q 90 250 90 125 q 96 324 90 289 l 113 446 l 165 892 l 300 892 l 225 342 q 221 282 221 308 q 393 107 221 107 q 621 328 596 107 l 685 892 l 821 892 l 760 438 z "},"ų":{"ha":743,"x_min":81,"x_max":697,"o":"m 650 342 l 636 240 q 514 33 619 96 l 449 -67 q 424 -133 424 -106 q 478 -187 424 -187 q 571 -139 522 -187 l 579 -139 l 594 -203 q 457 -274 521 -274 q 372 -241 404 -274 q 340 -158 340 -208 q 378 -51 340 -104 l 413 -3 q 332 -10 371 -10 q 147 42 213 -10 q 81 190 81 94 q 85 240 81 214 l 100 346 l 140 696 l 268 696 l 206 260 q 203 224 203 235 q 344 97 203 97 q 521 260 503 97 l 569 696 l 697 696 l 650 342 z "},"Ŵ":{"ha":1193,"x_min":99,"x_max":1256,"o":"m 707 0 l 617 488 l 606 488 l 389 0 l 244 0 l 99 892 l 232 892 l 235 799 l 340 146 l 350 146 l 582 669 l 542 892 l 682 892 l 689 785 l 797 146 l 807 146 l 1094 790 l 1128 892 l 1256 892 l 849 0 l 707 0 m 478 1071 q 660 1203 568 1128 l 693 1203 q 851 1071 761 1139 l 817 1014 l 803 1014 q 671 1106 742 1054 l 565 1044 l 513 1014 l 497 1014 l 478 1071 z "},"ŵ":{"ha":1035,"x_min":89,"x_max":1058,"o":"m 599 0 l 521 356 l 514 356 l 346 0 l 213 0 l 89 696 l 214 696 l 215 614 l 300 133 l 308 133 l 490 524 l 460 696 l 589 696 l 592 603 l 681 133 l 692 133 l 911 608 l 940 696 l 1058 696 l 731 0 l 599 0 m 368 836 q 567 1026 442 901 l 601 1026 q 756 836 676 924 l 714 783 l 700 783 q 574 922 619 864 q 411 783 522 874 l 396 783 l 368 836 z "},"Ŷ":{"ha":719,"x_min":86,"x_max":781,"o":"m 401 256 l 375 0 l 238 0 l 279 256 l 285 317 l 86 892 l 228 892 l 238 838 l 361 458 l 374 458 l 606 833 l 635 892 l 781 892 l 410 314 l 401 256 m 272 1071 q 454 1203 363 1128 l 488 1203 q 646 1071 556 1139 l 611 1014 l 597 1014 q 465 1106 536 1054 l 360 1044 l 307 1014 l 292 1014 l 272 1071 z "},"ŷ":{"ha":646,"x_min":75,"x_max":668,"o":"m 357 196 l 338 0 l 211 0 l 240 196 l 244 240 l 75 696 l 210 696 l 219 651 l 321 371 l 329 371 l 511 646 l 536 696 l 668 696 l 364 235 l 357 196 m 199 836 q 397 1026 272 901 l 432 1026 q 586 836 507 924 l 544 783 l 531 783 q 404 922 450 864 q 242 783 353 874 l 226 783 l 199 836 z "},"Ÿ":{"ha":719,"x_min":86,"x_max":781,"o":"m 401 256 l 375 0 l 238 0 l 279 256 l 285 317 l 86 892 l 228 892 l 238 838 l 361 458 l 374 458 l 606 833 l 635 892 l 781 892 l 410 314 l 401 256 m 347 1171 q 395 1152 378 1171 q 413 1103 413 1133 q 393 1048 413 1068 q 342 1028 374 1028 q 274 1097 274 1028 q 293 1151 274 1131 q 347 1171 313 1171 m 575 1169 q 623 1151 606 1169 q 640 1101 640 1133 q 622 1047 640 1067 q 571 1026 603 1026 q 503 1096 503 1026 q 522 1149 503 1129 q 575 1169 542 1169 z "},"Ź":{"ha":714,"x_min":3,"x_max":735,"o":"m 179 108 l 504 108 l 640 119 l 646 111 l 621 -3 l 450 0 l 90 0 l 3 -4 l 17 96 l 561 782 l 258 782 l 119 771 l 114 779 l 140 893 l 663 892 l 735 893 l 722 792 l 179 108 m 579 1128 l 574 1114 q 294 999 465 1065 l 279 1004 l 256 1063 q 531 1211 436 1154 l 544 1207 l 579 1128 z "},"ź":{"ha":639,"x_min":14,"x_max":624,"o":"m 178 99 l 433 99 l 556 111 l 561 104 l 535 -3 l 382 0 l 92 0 l 14 -3 l 25 89 l 463 594 l 214 594 l 100 582 l 96 592 l 119 697 l 253 696 l 624 696 l 613 601 l 178 99 m 542 963 l 538 949 q 290 776 401 850 l 276 778 l 242 831 q 478 1036 393 957 l 490 1035 l 542 963 z "},"Ż":{"ha":714,"x_min":3,"x_max":735,"o":"m 179 108 l 504 108 l 640 119 l 646 111 l 621 -3 l 450 0 l 90 0 l 3 -4 l 17 96 l 561 782 l 258 782 l 119 771 l 114 779 l 140 893 l 663 892 l 735 893 l 722 792 l 179 108 m 408 1188 q 462 1168 443 1188 q 481 1115 481 1149 q 460 1058 481 1079 q 404 1036 439 1036 q 332 1110 332 1036 q 353 1167 332 1146 q 408 1188 374 1188 z "},"ż":{"ha":639,"x_min":14,"x_max":624,"o":"m 178 99 l 433 99 l 556 111 l 561 104 l 535 -3 l 382 0 l 92 0 l 14 -3 l 25 89 l 463 594 l 214 594 l 100 582 l 96 592 l 119 697 l 253 696 l 624 696 l 613 601 l 178 99 m 393 992 q 447 972 428 992 q 465 919 465 953 q 444 862 465 883 q 389 840 424 840 q 317 914 317 840 q 338 971 317 950 q 393 992 358 992 z "},"Ž":{"ha":714,"x_min":3,"x_max":735,"o":"m 179 108 l 504 108 l 640 119 l 646 111 l 621 -3 l 450 0 l 90 0 l 3 -4 l 17 96 l 561 782 l 258 782 l 119 771 l 114 779 l 140 893 l 663 892 l 735 893 l 722 792 l 179 108 m 590 1135 q 407 1003 492 1074 l 374 1003 q 217 1135 300 1072 l 250 1192 l 264 1192 l 397 1101 q 556 1192 469 1144 l 569 1192 l 590 1135 z "},"ž":{"ha":639,"x_min":14,"x_max":624,"o":"m 178 99 l 433 99 l 556 111 l 561 104 l 535 -3 l 382 0 l 92 0 l 14 -3 l 25 89 l 463 594 l 214 594 l 100 582 l 96 592 l 119 697 l 253 696 l 624 696 l 613 601 l 178 99 m 583 971 q 388 781 524 917 l 353 781 q 194 971 286 875 l 236 1024 l 250 1024 q 378 885 328 947 q 540 1024 419 926 l 556 1024 l 583 971 z "},"ƒ":{"ha":407,"x_min":-17,"x_max":535,"o":"m 431 857 q 535 844 475 857 l 515 757 l 504 751 q 414 771 460 771 q 288 653 300 771 l 269 524 l 419 524 l 425 515 l 418 451 l 260 451 l 236 257 l 213 69 q 165 -86 203 -26 q 39 -208 128 -146 l -17 -156 l -14 -144 q 71 -50 46 -94 q 104 67 96 -6 l 126 247 l 150 451 l 58 451 l 53 460 l 60 524 l 158 524 l 172 635 q 251 799 183 742 q 431 857 319 857 z "},"Ơ":{"ha":863,"x_min":60,"x_max":939,"o":"m 872 1068 q 919 1038 900 1068 q 939 963 939 1008 q 889 843 939 889 q 763 790 839 797 q 833 528 833 694 q 780 247 833 369 q 626 57 726 125 q 388 -11 525 -11 q 144 85 228 -11 q 60 374 60 182 q 113 650 60 531 q 266 835 167 769 q 499 901 365 901 q 656 875 576 901 q 733 860 707 860 q 803 882 775 860 q 831 946 831 904 q 800 1029 831 994 l 804 1040 q 872 1068 842 1068 m 489 789 q 273 683 346 789 q 200 382 200 578 q 247 166 200 233 q 403 99 294 99 q 617 206 544 99 q 690 510 690 313 q 643 723 690 657 q 489 789 596 789 z "},"ơ":{"ha":760,"x_min":56,"x_max":797,"o":"m 675 811 q 735 835 710 835 q 778 810 760 835 q 797 746 797 785 q 758 646 797 688 q 657 600 718 604 q 708 415 708 529 q 664 190 708 286 q 535 42 619 94 q 335 -10 451 -10 q 129 67 203 -10 q 56 281 56 143 q 153 592 56 479 q 425 704 251 704 q 558 683 488 704 q 622 672 606 672 q 677 688 656 672 q 699 735 699 704 q 671 801 699 769 l 675 811 m 350 92 q 521 167 467 92 q 575 407 575 243 q 535 553 575 506 q 411 600 494 600 q 241 523 294 600 q 188 283 188 446 q 228 138 188 183 q 350 92 268 92 z "},"Ư":{"ha":850,"x_min":90,"x_max":924,"o":"m 924 972 q 894 888 924 925 q 813 833 864 851 l 760 438 l 747 335 q 636 78 729 168 q 383 -11 543 -11 q 168 57 246 -11 q 90 250 90 125 q 96 324 90 289 l 113 446 l 165 892 l 300 892 l 225 342 q 221 282 221 308 q 393 107 221 107 q 621 328 596 107 l 685 892 l 733 892 q 818 961 818 892 q 778 1044 818 1004 l 782 1057 q 846 1083 818 1083 q 899 1051 875 1083 q 924 972 924 1018 z "},"ư":{"ha":758,"x_min":81,"x_max":796,"o":"m 796 771 q 767 696 796 729 q 690 644 739 663 l 650 342 l 636 240 q 544 55 622 119 q 332 -10 467 -10 q 147 42 213 -10 q 81 190 81 94 q 85 240 81 214 l 100 346 l 140 696 l 268 696 l 206 260 q 203 224 203 235 q 344 97 203 97 q 521 260 503 97 l 569 696 l 619 696 q 696 757 696 696 q 668 814 696 788 l 672 825 q 736 849 707 849 q 778 826 760 849 q 796 771 796 803 z "},"Ǎ":{"ha":779,"x_min":-22,"x_max":715,"o":"m 578 0 l 568 99 l 546 226 l 367 231 l 204 228 l 149 104 l 113 0 l -22 0 l 392 892 l 551 892 l 715 0 l 578 0 m 457 756 l 446 756 l 257 340 l 390 338 l 528 339 l 457 756 m 676 1135 q 493 1003 578 1074 l 460 1003 q 303 1135 386 1072 l 336 1192 l 350 1192 l 483 1101 q 642 1192 556 1144 l 656 1192 l 676 1135 z "},"ǎ":{"ha":696,"x_min":-10,"x_max":615,"o":"m 486 0 l 482 83 l 467 164 l 317 165 l 183 164 l 147 90 l 115 0 l -10 0 l 328 696 l 476 696 l 615 0 l 486 0 m 388 574 l 379 574 l 232 267 l 338 265 l 447 267 l 388 574 m 615 971 q 419 781 556 917 l 385 781 q 226 971 318 875 l 268 1024 l 282 1024 q 410 885 360 947 q 572 1024 451 926 l 588 1024 l 615 971 z "},"Ǐ":{"ha":375,"x_min":79,"x_max":469,"o":"m 217 0 l 79 0 l 119 268 l 190 892 l 328 892 l 243 279 l 217 0 m 469 1135 q 286 1003 371 1074 l 253 1003 q 96 1135 179 1072 l 129 1192 l 143 1192 l 276 1101 q 435 1192 349 1144 l 449 1192 l 469 1135 z "},"ǐ":{"ha":363,"x_min":54,"x_max":443,"o":"m 201 0 l 75 0 l 107 208 l 161 696 l 290 696 l 224 219 l 201 0 m 443 971 q 247 781 383 917 l 213 781 q 54 971 146 875 l 96 1024 l 110 1024 q 238 885 188 947 q 400 1024 279 926 l 415 1024 l 443 971 z "},"Ǒ":{"ha":858,"x_min":60,"x_max":835,"o":"m 504 901 q 748 808 661 901 q 835 540 835 714 q 783 247 835 371 q 630 56 731 124 q 388 -11 529 -11 q 147 85 233 -11 q 60 357 60 182 q 175 757 60 613 q 504 901 290 901 m 489 789 q 200 364 200 789 q 249 164 200 229 q 401 99 299 99 q 690 526 690 99 q 641 725 690 661 q 489 789 592 789 m 711 1135 q 528 1003 613 1074 l 494 1003 q 338 1135 421 1072 l 371 1192 l 385 1192 l 518 1101 q 676 1192 590 1144 l 690 1192 l 711 1135 z "},"ǒ":{"ha":756,"x_min":56,"x_max":708,"o":"m 429 704 q 636 629 564 704 q 708 401 708 554 q 664 188 708 282 q 535 42 619 94 q 336 -10 451 -10 q 128 67 200 -10 q 56 297 56 143 q 99 510 56 418 q 228 653 143 601 q 429 704 313 704 m 413 599 q 188 304 188 599 q 225 141 188 189 q 350 93 263 93 q 575 389 575 93 q 538 550 575 501 q 413 599 500 599 m 640 971 q 444 781 581 917 l 410 781 q 251 971 343 875 l 293 1024 l 307 1024 q 435 885 385 947 q 597 1024 476 926 l 613 1024 l 640 971 z "},"Ǔ":{"ha":842,"x_min":90,"x_max":819,"o":"m 747 335 q 635 78 728 168 q 383 -11 543 -11 q 168 57 246 -11 q 90 250 90 125 q 94 324 90 285 l 113 446 l 164 892 l 299 892 l 225 342 q 221 282 221 308 q 393 107 221 107 q 621 328 596 107 l 683 892 l 819 892 l 760 438 l 747 335 m 713 1167 q 517 976 653 1113 l 482 976 q 324 1167 415 1071 l 365 1219 l 379 1219 q 507 1081 457 1143 q 669 1219 549 1122 l 685 1219 l 713 1167 z "},"ǔ":{"ha":743,"x_min":81,"x_max":697,"o":"m 636 240 q 544 55 622 119 q 332 -10 467 -10 q 147 42 213 -10 q 81 190 81 94 q 85 240 81 214 l 100 346 l 140 696 l 268 696 l 206 260 q 203 224 203 235 q 344 97 203 97 q 521 260 503 97 l 569 696 l 697 696 l 650 342 l 636 240 m 636 971 q 440 781 576 917 l 406 781 q 247 971 339 875 l 289 1024 l 303 1024 q 431 885 381 947 q 593 1024 472 926 l 608 1024 l 636 971 z "},"Ǖ":{"ha":842,"x_min":90,"x_max":819,"o":"m 747 335 q 635 78 728 168 q 383 -11 543 -11 q 168 57 246 -11 q 90 250 90 125 q 94 324 90 285 l 113 446 l 164 892 l 299 892 l 225 342 q 221 282 221 308 q 393 107 221 107 q 621 328 596 107 l 683 892 l 819 892 l 760 438 l 747 335 m 735 1226 l 367 1226 l 357 1238 l 364 1315 l 733 1315 l 743 1306 l 735 1226 m 422 1139 q 486 1074 486 1139 q 468 1023 486 1042 q 418 1004 450 1004 q 370 1022 388 1004 q 353 1069 353 1039 q 372 1120 353 1101 q 422 1139 390 1139 m 649 1139 q 713 1074 713 1139 q 694 1023 713 1042 q 644 1004 675 1004 q 597 1022 614 1004 q 579 1069 579 1039 q 598 1120 579 1101 q 649 1139 617 1139 z "},"ǖ":{"ha":743,"x_min":81,"x_max":697,"o":"m 636 240 q 544 55 622 119 q 332 -10 467 -10 q 147 42 213 -10 q 81 190 81 94 q 85 240 81 214 l 100 346 l 140 696 l 268 696 l 206 260 q 203 224 203 235 q 344 97 203 97 q 521 260 503 97 l 569 696 l 697 696 l 650 342 l 636 240 m 658 1031 l 290 1031 l 281 1042 l 288 1119 l 657 1119 l 667 1110 l 658 1031 m 346 943 q 410 878 410 943 q 392 827 410 846 q 342 808 374 808 q 294 826 311 808 q 276 874 276 843 q 295 924 276 906 q 346 943 314 943 m 572 943 q 636 878 636 943 q 617 827 636 846 q 568 808 599 808 q 520 826 538 808 q 503 874 503 843 q 522 924 503 906 q 572 943 540 943 z "},"Ǘ":{"ha":842,"x_min":90,"x_max":819,"o":"m 747 335 q 635 78 728 168 q 383 -11 543 -11 q 168 57 246 -11 q 90 250 90 125 q 94 324 90 285 l 113 446 l 164 892 l 299 892 l 225 342 q 221 282 221 308 q 393 107 221 107 q 621 328 596 107 l 683 892 l 819 892 l 760 438 l 747 335 m 692 1286 l 685 1272 q 389 1210 546 1239 l 375 1217 l 363 1279 q 658 1376 540 1332 l 671 1371 l 692 1286 m 404 1139 q 468 1074 468 1139 q 449 1023 468 1042 q 399 1004 431 1004 q 335 1069 335 1004 q 353 1120 335 1101 q 404 1139 372 1139 m 631 1139 q 677 1122 660 1139 q 694 1074 694 1104 q 676 1023 694 1042 q 625 1004 657 1004 q 561 1069 561 1004 q 580 1120 561 1101 q 631 1139 599 1139 z "},"ǘ":{"ha":743,"x_min":81,"x_max":697,"o":"m 636 240 q 544 55 622 119 q 332 -10 467 -10 q 147 42 213 -10 q 81 190 81 94 q 85 240 81 214 l 100 346 l 140 696 l 268 696 l 206 260 q 203 224 203 235 q 344 97 203 97 q 521 260 503 97 l 569 696 l 697 696 l 650 342 l 636 240 m 615 1090 l 608 1076 q 313 1014 469 1043 l 299 1021 l 286 1083 q 582 1181 464 1136 l 594 1175 l 615 1090 m 328 943 q 392 878 392 943 q 373 827 392 846 q 322 808 354 808 q 258 874 258 808 q 277 924 258 906 q 328 943 296 943 m 554 943 q 601 926 583 943 q 618 878 618 908 q 599 827 618 846 q 549 808 581 808 q 485 874 485 808 q 503 924 485 906 q 554 943 522 943 z "},"Ǚ":{"ha":842,"x_min":90,"x_max":819,"o":"m 747 335 q 635 78 728 168 q 383 -11 543 -11 q 168 57 246 -11 q 90 250 90 125 q 94 324 90 285 l 113 446 l 164 892 l 299 892 l 225 342 q 221 282 221 308 q 393 107 221 107 q 621 328 596 107 l 683 892 l 819 892 l 760 438 l 747 335 m 724 1299 q 542 1167 624 1236 l 508 1167 q 350 1299 440 1231 l 385 1356 l 399 1356 q 424 1338 415 1344 q 531 1264 483 1299 q 689 1356 588 1299 l 704 1356 l 724 1299 m 408 1139 q 472 1074 472 1139 q 454 1023 472 1042 q 404 1004 436 1004 q 356 1022 374 1004 q 339 1069 339 1039 q 358 1120 339 1101 q 408 1139 376 1139 m 635 1139 q 699 1074 699 1139 q 680 1023 699 1042 q 631 1004 661 1004 q 583 1022 600 1004 q 565 1069 565 1039 q 584 1120 565 1101 q 635 1139 603 1139 z "},"ǚ":{"ha":743,"x_min":81,"x_max":697,"o":"m 636 240 q 544 55 622 119 q 332 -10 467 -10 q 147 42 213 -10 q 81 190 81 94 q 85 240 81 214 l 100 346 l 140 696 l 268 696 l 206 260 q 203 224 203 235 q 344 97 203 97 q 521 260 503 97 l 569 696 l 697 696 l 650 342 l 636 240 m 647 1103 q 465 971 547 1040 l 432 971 q 274 1103 364 1035 l 308 1160 l 322 1160 q 347 1142 339 1149 q 454 1068 407 1103 q 613 1160 511 1103 l 628 1160 l 647 1103 m 332 943 q 396 878 396 943 q 378 827 396 846 q 328 808 360 808 q 280 826 297 808 q 263 874 263 843 q 281 924 263 906 q 332 943 300 943 m 558 943 q 622 878 622 943 q 603 827 622 846 q 554 808 585 808 q 506 826 524 808 q 489 874 489 843 q 508 924 489 906 q 558 943 526 943 z "},"Ǜ":{"ha":842,"x_min":90,"x_max":819,"o":"m 747 335 q 635 78 728 168 q 383 -11 543 -11 q 168 57 246 -11 q 90 250 90 125 q 94 324 90 285 l 113 446 l 164 892 l 299 892 l 225 342 q 221 282 221 308 q 393 107 221 107 q 621 328 596 107 l 683 892 l 819 892 l 760 438 l 747 335 m 421 1376 q 704 1279 528 1333 l 683 1217 l 668 1210 q 382 1272 507 1242 l 376 1286 l 406 1371 l 421 1376 m 403 1139 q 446 1124 431 1139 q 461 1081 461 1108 q 440 1025 461 1046 q 385 1004 419 1004 q 326 1063 326 1004 q 347 1118 326 1097 q 403 1139 368 1139 m 629 1139 q 672 1124 657 1139 q 688 1081 688 1108 q 667 1025 688 1046 q 611 1004 646 1004 q 553 1063 553 1004 q 574 1118 553 1097 q 629 1139 594 1139 z "},"ǜ":{"ha":743,"x_min":81,"x_max":697,"o":"m 636 240 q 544 55 622 119 q 332 -10 467 -10 q 147 42 213 -10 q 81 190 81 94 q 85 240 81 214 l 100 346 l 140 696 l 268 696 l 206 260 q 203 224 203 235 q 344 97 203 97 q 521 260 503 97 l 569 696 l 697 696 l 650 342 l 636 240 m 344 1181 q 628 1083 451 1138 l 607 1021 l 592 1014 q 306 1076 431 1046 l 300 1090 l 329 1175 l 344 1181 m 326 943 q 369 928 354 943 q 385 885 385 913 q 364 829 385 850 q 308 808 343 808 q 250 867 250 808 q 271 922 250 901 q 326 943 292 943 m 553 943 q 596 928 581 943 q 611 885 611 913 q 590 829 611 850 q 535 808 569 808 q 476 867 476 808 q 497 922 476 901 q 553 943 518 943 z "},"Ǫ":{"ha":858,"x_min":60,"x_max":835,"o":"m 524 -67 q 500 -133 500 -103 q 554 -187 500 -187 q 647 -139 599 -187 l 656 -139 l 671 -203 q 533 -274 597 -274 q 449 -241 481 -274 q 417 -158 417 -208 q 454 -51 417 -104 l 489 -1 q 389 -11 444 -11 q 147 85 233 -11 q 60 357 60 182 q 176 757 60 613 q 504 901 292 901 q 748 808 661 901 q 835 540 835 714 q 772 222 835 353 q 588 31 708 90 l 524 -67 m 200 364 q 249 164 200 229 q 401 99 299 99 q 690 526 690 99 q 640 725 690 661 q 488 789 590 789 q 200 364 200 789 z "},"ǫ":{"ha":756,"x_min":56,"x_max":708,"o":"m 426 -67 q 403 -133 403 -103 q 457 -187 403 -187 q 550 -139 501 -187 l 558 -139 l 574 -203 q 436 -274 500 -274 q 351 -241 383 -274 q 319 -158 319 -208 q 357 -51 319 -104 l 388 -7 q 336 -10 354 -10 q 128 67 200 -10 q 56 297 56 143 q 99 510 56 418 q 227 653 143 601 q 429 704 311 704 q 636 629 564 704 q 708 401 708 554 q 649 159 708 261 q 481 15 589 57 l 426 -67 m 188 304 q 225 141 188 189 q 350 93 263 93 q 575 389 575 93 q 537 550 575 501 q 411 599 499 599 q 188 304 188 599 z "},"Ǻ":{"ha":788,"x_min":-15,"x_max":722,"o":"m 351 1161 q 644 1264 507 1210 l 658 1258 l 679 1175 l 674 1163 q 450 1108 575 1135 l 379 1092 l 365 1100 l 351 1161 m 585 0 l 576 96 l 554 224 l 372 228 l 211 225 l 154 103 l 119 0 l -15 0 l 394 858 q 360 949 360 889 q 392 1038 360 1006 q 483 1069 425 1069 q 573 1038 542 1069 q 604 953 604 1006 q 556 851 604 885 l 722 0 l 585 0 m 481 1007 q 421 951 421 1007 q 482 890 421 890 q 543 947 543 890 q 481 1007 543 1007 m 464 746 l 453 746 l 263 336 l 396 333 l 535 336 l 464 746 z "},"ǻ":{"ha":696,"x_min":-10,"x_max":615,"o":"m 486 0 l 482 83 l 467 164 l 317 165 l 183 164 l 147 90 l 115 0 l -10 0 l 328 696 l 476 696 l 615 0 l 486 0 m 388 574 l 379 574 l 232 267 l 338 265 l 447 267 l 388 574 m 615 1111 l 610 1100 q 378 1043 556 1085 q 314 1029 336 1035 l 301 1038 l 288 1099 q 581 1201 443 1147 l 594 1196 l 615 1111 m 419 1007 q 508 975 478 1007 q 539 890 539 943 q 504 799 539 832 q 414 767 469 767 q 328 798 361 767 q 296 886 296 829 q 328 975 296 943 q 419 1007 361 1007 m 417 944 q 357 888 357 944 q 418 828 357 828 q 478 885 478 828 q 417 944 478 944 z "},"Ǽ":{"ha":1081,"x_min":-61,"x_max":1038,"o":"m 1014 0 l 531 0 l 536 99 l 535 343 l 225 268 l 126 104 l 76 0 l -61 0 l 485 892 l 1015 892 l 1022 879 l 999 774 l 788 781 l 664 781 l 664 478 l 947 543 l 957 535 l 954 436 l 665 374 l 665 108 l 813 108 l 1031 117 l 1038 106 l 1014 0 m 531 756 l 522 756 l 301 393 l 533 447 l 531 756 m 935 1128 l 929 1114 q 650 999 821 1065 l 635 1004 l 611 1063 q 886 1211 792 1154 l 900 1207 l 935 1128 z "},"ǽ":{"ha":944,"x_min":-39,"x_max":889,"o":"m 868 0 l 456 0 l 463 82 l 460 250 l 186 185 l 124 88 l 82 0 l -39 0 l 408 694 l 864 694 l 871 685 l 847 589 l 671 597 l 569 597 l 574 374 l 808 429 l 817 421 l 814 324 l 575 276 l 578 100 l 699 100 l 882 107 l 889 97 l 868 0 m 453 576 l 443 576 l 264 301 l 457 346 l 453 576 m 789 963 l 785 949 q 538 776 649 850 l 524 778 l 489 831 q 725 1036 640 957 l 738 1035 l 789 963 z "},"Ǿ":{"ha":860,"x_min":60,"x_max":835,"o":"m 721 833 q 835 540 835 740 q 783 247 835 371 q 631 56 731 124 q 389 -11 531 -11 q 249 14 311 -11 l 156 -149 l 79 -118 l 75 -106 l 171 61 q 60 357 60 157 q 176 757 60 613 q 504 901 292 901 q 640 879 582 901 l 715 1011 l 790 981 l 796 965 l 721 833 m 200 364 q 239 179 200 244 l 579 772 q 488 789 539 789 q 200 364 200 789 m 401 99 q 690 526 690 99 q 650 711 690 646 l 308 117 q 401 99 346 99 m 683 1131 l 678 1117 q 399 1001 569 1068 l 383 1007 l 360 1065 q 635 1214 540 1157 l 649 1210 l 683 1131 z "},"ǿ":{"ha":756,"x_min":54,"x_max":708,"o":"m 619 644 q 708 401 708 571 q 664 188 708 282 q 535 42 619 94 q 336 -10 451 -10 q 222 7 272 -10 l 131 -139 l 57 -94 l 54 -81 l 139 56 q 56 297 56 132 q 99 510 56 418 q 227 653 143 601 q 429 704 311 704 q 535 690 492 704 l 611 811 l 683 767 l 688 753 l 619 644 m 188 304 q 210 168 188 214 l 474 592 q 411 599 443 599 q 188 304 188 599 m 350 93 q 575 389 575 93 q 549 531 575 482 l 281 103 q 350 93 308 93 m 578 965 l 574 951 q 326 779 438 853 l 313 781 l 278 833 q 514 1039 429 960 l 526 1038 l 578 965 z "},"Ș":{"ha":644,"x_min":21,"x_max":635,"o":"m 426 900 q 635 857 532 900 l 597 732 l 574 724 q 406 790 499 790 q 292 753 335 790 q 249 663 249 715 q 283 585 249 617 q 389 510 317 553 q 491 442 451 472 q 558 366 531 411 q 586 258 586 321 q 545 122 586 183 q 431 25 504 61 q 265 -11 357 -11 q 21 50 132 -11 l 56 185 l 72 193 q 172 122 115 146 q 282 97 229 97 q 401 136 356 97 q 447 232 447 175 q 413 313 447 281 q 306 389 378 344 q 206 455 244 425 q 141 530 168 485 q 114 636 114 575 q 155 770 114 710 q 267 865 196 831 q 426 900 338 900 m 290 -71 q 344 -164 344 -110 q 214 -351 344 -257 l 174 -314 l 172 -304 q 243 -189 243 -246 q 203 -122 243 -151 l 203 -111 q 290 -71 249 -83 z "},"ș":{"ha":582,"x_min":32,"x_max":536,"o":"m 363 703 q 536 669 457 703 l 503 547 l 482 542 q 344 606 414 606 q 259 576 292 606 q 226 510 226 547 q 254 453 226 475 q 339 406 282 432 q 426 358 393 379 q 482 303 458 338 q 506 217 506 268 q 474 108 506 160 q 383 23 443 56 q 238 -10 322 -10 q 32 36 124 -10 l 61 164 l 78 172 q 163 110 114 132 q 256 88 213 88 q 342 117 307 88 q 378 186 378 147 q 351 243 378 221 q 264 293 324 265 q 178 340 210 319 q 122 397 146 361 q 99 483 99 432 q 131 592 99 542 q 224 672 164 642 q 363 703 283 703 m 274 -71 q 328 -164 328 -110 q 197 -351 328 -257 l 157 -314 l 156 -304 q 226 -189 226 -246 q 186 -122 226 -151 l 186 -111 q 274 -71 232 -83 z "},"Ț":{"ha":660,"x_min":85,"x_max":706,"o":"m 682 775 l 531 783 l 458 783 l 389 279 l 361 0 l 224 0 l 267 268 l 322 783 l 250 783 l 93 775 l 85 788 l 110 892 l 699 892 l 706 879 l 682 775 m 297 -71 q 351 -164 351 -110 q 221 -351 351 -257 l 181 -314 l 179 -304 q 250 -189 250 -246 q 210 -122 250 -151 l 210 -111 q 297 -71 256 -83 z "},"ț":{"ha":593,"x_min":72,"x_max":600,"o":"m 578 581 l 450 590 l 393 590 l 342 219 l 321 0 l 194 0 l 225 208 l 271 590 l 213 590 l 81 581 l 72 592 l 94 696 l 593 696 l 600 685 l 578 581 m 329 -71 q 383 -164 383 -110 q 253 -351 383 -257 l 213 -314 l 211 -304 q 282 -189 282 -246 q 242 -122 282 -151 l 242 -111 q 329 -71 288 -83 z "},"ȷ":{"ha":414,"x_min":-6,"x_max":326,"o":"m 264 229 l 253 131 q 193 -12 242 43 q 35 -114 144 -67 l -6 -44 l -4 -32 q 97 40 65 3 q 135 133 128 78 l 146 215 l 188 599 l 60 597 l 53 607 l 72 696 l 326 696 l 264 229 z "},"ˆ":{"ha":542,"x_min":133,"x_max":521,"o":"m 133 781 q 332 971 207 846 l 367 971 q 521 781 442 868 l 479 728 l 465 728 q 339 867 385 808 q 176 728 288 818 l 161 728 l 133 781 z "},"ˇ":{"ha":542,"x_min":149,"x_max":538,"o":"m 538 915 q 342 725 478 861 l 307 725 q 149 915 240 819 l 190 968 l 204 968 q 332 829 282 892 q 494 968 374 871 l 510 968 l 538 915 z "},"ˉ":{"ha":542,"x_min":131,"x_max":539,"o":"m 532 806 l 140 806 l 131 817 l 139 893 l 531 893 l 539 883 l 532 806 z "},"˘":{"ha":542,"x_min":154,"x_max":526,"o":"m 526 897 q 450 777 500 821 q 328 733 400 733 q 154 897 171 733 l 193 946 l 214 946 q 332 829 229 829 q 478 946 435 829 l 497 946 l 526 897 z "},"˙":{"ha":542,"x_min":263,"x_max":411,"o":"m 339 936 q 392 917 374 936 q 411 864 411 897 q 390 806 411 828 q 335 785 369 785 q 263 858 263 785 q 283 915 263 894 q 339 936 304 936 z "},"˚":{"ha":542,"x_min":215,"x_max":458,"o":"m 339 981 q 428 949 397 981 q 458 864 458 917 q 424 773 458 806 q 333 740 389 740 q 248 772 281 740 q 215 860 215 803 q 248 949 215 917 q 339 981 281 981 m 335 918 q 276 861 276 918 q 338 801 276 801 q 397 858 397 801 q 335 918 397 918 z "},"˛":{"ha":542,"x_min":82,"x_max":336,"o":"m 189 -67 q 165 -133 165 -103 q 219 -187 165 -187 q 313 -139 264 -187 l 321 -139 l 336 -203 q 199 -274 263 -274 q 114 -241 146 -274 q 82 -158 82 -208 q 119 -51 82 -104 l 206 74 l 281 74 l 189 -67 z "},"˜":{"ha":542,"x_min":107,"x_max":561,"o":"m 561 889 l 472 783 l 458 778 q 340 807 421 783 q 243 829 257 829 q 218 819 231 829 q 181 782 206 808 l 161 761 l 149 761 l 107 803 l 107 815 l 196 921 l 211 925 q 329 899 250 919 q 426 876 403 876 q 453 888 439 876 q 483 916 467 899 q 508 943 499 933 l 521 943 l 561 901 l 561 889 z "},"˝":{"ha":542,"x_min":106,"x_max":564,"o":"m 106 760 q 288 982 194 861 l 300 983 l 363 938 l 363 925 q 163 724 271 828 l 149 721 l 106 760 m 307 760 q 490 982 407 872 l 501 983 l 564 938 l 564 925 q 364 724 472 828 l 351 721 l 307 760 z "},"̃":{"ha":0,"x_min":107,"x_max":561,"o":"m 561 889 l 471 782 l 457 778 q 342 806 440 779 q 243 829 263 829 q 218 819 231 829 q 181 782 206 808 l 161 761 l 149 761 l 107 803 l 107 815 l 197 921 l 213 926 q 329 899 238 922 q 426 876 413 876 q 453 888 439 876 q 483 916 467 899 q 508 943 499 933 l 521 943 l 561 901 l 561 889 z "},"̣":{"ha":0,"x_min":135,"x_max":283,"o":"m 213 -92 q 265 -111 246 -92 q 283 -164 283 -131 q 263 -222 283 -200 q 207 -243 242 -243 q 135 -169 135 -243 q 156 -112 135 -133 q 213 -92 176 -92 z "},"̦":{"ha":0,"x_min":114,"x_max":286,"o":"m 232 -76 q 286 -169 286 -115 q 156 -357 286 -262 l 115 -319 l 114 -310 q 185 -194 185 -251 q 144 -128 185 -157 l 144 -117 q 232 -76 190 -89 z "},"Δ":{"ha":781,"x_min":-22,"x_max":715,"o":"m -22 0 l 392 892 l 551 892 l 715 0 l -22 0 m 153 111 l 565 111 l 457 756 l 446 756 l 153 111 z "},"Ω":{"ha":997,"x_min":8,"x_max":928,"o":"m 567 901 q 758 856 681 901 q 874 734 836 811 q 913 561 913 657 q 854 322 913 442 q 686 110 796 203 l 689 104 l 811 104 l 921 115 l 928 107 l 897 -6 l 758 0 l 578 0 l 526 -3 l 521 3 l 532 106 q 707 309 644 189 q 769 550 769 429 q 717 724 769 658 q 556 790 665 790 q 404 746 467 790 q 310 624 342 701 q 279 451 279 547 q 314 259 279 353 q 413 106 349 165 l 401 3 l 393 -3 l 342 0 l 138 0 l 15 -4 l 8 6 l 39 114 l 154 104 l 260 104 l 261 110 q 169 266 200 175 q 138 453 138 357 q 188 676 138 574 q 335 840 238 778 q 567 901 432 901 z "},"μ":{"ha":678,"x_min":24,"x_max":618,"o":"m 549 154 l 543 4 l 415 -6 l 457 288 l 443 288 q 324 109 378 178 q 211 -6 271 40 l 196 -6 q 171 1 188 -4 l 156 -107 l 150 -260 l 24 -269 l 131 496 l 136 636 l 261 644 l 196 178 q 222 131 190 131 q 331 227 261 131 q 488 507 401 324 l 493 636 l 618 644 l 549 154 z "},"π":{"ha":879,"x_min":32,"x_max":869,"o":"m 657 153 q 654 128 654 133 q 685 90 654 90 q 736 104 706 90 l 746 97 l 721 21 q 632 -7 669 -7 q 532 103 532 -7 q 533 136 532 125 l 590 586 l 376 586 l 339 281 l 290 -128 l 161 -128 l 214 269 l 251 586 l 210 586 q 171 570 192 586 q 111 518 150 554 l 81 490 l 65 490 l 32 542 l 33 557 l 164 686 l 186 694 l 701 694 l 861 697 l 869 685 l 846 585 l 713 586 l 657 153 z "},"Ẁ":{"ha":1193,"x_min":99,"x_max":1256,"o":"m 707 0 l 617 488 l 606 488 l 389 0 l 244 0 l 99 892 l 232 892 l 235 799 l 340 146 l 350 146 l 582 669 l 542 892 l 682 892 l 689 785 l 797 146 l 807 146 l 1094 790 l 1128 892 l 1256 892 l 849 0 l 707 0 m 551 1214 q 826 1067 674 1143 l 803 1008 l 788 1003 q 508 1118 601 1076 l 503 1132 l 538 1211 l 551 1214 z "},"ẁ":{"ha":1035,"x_min":89,"x_max":1058,"o":"m 599 0 l 521 356 l 514 356 l 346 0 l 213 0 l 89 696 l 214 696 l 215 614 l 300 133 l 308 133 l 490 524 l 460 696 l 589 696 l 592 603 l 681 133 l 692 133 l 911 608 l 940 696 l 1058 696 l 731 0 l 599 0 m 463 1036 q 699 831 551 950 l 663 778 l 649 776 q 401 949 538 850 l 399 963 l 449 1035 l 463 1036 z "},"Ẃ":{"ha":1193,"x_min":99,"x_max":1256,"o":"m 707 0 l 617 488 l 606 488 l 389 0 l 244 0 l 99 892 l 232 892 l 235 799 l 340 146 l 350 146 l 582 669 l 542 892 l 682 892 l 689 785 l 797 146 l 807 146 l 1094 790 l 1128 892 l 1256 892 l 849 0 l 707 0 m 839 1128 l 833 1114 q 554 999 725 1065 l 539 1004 l 515 1063 q 790 1211 696 1154 l 804 1207 l 839 1128 z "},"ẃ":{"ha":1035,"x_min":89,"x_max":1058,"o":"m 599 0 l 521 356 l 514 356 l 346 0 l 213 0 l 89 696 l 214 696 l 215 614 l 300 133 l 308 133 l 490 524 l 460 696 l 589 696 l 592 603 l 681 133 l 692 133 l 911 608 l 940 696 l 1058 696 l 731 0 l 599 0 m 715 963 l 711 949 q 464 776 575 850 l 450 778 l 415 831 q 651 1036 567 957 l 664 1035 l 715 963 z "},"Ẅ":{"ha":1193,"x_min":99,"x_max":1256,"o":"m 707 0 l 617 488 l 606 488 l 389 0 l 244 0 l 99 892 l 232 892 l 235 799 l 340 146 l 350 146 l 582 669 l 542 892 l 682 892 l 689 785 l 797 146 l 807 146 l 1094 790 l 1128 892 l 1256 892 l 849 0 l 707 0 m 553 1171 q 601 1152 583 1171 q 618 1103 618 1133 q 599 1048 618 1068 q 547 1028 579 1028 q 479 1097 479 1028 q 499 1151 479 1131 q 553 1171 518 1171 m 781 1169 q 828 1151 811 1169 q 846 1101 846 1133 q 827 1047 846 1067 q 776 1026 808 1026 q 708 1096 708 1026 q 728 1149 708 1129 q 781 1169 747 1169 z "},"ẅ":{"ha":1035,"x_min":89,"x_max":1058,"o":"m 599 0 l 521 356 l 514 356 l 346 0 l 213 0 l 89 696 l 214 696 l 215 614 l 300 133 l 308 133 l 490 524 l 460 696 l 589 696 l 592 603 l 681 133 l 692 133 l 911 608 l 940 696 l 1058 696 l 731 0 l 599 0 m 453 975 q 501 956 483 975 q 518 907 518 938 q 499 852 518 872 q 447 832 479 832 q 379 901 379 832 q 399 955 379 935 q 453 975 418 975 m 681 974 q 728 956 711 974 q 746 906 746 938 q 727 851 746 871 q 676 831 708 831 q 608 900 608 831 q 628 953 608 933 q 681 974 647 974 z "},"ẞ":{"ha":861,"x_min":57,"x_max":828,"o":"m 513 900 q 824 811 657 900 l 828 788 l 589 511 q 721 441 672 474 q 794 366 769 408 q 819 263 819 324 q 778 119 819 181 q 667 23 738 57 q 515 -11 597 -11 q 294 50 396 -11 l 329 185 l 346 193 q 440 122 389 147 q 538 97 490 97 q 641 137 600 97 q 682 236 682 176 q 623 346 682 301 q 417 442 564 390 l 415 467 l 653 746 q 492 789 572 789 q 335 735 393 789 q 264 583 276 682 l 222 281 l 194 0 l 57 0 l 99 264 l 133 585 q 192 751 143 679 q 324 861 242 822 q 513 900 407 900 z "},"Ạ":{"ha":779,"x_min":-22,"x_max":715,"o":"m 578 0 l 568 99 l 546 226 l 367 231 l 204 228 l 149 104 l 113 0 l -22 0 l 392 892 l 551 892 l 715 0 l 578 0 m 457 756 l 446 756 l 257 340 l 390 338 l 528 339 l 457 756 m 336 -92 q 388 -111 369 -92 q 407 -164 407 -131 q 386 -222 407 -200 q 331 -243 365 -243 q 258 -169 258 -243 q 279 -112 258 -133 q 336 -92 300 -92 z "},"ạ":{"ha":696,"x_min":-10,"x_max":615,"o":"m 486 0 l 482 83 l 467 164 l 317 165 l 183 164 l 147 90 l 115 0 l -10 0 l 328 696 l 476 696 l 615 0 l 486 0 m 388 574 l 379 574 l 232 267 l 338 265 l 447 267 l 388 574 m 313 -92 q 365 -111 346 -92 q 383 -164 383 -131 q 363 -222 383 -200 q 307 -243 342 -243 q 235 -169 235 -243 q 256 -112 235 -133 q 313 -92 276 -92 z "},"Ả":{"ha":779,"x_min":-22,"x_max":715,"o":"m 578 0 l 568 99 l 546 226 l 367 231 l 204 228 l 149 104 l 113 0 l -22 0 l 392 892 l 551 892 l 715 0 l 578 0 m 457 756 l 446 756 l 257 340 l 390 338 l 528 339 l 457 756 m 474 1254 q 541 1230 514 1254 q 568 1169 568 1206 q 551 1119 568 1143 q 494 1061 535 1094 l 524 1011 l 469 981 l 421 1063 q 490 1156 490 1115 q 453 1185 490 1185 q 371 1151 411 1185 l 344 1192 q 474 1254 404 1254 z "},"ả":{"ha":696,"x_min":-10,"x_max":615,"o":"m 486 0 l 482 83 l 467 164 l 317 165 l 183 164 l 147 90 l 115 0 l -10 0 l 328 696 l 476 696 l 615 0 l 486 0 m 388 574 l 379 574 l 232 267 l 338 265 l 447 267 l 388 574 m 404 1058 q 472 1034 444 1058 q 499 974 499 1010 q 482 923 499 947 q 425 865 465 899 l 454 815 l 400 785 l 351 867 q 421 960 421 919 q 383 989 421 989 q 301 956 342 989 l 275 996 q 404 1058 335 1058 z "},"Ấ":{"ha":779,"x_min":-22,"x_max":735,"o":"m 578 0 l 568 99 l 546 226 l 367 231 l 204 228 l 149 104 l 113 0 l -22 0 l 392 892 l 551 892 l 715 0 l 578 0 m 457 756 l 446 756 l 257 340 l 390 338 l 528 339 l 457 756 m 735 1293 l 615 1144 l 604 1144 l 557 1181 l 654 1333 l 665 1338 l 732 1306 l 735 1293 m 508 1176 q 667 1044 576 1113 l 632 988 l 618 988 q 486 1079 557 1028 l 381 1018 l 328 988 l 313 988 l 293 1044 q 475 1176 383 1101 l 508 1176 z "},"ấ":{"ha":696,"x_min":-10,"x_max":665,"o":"m 486 0 l 482 83 l 467 164 l 317 165 l 183 164 l 147 90 l 115 0 l -10 0 l 328 696 l 476 696 l 615 0 l 486 0 m 388 574 l 379 574 l 232 267 l 338 265 l 447 267 l 388 574 m 665 1097 l 546 949 l 535 949 l 488 985 l 585 1138 l 596 1142 l 663 1110 l 665 1097 m 439 981 q 597 849 507 917 l 563 792 l 549 792 q 417 883 488 832 l 311 822 l 258 792 l 243 792 l 224 849 q 406 981 314 906 l 439 981 z "},"Ầ":{"ha":779,"x_min":-22,"x_max":715,"o":"m 578 0 l 568 99 l 546 226 l 367 231 l 204 228 l 149 104 l 113 0 l -22 0 l 392 892 l 551 892 l 715 0 l 578 0 m 457 756 l 446 756 l 257 340 l 390 338 l 528 339 l 457 756 m 688 1181 l 640 1144 l 629 1144 l 510 1293 l 511 1306 l 579 1338 l 590 1333 l 688 1181 m 514 1175 q 671 1043 578 1113 l 638 986 l 624 986 q 492 1078 540 1042 l 386 1017 l 333 986 l 318 986 l 299 1043 q 481 1175 389 1100 l 514 1175 z "},"ầ":{"ha":696,"x_min":-10,"x_max":618,"o":"m 486 0 l 482 83 l 467 164 l 317 165 l 183 164 l 147 90 l 115 0 l -10 0 l 328 696 l 476 696 l 615 0 l 486 0 m 388 574 l 379 574 l 232 267 l 338 265 l 447 267 l 388 574 m 618 985 l 571 949 l 560 949 l 440 1097 l 442 1110 l 510 1142 l 521 1138 l 618 985 m 444 979 q 601 847 508 917 l 568 790 l 554 790 q 422 882 471 846 l 317 821 l 264 790 l 249 790 l 229 847 q 411 979 319 904 l 444 979 z "},"Ẩ":{"ha":779,"x_min":-22,"x_max":715,"o":"m 578 0 l 568 99 l 546 226 l 367 231 l 204 228 l 149 104 l 113 0 l -22 0 l 392 892 l 551 892 l 715 0 l 578 0 m 457 756 l 446 756 l 257 340 l 390 338 l 528 339 l 457 756 m 618 1396 q 683 1372 657 1396 q 708 1314 708 1349 q 692 1266 708 1289 q 639 1211 676 1243 l 667 1164 l 614 1135 l 568 1213 q 635 1301 635 1264 q 599 1329 635 1329 q 521 1297 560 1329 l 496 1336 q 618 1396 553 1396 m 511 1176 q 669 1044 579 1113 l 635 988 l 621 988 q 489 1079 560 1028 l 383 1018 l 331 988 l 315 988 l 296 1044 q 478 1176 386 1101 l 511 1176 z "},"ẩ":{"ha":696,"x_min":-10,"x_max":639,"o":"m 486 0 l 482 83 l 467 164 l 317 165 l 183 164 l 147 90 l 115 0 l -10 0 l 328 696 l 476 696 l 615 0 l 486 0 m 388 574 l 379 574 l 232 267 l 338 265 l 447 267 l 388 574 m 549 1200 q 613 1176 588 1200 q 639 1118 639 1153 q 623 1070 639 1093 q 569 1015 607 1047 l 597 968 l 544 939 l 499 1017 q 565 1106 565 1068 q 529 1133 565 1133 q 451 1101 490 1133 l 426 1140 q 549 1200 483 1200 m 442 981 q 600 849 510 917 l 565 792 l 551 792 q 419 883 490 832 l 314 822 l 261 792 l 246 792 l 226 849 q 408 981 317 906 l 442 981 z "},"Ẫ":{"ha":779,"x_min":-22,"x_max":750,"o":"m 578 0 l 568 99 l 546 226 l 367 231 l 204 228 l 149 104 l 113 0 l -22 0 l 392 892 l 551 892 l 715 0 l 578 0 m 457 756 l 446 756 l 257 340 l 390 338 l 528 339 l 457 756 m 750 1317 l 668 1215 l 654 1210 q 546 1238 622 1213 q 453 1260 468 1260 q 428 1249 440 1260 q 401 1221 415 1238 q 378 1196 386 1204 l 365 1196 l 326 1236 l 326 1247 l 410 1347 l 424 1351 q 533 1325 458 1346 q 624 1304 607 1304 q 650 1316 636 1304 q 679 1345 664 1328 q 700 1369 694 1363 l 713 1369 l 750 1329 l 750 1317 m 526 1176 q 683 1044 590 1114 l 650 989 l 636 989 q 504 1079 564 1035 q 346 989 451 1047 l 331 989 l 311 1044 q 493 1176 401 1101 l 526 1176 z "},"ẫ":{"ha":696,"x_min":-10,"x_max":681,"o":"m 486 0 l 482 83 l 467 164 l 317 165 l 183 164 l 147 90 l 115 0 l -10 0 l 328 696 l 476 696 l 615 0 l 486 0 m 388 574 l 379 574 l 232 267 l 338 265 l 447 267 l 388 574 m 681 1121 l 599 1019 l 585 1014 q 476 1042 553 1017 q 383 1064 399 1064 q 358 1053 371 1064 q 331 1025 346 1042 q 308 1000 317 1008 l 296 1000 l 257 1040 l 257 1051 l 340 1151 l 354 1156 q 464 1129 389 1150 q 554 1108 538 1108 q 581 1120 567 1108 q 610 1149 594 1132 q 631 1174 625 1167 l 643 1174 l 681 1133 l 681 1121 m 457 981 q 614 849 521 918 l 581 793 l 567 793 q 435 883 494 839 q 276 793 382 851 l 261 793 l 242 849 q 424 981 332 906 l 457 981 z "},"Ậ":{"ha":779,"x_min":-22,"x_max":715,"o":"m 306 1071 q 488 1203 396 1128 l 521 1203 q 679 1071 589 1139 l 644 1014 l 631 1014 q 499 1106 569 1054 l 393 1044 l 340 1014 l 325 1014 l 306 1071 m 578 0 l 569 99 l 547 226 l 367 231 l 204 228 l 149 104 l 113 0 l -22 0 l 392 892 l 551 892 l 715 0 l 578 0 m 457 756 l 446 756 l 257 340 l 390 338 l 528 339 l 457 756 m 336 -92 q 388 -111 369 -92 q 407 -164 407 -131 q 386 -222 407 -200 q 331 -243 365 -243 q 258 -169 258 -243 q 279 -112 258 -133 q 336 -92 300 -92 z "},"ậ":{"ha":696,"x_min":-8,"x_max":617,"o":"m 226 836 q 425 1026 300 901 l 460 1026 q 614 836 535 924 l 572 783 l 558 783 q 432 922 478 864 q 269 783 381 874 l 254 783 l 226 836 m 488 0 l 483 83 l 468 164 l 317 165 l 185 164 l 149 90 l 117 0 l -8 0 l 329 696 l 478 696 l 617 0 l 488 0 m 389 574 l 381 574 l 233 267 l 338 265 l 449 267 l 389 574 m 313 -92 q 365 -111 346 -92 q 383 -164 383 -131 q 363 -222 383 -200 q 307 -243 342 -243 q 235 -169 235 -243 q 256 -112 235 -133 q 313 -92 276 -92 z "},"Ắ":{"ha":779,"x_min":-22,"x_max":715,"o":"m 578 0 l 568 99 l 546 226 l 367 231 l 204 228 l 149 104 l 113 0 l -22 0 l 392 892 l 551 892 l 715 0 l 578 0 m 457 756 l 446 756 l 257 340 l 390 338 l 528 339 l 457 756 m 631 1286 q 488 1146 568 1222 l 475 1143 l 431 1181 q 554 1339 496 1258 l 567 1340 l 628 1299 l 631 1286 m 681 1108 q 489 976 619 976 q 368 1010 415 976 q 307 1108 321 1044 l 347 1154 l 368 1154 q 490 1072 390 1072 q 632 1154 586 1072 l 651 1154 l 681 1108 z "},"ắ":{"ha":696,"x_min":-10,"x_max":615,"o":"m 486 0 l 482 83 l 467 164 l 317 165 l 183 164 l 147 90 l 115 0 l -10 0 l 328 696 l 476 696 l 615 0 l 486 0 m 388 574 l 379 574 l 232 267 l 338 265 l 447 267 l 388 574 m 561 1090 q 418 950 499 1026 l 406 947 l 361 985 q 485 1143 426 1063 l 497 1144 l 558 1103 l 561 1090 m 611 913 q 419 781 550 781 q 299 815 346 781 q 238 913 251 849 l 278 958 l 299 958 q 421 876 321 876 q 563 958 517 876 l 582 958 l 611 913 z "},"Ằ":{"ha":779,"x_min":-22,"x_max":715,"o":"m 578 0 l 568 99 l 546 226 l 367 231 l 204 228 l 149 104 l 113 0 l -22 0 l 392 892 l 551 892 l 715 0 l 578 0 m 457 756 l 446 756 l 257 340 l 390 338 l 528 339 l 457 756 m 497 1146 q 357 1286 403 1238 l 357 1299 l 419 1340 l 432 1339 q 556 1181 490 1258 l 511 1143 l 497 1146 m 682 1108 q 490 975 622 975 q 369 1010 417 975 q 308 1108 322 1044 l 349 1153 l 369 1153 q 492 1071 392 1071 q 633 1153 588 1071 l 653 1153 l 682 1108 z "},"ằ":{"ha":696,"x_min":-10,"x_max":615,"o":"m 486 0 l 482 83 l 467 164 l 317 165 l 183 164 l 147 90 l 115 0 l -10 0 l 328 696 l 476 696 l 615 0 l 486 0 m 388 574 l 379 574 l 232 267 l 338 265 l 447 267 l 388 574 m 428 950 q 288 1090 333 1042 l 288 1103 l 350 1144 l 363 1143 q 486 985 421 1063 l 442 947 l 428 950 m 613 913 q 421 779 553 779 q 300 814 347 779 q 239 913 253 849 l 279 957 l 300 957 q 422 875 322 875 q 564 957 518 875 l 583 957 l 613 913 z "},"Ẳ":{"ha":779,"x_min":-22,"x_max":715,"o":"m 578 0 l 568 99 l 546 226 l 367 231 l 204 228 l 149 104 l 113 0 l -22 0 l 392 892 l 551 892 l 715 0 l 578 0 m 457 756 l 446 756 l 257 340 l 390 338 l 528 339 l 457 756 m 493 1413 q 561 1388 533 1413 q 589 1328 589 1364 q 572 1277 589 1301 q 515 1219 556 1253 l 544 1169 l 490 1139 l 442 1221 q 511 1314 511 1274 q 474 1343 511 1343 q 390 1310 432 1343 l 365 1350 q 493 1413 425 1413 m 681 1110 q 489 978 619 978 q 368 1012 415 978 q 307 1110 321 1046 l 347 1156 l 368 1156 q 490 1074 390 1074 q 632 1156 586 1074 l 651 1156 l 681 1110 z "},"ẳ":{"ha":696,"x_min":-10,"x_max":615,"o":"m 486 0 l 482 83 l 467 164 l 317 165 l 183 164 l 147 90 l 115 0 l -10 0 l 328 696 l 476 696 l 615 0 l 486 0 m 388 574 l 379 574 l 232 267 l 338 265 l 447 267 l 388 574 m 424 1217 q 492 1192 464 1217 q 519 1132 519 1168 q 503 1081 519 1106 q 446 1024 486 1057 l 475 974 l 421 943 l 372 1025 q 442 1118 442 1078 q 404 1147 442 1147 q 321 1114 363 1147 l 296 1154 q 424 1217 356 1217 m 611 914 q 419 782 550 782 q 299 816 346 782 q 238 914 251 850 l 278 960 l 299 960 q 421 878 321 878 q 563 960 517 878 l 582 960 l 611 914 z "},"Ẵ":{"ha":779,"x_min":-22,"x_max":726,"o":"m 578 0 l 568 99 l 546 226 l 367 231 l 204 228 l 149 104 l 113 0 l -22 0 l 392 892 l 551 892 l 715 0 l 578 0 m 457 756 l 446 756 l 257 340 l 390 338 l 528 339 l 457 756 m 726 1318 l 644 1217 l 631 1211 q 524 1238 604 1214 q 429 1260 443 1260 q 405 1249 417 1260 q 378 1222 393 1239 q 354 1196 363 1206 l 342 1196 l 303 1236 l 303 1249 l 386 1349 l 400 1353 q 510 1326 426 1350 q 601 1304 588 1304 q 657 1346 618 1304 q 678 1369 663 1354 l 689 1369 l 726 1331 l 726 1318 m 661 1106 q 585 1010 633 1043 q 475 976 538 976 q 359 1010 404 976 q 299 1106 314 1044 l 338 1149 l 358 1149 q 476 1069 379 1069 q 613 1149 572 1069 l 633 1149 l 661 1106 z "},"ẵ":{"ha":696,"x_min":-10,"x_max":657,"o":"m 486 0 l 482 83 l 467 164 l 317 165 l 183 164 l 147 90 l 115 0 l -10 0 l 328 696 l 476 696 l 615 0 l 486 0 m 388 574 l 379 574 l 232 267 l 338 265 l 447 267 l 388 574 m 657 1122 l 575 1021 l 561 1015 q 454 1042 535 1018 q 360 1064 374 1064 q 335 1053 347 1064 q 308 1026 324 1043 q 285 1000 293 1010 l 272 1000 l 233 1040 l 233 1053 l 317 1153 l 331 1157 q 440 1131 357 1154 q 532 1108 518 1108 q 588 1150 549 1108 q 608 1174 593 1158 l 619 1174 l 657 1135 l 657 1122 m 592 910 q 516 814 564 847 q 406 781 468 781 q 290 815 335 781 q 229 910 244 849 l 268 953 l 289 953 q 407 874 310 874 q 543 953 503 874 l 564 953 l 592 910 z "},"Ặ":{"ha":779,"x_min":-22,"x_max":715,"o":"m 486 1004 q 365 1038 413 1004 q 304 1136 318 1072 l 344 1182 l 365 1182 q 488 1100 388 1100 q 629 1182 583 1100 l 649 1182 l 678 1136 q 486 1004 617 1004 m 578 0 l 569 99 l 547 226 l 367 231 l 204 228 l 149 104 l 113 0 l -22 0 l 392 892 l 551 892 l 715 0 l 578 0 m 457 756 l 446 756 l 257 340 l 390 338 l 528 339 l 457 756 m 336 -92 q 388 -111 369 -92 q 407 -164 407 -131 q 386 -222 407 -200 q 331 -243 365 -243 q 258 -169 258 -243 q 279 -112 258 -133 q 336 -92 300 -92 z "},"ặ":{"ha":696,"x_min":-8,"x_max":617,"o":"m 407 789 q 233 953 250 789 l 272 1001 l 293 1001 q 411 885 308 885 q 557 1001 514 885 l 576 1001 l 606 953 q 529 833 579 876 q 407 789 479 789 m 488 0 l 483 83 l 468 164 l 317 165 l 185 164 l 149 90 l 117 0 l -8 0 l 329 696 l 478 696 l 617 0 l 488 0 m 389 574 l 381 574 l 233 267 l 338 265 l 449 267 l 389 574 m 313 -92 q 365 -111 346 -92 q 383 -164 383 -131 q 363 -222 383 -200 q 307 -243 342 -243 q 235 -169 235 -243 q 256 -112 235 -133 q 313 -92 276 -92 z "},"Ẹ":{"ha":660,"x_min":79,"x_max":701,"o":"m 276 511 l 432 508 l 572 513 l 579 503 l 557 397 l 407 401 l 261 399 l 244 279 l 228 113 l 393 110 l 597 117 l 601 106 l 581 0 l 79 0 l 121 268 l 192 892 l 694 892 l 701 879 l 678 774 l 476 779 l 314 778 l 276 511 m 363 -92 q 415 -111 396 -92 q 433 -164 433 -131 q 413 -222 433 -200 q 357 -243 392 -243 q 285 -169 285 -243 q 306 -112 285 -133 q 363 -92 326 -92 z "},"ẹ":{"ha":596,"x_min":75,"x_max":600,"o":"m 249 406 l 379 404 l 494 408 l 501 399 l 481 300 l 356 304 l 235 303 l 224 219 l 211 103 l 336 101 l 517 107 l 525 97 l 503 0 l 75 0 l 106 208 l 161 696 l 594 696 l 600 685 l 578 588 l 410 594 l 275 593 l 249 406 m 296 -92 q 348 -111 329 -92 q 367 -164 367 -131 q 346 -222 367 -200 q 290 -243 325 -243 q 218 -169 218 -243 q 239 -112 218 -133 q 296 -92 260 -92 z "},"Ẻ":{"ha":660,"x_min":79,"x_max":701,"o":"m 276 511 l 432 508 l 572 513 l 579 503 l 557 397 l 407 401 l 261 399 l 244 279 l 228 113 l 393 110 l 597 117 l 601 106 l 581 0 l 79 0 l 121 268 l 192 892 l 694 892 l 701 879 l 678 774 l 476 779 l 314 778 l 276 511 m 444 1254 q 512 1230 485 1254 q 539 1169 539 1206 q 522 1119 539 1143 q 465 1061 506 1094 l 494 1011 l 440 981 l 392 1063 q 461 1156 461 1115 q 424 1185 461 1185 q 342 1151 382 1185 l 315 1192 q 444 1254 375 1254 z "},"ẻ":{"ha":596,"x_min":75,"x_max":600,"o":"m 249 406 l 379 404 l 494 408 l 501 399 l 481 300 l 356 304 l 235 303 l 224 219 l 211 103 l 336 101 l 517 107 l 525 97 l 503 0 l 75 0 l 106 208 l 161 696 l 594 696 l 600 685 l 578 588 l 410 594 l 275 593 l 249 406 m 383 1058 q 451 1034 424 1058 q 478 974 478 1010 q 461 923 478 947 q 404 865 444 899 l 433 815 l 379 785 l 331 867 q 400 960 400 919 q 363 989 400 989 q 281 956 321 989 l 254 996 q 383 1058 314 1058 z "},"Ẽ":{"ha":660,"x_min":79,"x_max":701,"o":"m 276 511 l 432 508 l 572 513 l 579 503 l 557 397 l 407 401 l 261 399 l 244 279 l 228 113 l 393 110 l 597 117 l 601 106 l 581 0 l 79 0 l 121 268 l 192 892 l 694 892 l 701 879 l 678 774 l 476 779 l 314 778 l 276 511 m 686 1140 l 597 1035 l 583 1029 q 465 1058 546 1035 q 368 1081 382 1081 q 343 1070 356 1081 q 306 1033 331 1060 l 286 1013 l 274 1013 l 232 1054 l 232 1067 l 321 1172 l 336 1176 q 454 1150 375 1171 q 551 1128 528 1128 q 578 1139 564 1128 q 608 1167 592 1150 q 633 1194 624 1185 l 646 1194 l 686 1153 l 686 1140 z "},"ẽ":{"ha":596,"x_min":75,"x_max":625,"o":"m 249 406 l 379 404 l 494 408 l 501 399 l 481 300 l 356 304 l 235 303 l 224 219 l 211 103 l 336 101 l 517 107 l 525 97 l 503 0 l 75 0 l 106 208 l 161 696 l 594 696 l 600 685 l 578 588 l 410 594 l 275 593 l 249 406 m 625 944 l 536 839 l 522 833 q 404 863 485 839 q 307 885 321 885 q 282 874 294 885 q 244 838 269 864 l 225 817 l 213 817 l 171 858 l 171 871 l 260 976 l 275 981 q 393 954 314 975 q 490 932 467 932 q 517 943 503 932 q 547 972 531 954 q 572 999 563 989 l 585 999 l 625 957 l 625 944 z "},"Ế":{"ha":660,"x_min":79,"x_max":704,"o":"m 276 511 l 432 508 l 572 513 l 579 503 l 557 397 l 407 401 l 261 399 l 244 279 l 228 113 l 393 110 l 597 117 l 601 106 l 581 0 l 79 0 l 121 268 l 192 892 l 694 892 l 701 879 l 678 774 l 476 779 l 314 778 l 276 511 m 704 1293 l 585 1144 l 574 1144 l 526 1181 l 624 1333 l 635 1338 l 701 1306 l 704 1293 m 478 1176 q 636 1044 546 1113 l 601 988 l 588 988 q 456 1079 526 1028 l 350 1018 l 297 988 l 282 988 l 263 1044 q 444 1176 353 1101 l 478 1176 z "},"ế":{"ha":596,"x_min":75,"x_max":643,"o":"m 249 406 l 379 404 l 494 408 l 501 399 l 481 300 l 356 304 l 235 303 l 224 219 l 211 103 l 336 101 l 517 107 l 525 97 l 503 0 l 75 0 l 106 208 l 161 696 l 594 696 l 600 685 l 578 588 l 410 594 l 275 593 l 249 406 m 643 1097 l 524 949 l 513 949 l 465 985 l 563 1138 l 574 1142 l 640 1110 l 643 1097 m 417 981 q 575 849 485 917 l 540 792 l 526 792 q 394 883 465 832 l 289 822 l 236 792 l 221 792 l 201 849 q 383 981 292 906 l 417 981 z "},"Ề":{"ha":660,"x_min":79,"x_max":701,"o":"m 276 511 l 432 508 l 572 513 l 579 503 l 557 397 l 407 401 l 261 399 l 244 279 l 228 113 l 393 110 l 597 117 l 601 106 l 581 0 l 79 0 l 121 268 l 192 892 l 694 892 l 701 879 l 678 774 l 476 779 l 314 778 l 276 511 m 657 1181 l 610 1144 l 599 1144 l 479 1293 l 481 1306 l 549 1338 l 560 1333 l 657 1181 m 483 1175 q 640 1043 547 1113 l 607 986 l 593 986 q 461 1078 510 1042 l 356 1017 l 303 986 l 288 986 l 268 1043 q 450 1175 358 1100 l 483 1175 z "},"ề":{"ha":596,"x_min":75,"x_max":600,"o":"m 249 406 l 379 404 l 494 408 l 501 399 l 481 300 l 356 304 l 235 303 l 224 219 l 211 103 l 336 101 l 517 107 l 525 97 l 503 0 l 75 0 l 106 208 l 161 696 l 594 696 l 600 685 l 578 588 l 410 594 l 275 593 l 249 406 m 596 985 l 549 949 l 538 949 l 418 1097 l 419 1110 l 488 1142 l 499 1138 l 596 985 m 422 979 q 579 847 486 917 l 546 790 l 532 790 q 400 882 449 846 l 294 821 l 242 790 l 226 790 l 207 847 q 389 979 297 904 l 422 979 z "},"Ể":{"ha":660,"x_min":79,"x_max":701,"o":"m 276 511 l 432 508 l 572 513 l 579 503 l 557 397 l 407 401 l 261 399 l 244 279 l 228 113 l 393 110 l 597 117 l 601 106 l 581 0 l 79 0 l 121 268 l 192 892 l 694 892 l 701 879 l 678 774 l 476 779 l 314 778 l 276 511 m 588 1396 q 652 1372 626 1396 q 678 1314 678 1349 q 662 1266 678 1289 q 608 1211 646 1243 l 636 1164 l 583 1135 l 538 1213 q 604 1301 604 1264 q 568 1329 604 1329 q 490 1297 529 1329 l 465 1336 q 588 1396 522 1396 m 481 1176 q 639 1044 549 1113 l 604 988 l 590 988 q 458 1079 529 1028 l 353 1018 l 300 988 l 285 988 l 265 1044 q 447 1176 356 1101 l 481 1176 z "},"ể":{"ha":596,"x_min":75,"x_max":617,"o":"m 249 406 l 379 404 l 494 408 l 501 399 l 481 300 l 356 304 l 235 303 l 224 219 l 211 103 l 336 101 l 517 107 l 525 97 l 503 0 l 75 0 l 106 208 l 161 696 l 594 696 l 600 685 l 578 588 l 410 594 l 275 593 l 249 406 m 526 1200 q 591 1176 565 1200 q 617 1118 617 1153 q 601 1070 617 1093 q 547 1015 585 1047 l 575 968 l 522 939 l 476 1017 q 543 1106 543 1068 q 507 1133 543 1133 q 429 1101 468 1133 l 404 1140 q 526 1200 461 1200 m 419 981 q 578 849 488 917 l 543 792 l 529 792 q 397 883 468 832 l 292 822 l 239 792 l 224 792 l 204 849 q 386 981 294 906 l 419 981 z "},"Ễ":{"ha":660,"x_min":79,"x_max":701,"o":"m 276 511 l 432 508 l 572 513 l 579 503 l 557 397 l 407 401 l 261 399 l 244 279 l 228 113 l 393 110 l 597 117 l 601 106 l 581 0 l 79 0 l 121 268 l 192 892 l 694 892 l 701 879 l 678 774 l 476 779 l 314 778 l 276 511 m 657 1181 l 610 1144 l 599 1144 l 479 1293 l 481 1306 l 549 1338 l 560 1333 l 657 1181 m 483 1175 q 640 1043 547 1113 l 607 986 l 593 986 q 461 1078 510 1042 l 356 1017 l 303 986 l 288 986 l 268 1043 q 450 1175 358 1100 l 483 1175 z "},"ễ":{"ha":596,"x_min":75,"x_max":658,"o":"m 249 406 l 379 404 l 494 408 l 501 399 l 481 300 l 356 304 l 235 303 l 224 219 l 211 103 l 336 101 l 517 107 l 525 97 l 503 0 l 75 0 l 106 208 l 161 696 l 594 696 l 600 685 l 578 588 l 410 594 l 275 593 l 249 406 m 658 1121 l 576 1019 l 563 1014 q 454 1042 531 1017 q 361 1064 376 1064 q 336 1053 349 1064 q 309 1025 324 1042 q 286 1000 294 1008 l 274 1000 l 235 1040 l 235 1051 l 318 1151 l 332 1156 q 442 1129 367 1150 q 532 1108 515 1108 q 558 1120 544 1108 q 588 1149 572 1132 q 608 1174 603 1167 l 621 1174 l 658 1133 l 658 1121 m 435 981 q 592 849 499 918 l 558 793 l 544 793 q 413 883 472 839 q 254 793 360 851 l 239 793 l 219 849 q 401 981 310 906 l 435 981 z "},"Ệ":{"ha":660,"x_min":79,"x_max":701,"o":"m 276 511 l 432 508 l 572 513 l 579 503 l 557 397 l 407 401 l 261 399 l 244 279 l 228 113 l 393 110 l 597 117 l 601 106 l 581 0 l 79 0 l 121 268 l 192 892 l 694 892 l 701 879 l 678 774 l 476 779 l 314 778 l 276 511 m 363 -92 q 415 -111 396 -92 q 433 -164 433 -131 q 413 -222 433 -200 q 357 -243 392 -243 q 285 -169 285 -243 q 306 -112 285 -133 q 363 -92 326 -92 m 275 1071 q 457 1203 365 1128 l 490 1203 q 649 1071 558 1139 l 614 1014 l 600 1014 q 468 1106 539 1054 l 363 1044 l 310 1014 l 294 1014 l 275 1071 z "},"ệ":{"ha":596,"x_min":75,"x_max":600,"o":"m 249 406 l 379 404 l 494 408 l 501 399 l 481 300 l 356 304 l 235 303 l 224 219 l 211 103 l 336 101 l 517 107 l 525 97 l 503 0 l 75 0 l 106 208 l 161 696 l 594 696 l 600 685 l 578 588 l 410 594 l 275 593 l 249 406 m 296 -92 q 348 -111 329 -92 q 367 -164 367 -131 q 346 -222 367 -200 q 290 -243 325 -243 q 218 -169 218 -243 q 239 -112 218 -133 q 296 -92 260 -92 m 206 836 q 404 1026 279 901 l 439 1026 q 593 836 514 924 l 551 783 l 538 783 q 411 922 457 864 q 249 783 360 874 l 233 783 l 206 836 z "},"Ỉ":{"ha":375,"x_min":79,"x_max":363,"o":"m 217 0 l 79 0 l 119 268 l 190 892 l 328 892 l 243 279 l 217 0 m 268 1254 q 335 1230 308 1254 q 363 1169 363 1206 q 346 1119 363 1143 q 289 1061 329 1094 l 318 1011 l 264 981 l 215 1063 q 285 1156 285 1115 q 247 1185 285 1185 q 165 1151 206 1185 l 139 1192 q 268 1254 199 1254 z "},"ỉ":{"ha":363,"x_min":75,"x_max":326,"o":"m 201 0 l 75 0 l 107 208 l 161 696 l 290 696 l 224 219 l 201 0 m 232 1058 q 299 1034 272 1058 q 326 974 326 1010 q 310 923 326 947 q 253 865 293 899 l 282 815 l 228 785 l 179 867 q 249 960 249 919 q 211 989 249 989 q 129 956 169 989 l 103 996 q 232 1058 163 1058 z "},"Ị":{"ha":375,"x_min":60,"x_max":328,"o":"m 217 0 l 79 0 l 119 268 l 190 892 l 328 892 l 243 279 l 217 0 m 138 -92 q 190 -111 171 -92 q 208 -164 208 -131 q 188 -222 208 -200 q 132 -243 167 -243 q 60 -169 60 -243 q 81 -112 60 -133 q 138 -92 101 -92 z "},"ị":{"ha":363,"x_min":57,"x_max":290,"o":"m 201 0 l 75 0 l 107 208 l 161 696 l 290 696 l 224 219 l 201 0 m 135 -92 q 187 -111 168 -92 q 206 -164 206 -131 q 185 -222 206 -200 q 129 -243 164 -243 q 57 -169 57 -243 q 78 -112 57 -133 q 135 -92 99 -92 z "},"Ọ":{"ha":858,"x_min":60,"x_max":835,"o":"m 504 901 q 748 808 661 901 q 835 540 835 714 q 783 247 835 371 q 630 56 731 124 q 388 -11 529 -11 q 147 85 233 -11 q 60 357 60 182 q 175 757 60 613 q 504 901 290 901 m 489 789 q 200 364 200 789 q 249 164 200 229 q 401 99 299 99 q 690 526 690 99 q 641 725 690 661 q 489 789 592 789 m 413 -92 q 465 -111 446 -92 q 483 -164 483 -131 q 463 -222 483 -200 q 407 -243 442 -243 q 335 -169 335 -243 q 356 -112 335 -133 q 413 -92 376 -92 z "},"ọ":{"ha":756,"x_min":56,"x_max":708,"o":"m 429 704 q 636 629 564 704 q 708 401 708 554 q 664 188 708 282 q 535 42 619 94 q 336 -10 451 -10 q 128 67 200 -10 q 56 297 56 143 q 99 510 56 418 q 228 653 143 601 q 429 704 313 704 m 413 599 q 188 304 188 599 q 225 141 188 189 q 350 93 263 93 q 575 389 575 93 q 538 550 575 501 q 413 599 500 599 m 356 -92 q 408 -111 389 -92 q 426 -164 426 -131 q 406 -222 426 -200 q 350 -243 385 -243 q 278 -169 278 -243 q 299 -112 278 -133 q 356 -92 319 -92 z "},"Ỏ":{"ha":858,"x_min":60,"x_max":835,"o":"m 504 901 q 748 808 661 901 q 835 540 835 714 q 783 247 835 371 q 630 56 731 124 q 388 -11 529 -11 q 147 85 233 -11 q 60 357 60 182 q 175 757 60 613 q 504 901 290 901 m 489 789 q 200 364 200 789 q 249 164 200 229 q 401 99 299 99 q 690 526 690 99 q 641 725 690 661 q 489 789 592 789 m 510 1254 q 577 1230 550 1254 q 604 1169 604 1206 q 588 1119 604 1143 q 531 1061 571 1094 l 560 1011 l 506 981 l 457 1063 q 526 1156 526 1115 q 489 1185 526 1185 q 407 1151 447 1185 l 381 1192 q 510 1254 440 1254 z "},"ỏ":{"ha":756,"x_min":56,"x_max":708,"o":"m 429 704 q 636 629 564 704 q 708 401 708 554 q 664 188 708 282 q 535 42 619 94 q 336 -10 451 -10 q 128 67 200 -10 q 56 297 56 143 q 99 510 56 418 q 228 653 143 601 q 429 704 313 704 m 413 599 q 188 304 188 599 q 225 141 188 189 q 350 93 263 93 q 575 389 575 93 q 538 550 575 501 q 413 599 500 599 m 431 1058 q 498 1034 471 1058 q 525 974 525 1010 q 508 923 525 947 q 451 865 492 899 l 481 815 l 426 785 l 378 867 q 447 960 447 919 q 410 989 447 989 q 328 956 368 989 l 301 996 q 431 1058 361 1058 z "},"Ố":{"ha":858,"x_min":60,"x_max":835,"o":"m 504 901 q 748 808 661 901 q 835 540 835 714 q 783 247 835 371 q 630 56 731 124 q 388 -11 529 -11 q 147 85 233 -11 q 60 357 60 182 q 175 757 60 613 q 504 901 290 901 m 489 789 q 200 364 200 789 q 249 164 200 229 q 401 99 299 99 q 690 526 690 99 q 641 725 690 661 q 489 789 592 789 m 769 1293 l 650 1144 l 639 1144 l 592 1181 l 689 1333 l 700 1338 l 767 1306 l 769 1293 m 543 1176 q 701 1044 611 1113 l 667 988 l 653 988 q 521 1079 592 1028 l 415 1018 l 363 988 l 347 988 l 328 1044 q 510 1176 418 1101 l 543 1176 z "},"ố":{"ha":756,"x_min":56,"x_max":708,"o":"m 429 704 q 636 629 564 704 q 708 401 708 554 q 664 188 708 282 q 535 42 619 94 q 336 -10 451 -10 q 128 67 200 -10 q 56 297 56 143 q 99 510 56 418 q 228 653 143 601 q 429 704 313 704 m 413 599 q 188 304 188 599 q 225 141 188 189 q 350 93 263 93 q 575 389 575 93 q 538 550 575 501 q 413 599 500 599 m 690 1097 l 571 949 l 560 949 l 513 985 l 610 1138 l 621 1142 l 688 1110 l 690 1097 m 464 981 q 622 849 532 917 l 588 792 l 574 792 q 442 883 513 832 l 336 822 l 283 792 l 268 792 l 249 849 q 431 981 339 906 l 464 981 z "},"Ồ":{"ha":858,"x_min":60,"x_max":835,"o":"m 504 901 q 748 808 661 901 q 835 540 835 714 q 783 247 835 371 q 630 56 731 124 q 388 -11 529 -11 q 147 85 233 -11 q 60 357 60 182 q 175 757 60 613 q 504 901 290 901 m 489 789 q 200 364 200 789 q 249 164 200 229 q 401 99 299 99 q 690 526 690 99 q 641 725 690 661 q 489 789 592 789 m 722 1181 l 675 1144 l 664 1144 l 544 1293 l 546 1306 l 614 1338 l 625 1333 l 722 1181 m 549 1175 q 706 1043 613 1113 l 672 986 l 658 986 q 526 1078 575 1042 l 421 1017 l 368 986 l 353 986 l 333 1043 q 515 1175 424 1100 l 549 1175 z "},"ồ":{"ha":756,"x_min":56,"x_max":708,"o":"m 429 704 q 636 629 564 704 q 708 401 708 554 q 664 188 708 282 q 535 42 619 94 q 336 -10 451 -10 q 128 67 200 -10 q 56 297 56 143 q 99 510 56 418 q 228 653 143 601 q 429 704 313 704 m 413 599 q 188 304 188 599 q 225 141 188 189 q 350 93 263 93 q 575 389 575 93 q 538 550 575 501 q 413 599 500 599 m 643 985 l 596 949 l 585 949 l 465 1097 l 467 1110 l 535 1142 l 546 1138 l 643 985 m 469 979 q 626 847 533 917 l 593 790 l 579 790 q 447 882 496 846 l 342 821 l 289 790 l 274 790 l 254 847 q 436 979 344 904 l 469 979 z "},"Ổ":{"ha":858,"x_min":60,"x_max":835,"o":"m 504 901 q 748 808 661 901 q 835 540 835 714 q 783 247 835 371 q 630 56 731 124 q 388 -11 529 -11 q 147 85 233 -11 q 60 357 60 182 q 175 757 60 613 q 504 901 290 901 m 489 789 q 200 364 200 789 q 249 164 200 229 q 401 99 299 99 q 690 526 690 99 q 641 725 690 661 q 489 789 592 789 m 653 1396 q 717 1372 692 1396 q 743 1314 743 1349 q 727 1266 743 1289 q 674 1211 711 1243 l 701 1164 l 649 1135 l 603 1213 q 669 1301 669 1264 q 633 1329 669 1329 q 556 1297 594 1329 l 531 1336 q 653 1396 588 1396 m 546 1176 q 704 1044 614 1113 l 669 988 l 656 988 q 524 1079 594 1028 l 418 1018 l 365 988 l 350 988 l 331 1044 q 513 1176 421 1101 l 546 1176 z "},"ổ":{"ha":756,"x_min":56,"x_max":708,"o":"m 429 704 q 636 629 564 704 q 708 401 708 554 q 664 188 708 282 q 535 42 619 94 q 336 -10 451 -10 q 128 67 200 -10 q 56 297 56 143 q 99 510 56 418 q 228 653 143 601 q 429 704 313 704 m 413 599 q 188 304 188 599 q 225 141 188 189 q 350 93 263 93 q 575 389 575 93 q 538 550 575 501 q 413 599 500 599 m 574 1200 q 638 1176 613 1200 q 664 1118 664 1153 q 648 1070 664 1093 q 594 1015 632 1047 l 622 968 l 569 939 l 524 1017 q 590 1106 590 1068 q 554 1133 590 1133 q 476 1101 515 1133 l 451 1140 q 574 1200 508 1200 m 467 981 q 625 849 535 917 l 590 792 l 576 792 q 444 883 515 832 l 339 822 l 286 792 l 271 792 l 251 849 q 433 981 342 906 l 467 981 z "},"Ỗ":{"ha":858,"x_min":60,"x_max":835,"o":"m 504 901 q 748 808 661 901 q 835 540 835 714 q 783 247 835 371 q 630 56 731 124 q 388 -11 529 -11 q 147 85 233 -11 q 60 357 60 182 q 175 757 60 613 q 504 901 290 901 m 489 789 q 200 364 200 789 q 249 164 200 229 q 401 99 299 99 q 690 526 690 99 q 641 725 690 661 q 489 789 592 789 m 785 1317 l 703 1215 l 689 1210 q 581 1238 657 1213 q 488 1260 503 1260 q 463 1249 475 1260 q 435 1221 450 1238 q 413 1196 421 1204 l 400 1196 l 361 1236 l 361 1247 l 444 1347 l 458 1351 q 568 1325 493 1346 q 658 1304 642 1304 q 685 1316 671 1304 q 714 1345 699 1328 q 735 1369 729 1363 l 747 1369 l 785 1329 l 785 1317 m 561 1176 q 718 1044 625 1114 l 685 989 l 671 989 q 539 1079 599 1035 q 381 989 486 1047 l 365 989 l 346 1044 q 528 1176 436 1101 l 561 1176 z "},"ỗ":{"ha":756,"x_min":56,"x_max":708,"o":"m 429 704 q 636 629 564 704 q 708 401 708 554 q 664 188 708 282 q 535 42 619 94 q 336 -10 451 -10 q 128 67 200 -10 q 56 297 56 143 q 99 510 56 418 q 228 653 143 601 q 429 704 313 704 m 413 599 q 188 304 188 599 q 225 141 188 189 q 350 93 263 93 q 575 389 575 93 q 538 550 575 501 q 413 599 500 599 m 706 1121 l 624 1019 l 610 1014 q 501 1042 578 1017 q 408 1064 424 1064 q 383 1053 396 1064 q 356 1025 371 1042 q 333 1000 342 1008 l 321 1000 l 282 1040 l 282 1051 l 365 1151 l 379 1156 q 489 1129 414 1150 q 579 1108 563 1108 q 606 1120 592 1108 q 635 1149 619 1132 q 656 1174 650 1167 l 668 1174 l 706 1133 l 706 1121 m 482 981 q 639 849 546 918 l 606 793 l 592 793 q 460 883 519 839 q 301 793 407 851 l 286 793 l 267 849 q 449 981 357 906 l 482 981 z "},"Ộ":{"ha":858,"x_min":60,"x_max":835,"o":"m 342 1071 q 524 1203 432 1128 l 557 1203 q 715 1071 625 1139 l 681 1014 l 667 1014 q 535 1106 606 1054 l 429 1044 l 376 1014 l 361 1014 l 342 1071 m 504 901 q 748 808 661 901 q 835 540 835 714 q 783 247 835 371 q 631 56 731 124 q 389 -11 531 -11 q 147 85 233 -11 q 60 357 60 182 q 176 757 60 613 q 504 901 292 901 m 488 789 q 200 364 200 789 q 249 164 200 229 q 401 99 299 99 q 690 526 690 99 q 640 725 690 661 q 488 789 590 789 m 413 -92 q 465 -111 446 -92 q 483 -164 483 -131 q 463 -222 483 -200 q 407 -243 442 -243 q 335 -169 335 -243 q 356 -112 335 -133 q 413 -92 376 -92 z "},"ộ":{"ha":756,"x_min":56,"x_max":708,"o":"m 253 836 q 451 1026 326 901 l 486 1026 q 640 836 561 924 l 599 783 l 585 783 q 458 922 504 864 q 296 783 407 874 l 281 783 l 253 836 m 429 704 q 636 629 564 704 q 708 401 708 554 q 664 188 708 282 q 535 42 619 94 q 336 -10 451 -10 q 128 67 200 -10 q 56 297 56 143 q 99 510 56 418 q 227 653 143 601 q 429 704 311 704 m 411 599 q 188 304 188 599 q 225 141 188 189 q 350 93 263 93 q 575 389 575 93 q 537 550 575 501 q 411 599 499 599 m 356 -92 q 408 -111 389 -92 q 426 -164 426 -131 q 406 -222 426 -200 q 350 -243 385 -243 q 278 -169 278 -243 q 299 -112 278 -133 q 356 -92 319 -92 z "},"Ớ":{"ha":863,"x_min":60,"x_max":939,"o":"m 872 1068 q 919 1038 900 1068 q 939 963 939 1008 q 889 843 939 889 q 763 790 839 797 q 833 528 833 694 q 780 247 833 369 q 626 57 726 125 q 388 -11 525 -11 q 144 85 228 -11 q 60 374 60 182 q 113 650 60 531 q 266 835 167 769 q 499 901 365 901 q 656 875 576 901 q 733 860 707 860 q 803 882 775 860 q 831 946 831 904 q 800 1029 831 994 l 804 1040 q 872 1068 842 1068 m 489 789 q 273 683 346 789 q 200 382 200 578 q 247 166 200 233 q 403 99 294 99 q 617 206 544 99 q 690 510 690 313 q 643 723 690 657 q 489 789 596 789 m 701 1128 l 696 1114 q 417 999 588 1065 l 401 1004 l 378 1063 q 653 1211 558 1154 l 667 1207 l 701 1128 z "},"ớ":{"ha":760,"x_min":56,"x_max":797,"o":"m 675 811 q 735 835 710 835 q 778 810 760 835 q 797 746 797 785 q 758 646 797 688 q 657 600 718 604 q 708 415 708 529 q 664 190 708 286 q 535 42 619 94 q 335 -10 451 -10 q 129 67 203 -10 q 56 281 56 143 q 153 592 56 479 q 425 704 251 704 q 558 683 488 704 q 622 672 606 672 q 677 688 656 672 q 699 735 699 704 q 671 801 699 769 l 675 811 m 350 92 q 521 167 467 92 q 575 407 575 243 q 535 553 575 506 q 411 600 494 600 q 241 523 294 600 q 188 283 188 446 q 228 138 188 183 q 350 92 268 92 m 597 932 l 592 918 q 313 803 483 869 l 297 808 l 274 867 q 549 1015 454 958 l 563 1011 l 597 932 z "},"Ờ":{"ha":863,"x_min":60,"x_max":939,"o":"m 872 1068 q 919 1038 900 1068 q 939 963 939 1008 q 889 843 939 889 q 763 790 839 797 q 833 528 833 694 q 780 247 833 369 q 626 57 726 125 q 388 -11 525 -11 q 144 85 228 -11 q 60 374 60 182 q 113 650 60 531 q 266 835 167 769 q 499 901 365 901 q 656 875 576 901 q 733 860 707 860 q 803 882 775 860 q 831 946 831 904 q 800 1029 831 994 l 804 1040 q 872 1068 842 1068 m 489 789 q 273 683 346 789 q 200 382 200 578 q 247 166 200 233 q 403 99 294 99 q 617 206 544 99 q 690 510 690 313 q 643 723 690 657 q 489 789 596 789 m 413 1214 q 688 1067 535 1143 l 664 1008 l 649 1003 q 369 1118 463 1076 l 364 1132 l 399 1211 l 413 1214 z "},"ờ":{"ha":760,"x_min":56,"x_max":797,"o":"m 675 811 q 735 835 710 835 q 778 810 760 835 q 797 746 797 785 q 758 646 797 688 q 657 600 718 604 q 708 415 708 529 q 664 190 708 286 q 535 42 619 94 q 335 -10 451 -10 q 129 67 203 -10 q 56 281 56 143 q 153 592 56 479 q 425 704 251 704 q 558 683 488 704 q 622 672 606 672 q 677 688 656 672 q 699 735 699 704 q 671 801 699 769 l 675 811 m 350 92 q 521 167 467 92 q 575 407 575 243 q 535 553 575 506 q 411 600 494 600 q 241 523 294 600 q 188 283 188 446 q 228 138 188 183 q 350 92 268 92 m 310 1018 q 585 871 432 947 l 561 813 l 546 807 q 267 922 360 881 l 261 936 l 296 1015 l 310 1018 z "},"Ở":{"ha":863,"x_min":60,"x_max":939,"o":"m 872 1068 q 919 1038 900 1068 q 939 963 939 1008 q 889 843 939 889 q 763 790 839 797 q 833 528 833 694 q 780 247 833 369 q 626 57 726 125 q 388 -11 525 -11 q 144 85 228 -11 q 60 374 60 182 q 113 650 60 531 q 266 835 167 769 q 499 901 365 901 q 656 875 576 901 q 733 860 707 860 q 803 882 775 860 q 831 946 831 904 q 800 1029 831 994 l 804 1040 q 872 1068 842 1068 m 489 789 q 273 683 346 789 q 200 382 200 578 q 247 166 200 233 q 403 99 294 99 q 617 206 544 99 q 690 510 690 313 q 643 723 690 657 q 489 789 596 789 m 510 1254 q 577 1230 550 1254 q 604 1169 604 1206 q 588 1119 604 1143 q 531 1061 571 1094 l 560 1011 l 506 981 l 457 1063 q 526 1156 526 1115 q 489 1185 526 1185 q 407 1151 447 1185 l 381 1192 q 510 1254 440 1254 z "},"ở":{"ha":760,"x_min":56,"x_max":797,"o":"m 675 811 q 735 835 710 835 q 778 810 760 835 q 797 746 797 785 q 758 646 797 688 q 657 600 718 604 q 708 415 708 529 q 664 190 708 286 q 535 42 619 94 q 335 -10 451 -10 q 129 67 203 -10 q 56 281 56 143 q 153 592 56 479 q 425 704 251 704 q 558 683 488 704 q 622 672 606 672 q 677 688 656 672 q 699 735 699 704 q 671 801 699 769 l 675 811 m 350 92 q 521 167 467 92 q 575 407 575 243 q 535 553 575 506 q 411 600 494 600 q 241 523 294 600 q 188 283 188 446 q 228 138 188 183 q 350 92 268 92 m 406 1058 q 473 1034 446 1058 q 500 974 500 1010 q 483 923 500 947 q 426 865 467 899 l 456 815 l 401 785 l 353 867 q 422 960 422 919 q 385 989 422 989 q 303 956 343 989 l 276 996 q 406 1058 336 1058 z "},"Ỡ":{"ha":863,"x_min":60,"x_max":939,"o":"m 872 1068 q 919 1038 900 1068 q 939 963 939 1008 q 889 843 939 889 q 763 790 839 797 q 833 528 833 694 q 780 247 833 369 q 626 57 726 125 q 388 -11 525 -11 q 144 85 228 -11 q 60 374 60 182 q 113 650 60 531 q 266 835 167 769 q 499 901 365 901 q 656 875 576 901 q 733 860 707 860 q 803 882 775 860 q 831 946 831 904 q 800 1029 831 994 l 804 1040 q 872 1068 842 1068 m 489 789 q 273 683 346 789 q 200 382 200 578 q 247 166 200 233 q 403 99 294 99 q 617 206 544 99 q 690 510 690 313 q 643 723 690 657 q 489 789 596 789 m 751 1140 l 663 1035 l 649 1029 q 531 1058 611 1035 q 433 1081 447 1081 q 408 1070 421 1081 q 371 1033 396 1060 l 351 1013 l 339 1013 l 297 1054 l 297 1067 l 386 1172 l 401 1176 q 519 1150 440 1171 q 617 1128 593 1128 q 643 1139 629 1128 q 673 1167 657 1150 q 699 1194 689 1185 l 711 1194 l 751 1153 l 751 1140 z "},"ỡ":{"ha":760,"x_min":56,"x_max":797,"o":"m 675 811 q 735 835 710 835 q 778 810 760 835 q 797 746 797 785 q 758 646 797 688 q 657 600 718 604 q 708 415 708 529 q 664 190 708 286 q 535 42 619 94 q 335 -10 451 -10 q 129 67 203 -10 q 56 281 56 143 q 153 592 56 479 q 425 704 251 704 q 558 683 488 704 q 622 672 606 672 q 677 688 656 672 q 699 735 699 704 q 671 801 699 769 l 675 811 m 350 92 q 521 167 467 92 q 575 407 575 243 q 535 553 575 506 q 411 600 494 600 q 241 523 294 600 q 188 283 188 446 q 228 138 188 183 q 350 92 268 92 m 649 944 l 560 839 l 546 833 q 428 863 508 839 q 331 885 344 885 q 306 874 318 885 q 268 838 293 864 l 249 817 l 236 817 l 194 858 l 194 871 l 283 976 l 299 981 q 417 954 338 975 q 514 932 490 932 q 540 943 526 932 q 570 972 554 954 q 596 999 586 989 l 608 999 l 649 957 l 649 944 z "},"Ợ":{"ha":863,"x_min":60,"x_max":939,"o":"m 872 1068 q 919 1038 900 1068 q 939 963 939 1008 q 889 843 939 889 q 763 790 839 797 q 833 528 833 694 q 780 247 833 369 q 626 57 726 125 q 388 -11 525 -11 q 144 85 228 -11 q 60 374 60 182 q 113 650 60 531 q 266 835 167 769 q 499 901 365 901 q 656 875 576 901 q 733 860 707 860 q 803 882 775 860 q 831 946 831 904 q 800 1029 831 994 l 804 1040 q 872 1068 842 1068 m 489 789 q 273 683 346 789 q 200 382 200 578 q 247 166 200 233 q 403 99 294 99 q 617 206 544 99 q 690 510 690 313 q 643 723 690 657 q 489 789 596 789 m 413 -92 q 465 -111 446 -92 q 483 -164 483 -131 q 463 -222 483 -200 q 407 -243 442 -243 q 335 -169 335 -243 q 356 -112 335 -133 q 413 -92 376 -92 z "},"ợ":{"ha":760,"x_min":56,"x_max":797,"o":"m 675 811 q 735 835 710 835 q 778 810 760 835 q 797 746 797 785 q 758 646 797 688 q 657 600 718 604 q 708 415 708 529 q 664 190 708 286 q 535 42 619 94 q 335 -10 451 -10 q 129 67 203 -10 q 56 281 56 143 q 153 592 56 479 q 425 704 251 704 q 558 683 488 704 q 622 672 606 672 q 677 688 656 672 q 699 735 699 704 q 671 801 699 769 l 675 811 m 350 92 q 521 167 467 92 q 575 407 575 243 q 535 553 575 506 q 411 600 494 600 q 241 523 294 600 q 188 283 188 446 q 228 138 188 183 q 350 92 268 92 m 356 -92 q 408 -111 389 -92 q 426 -164 426 -131 q 406 -222 426 -200 q 350 -243 385 -243 q 278 -169 278 -243 q 299 -112 278 -133 q 356 -92 319 -92 z "},"Ụ":{"ha":842,"x_min":90,"x_max":819,"o":"m 747 335 q 635 78 728 168 q 383 -11 543 -11 q 168 57 246 -11 q 90 250 90 125 q 94 324 90 285 l 113 446 l 164 892 l 299 892 l 225 342 q 221 282 221 308 q 393 107 221 107 q 621 328 596 107 l 683 892 l 819 892 l 760 438 l 747 335 m 388 -92 q 440 -111 421 -92 q 458 -164 458 -131 q 438 -222 458 -200 q 382 -243 417 -243 q 310 -169 310 -243 q 331 -112 310 -133 q 388 -92 351 -92 z "},"ụ":{"ha":743,"x_min":81,"x_max":697,"o":"m 636 240 q 544 55 622 119 q 332 -10 467 -10 q 147 42 213 -10 q 81 190 81 94 q 85 240 81 214 l 100 346 l 140 696 l 268 696 l 206 260 q 203 224 203 235 q 344 97 203 97 q 521 260 503 97 l 569 696 l 697 696 l 650 342 l 636 240 m 332 -92 q 384 -111 365 -92 q 403 -164 403 -131 q 382 -222 403 -200 q 326 -243 361 -243 q 254 -169 254 -243 q 275 -112 254 -133 q 332 -92 296 -92 z "},"Ủ":{"ha":842,"x_min":90,"x_max":819,"o":"m 747 335 q 635 78 728 168 q 383 -11 543 -11 q 168 57 246 -11 q 90 250 90 125 q 94 324 90 285 l 113 446 l 164 892 l 299 892 l 225 342 q 221 282 221 308 q 393 107 221 107 q 621 328 596 107 l 683 892 l 819 892 l 760 438 l 747 335 m 501 1254 q 569 1230 542 1254 q 596 1169 596 1206 q 579 1119 596 1143 q 522 1061 563 1094 l 551 1011 l 497 981 l 449 1063 q 518 1156 518 1115 q 481 1185 518 1185 q 399 1151 439 1185 l 372 1192 q 501 1254 432 1254 z "},"ủ":{"ha":743,"x_min":81,"x_max":697,"o":"m 636 240 q 544 55 622 119 q 332 -10 467 -10 q 147 42 213 -10 q 81 190 81 94 q 85 240 81 214 l 100 346 l 140 696 l 268 696 l 206 260 q 203 224 203 235 q 344 97 203 97 q 521 260 503 97 l 569 696 l 697 696 l 650 342 l 636 240 m 425 1058 q 492 1034 465 1058 q 519 974 519 1010 q 503 923 519 947 q 446 865 486 899 l 475 815 l 421 785 l 372 867 q 442 960 442 919 q 404 989 442 989 q 322 956 363 989 l 296 996 q 425 1058 356 1058 z "},"Ứ":{"ha":850,"x_min":90,"x_max":924,"o":"m 924 972 q 894 888 924 925 q 813 833 864 851 l 760 438 l 747 335 q 636 78 729 168 q 383 -11 543 -11 q 168 57 246 -11 q 90 250 90 125 q 96 324 90 289 l 113 446 l 165 892 l 300 892 l 225 342 q 221 282 221 308 q 393 107 221 107 q 621 328 596 107 l 685 892 l 733 892 q 818 961 818 892 q 778 1044 818 1004 l 782 1057 q 846 1083 818 1083 q 899 1051 875 1083 q 924 972 924 1018 m 678 1129 l 672 1115 q 393 1000 564 1067 l 378 1006 l 354 1064 q 629 1213 535 1156 l 643 1208 l 678 1129 z "},"ứ":{"ha":758,"x_min":81,"x_max":796,"o":"m 796 771 q 767 696 796 729 q 690 644 739 663 l 650 342 l 636 240 q 544 55 622 119 q 332 -10 467 -10 q 147 42 213 -10 q 81 190 81 94 q 85 240 81 214 l 100 346 l 140 696 l 268 696 l 206 260 q 203 224 203 235 q 344 97 203 97 q 521 260 503 97 l 569 696 l 619 696 q 696 757 696 696 q 668 814 696 788 l 672 825 q 736 849 707 849 q 778 826 760 849 q 796 771 796 803 m 614 933 l 608 919 q 329 804 500 871 l 314 810 l 290 868 q 565 1017 471 960 l 579 1013 l 614 933 z "},"Ừ":{"ha":850,"x_min":90,"x_max":924,"o":"m 924 972 q 894 888 924 925 q 813 833 864 851 l 760 438 l 747 335 q 636 78 729 168 q 383 -11 543 -11 q 168 57 246 -11 q 90 250 90 125 q 96 324 90 289 l 113 446 l 165 892 l 300 892 l 225 342 q 221 282 221 308 q 393 107 221 107 q 621 328 596 107 l 685 892 l 733 892 q 818 961 818 892 q 778 1044 818 1004 l 782 1057 q 846 1083 818 1083 q 899 1051 875 1083 q 924 972 924 1018 m 390 1215 q 665 1068 513 1144 l 642 1010 l 626 1004 q 347 1119 440 1078 l 342 1133 l 376 1213 l 390 1215 z "},"ừ":{"ha":758,"x_min":81,"x_max":796,"o":"m 796 771 q 767 696 796 729 q 690 644 739 663 l 650 342 l 636 240 q 544 55 622 119 q 332 -10 467 -10 q 147 42 213 -10 q 81 190 81 94 q 85 240 81 214 l 100 346 l 140 696 l 268 696 l 206 260 q 203 224 203 235 q 344 97 203 97 q 521 260 503 97 l 569 696 l 619 696 q 696 757 696 696 q 668 814 696 788 l 672 825 q 736 849 707 849 q 778 826 760 849 q 796 771 796 803 m 326 1019 q 601 872 449 949 l 578 814 l 563 808 q 283 924 376 882 l 278 938 l 313 1017 l 326 1019 z "},"Ử":{"ha":850,"x_min":90,"x_max":924,"o":"m 924 972 q 894 888 924 925 q 813 833 864 851 l 760 438 l 747 335 q 636 78 729 168 q 383 -11 543 -11 q 168 57 246 -11 q 90 250 90 125 q 96 324 90 289 l 113 446 l 165 892 l 300 892 l 225 342 q 221 282 221 308 q 393 107 221 107 q 621 328 596 107 l 685 892 l 733 892 q 818 961 818 892 q 778 1044 818 1004 l 782 1057 q 846 1083 818 1083 q 899 1051 875 1083 q 924 972 924 1018 m 488 1256 q 555 1231 528 1256 q 582 1171 582 1207 q 565 1120 582 1144 q 508 1063 549 1096 l 538 1013 l 483 982 l 435 1064 q 504 1157 504 1117 q 467 1186 504 1186 q 385 1153 425 1186 l 358 1193 q 488 1256 418 1256 z "},"ử":{"ha":758,"x_min":81,"x_max":796,"o":"m 796 771 q 767 696 796 729 q 690 644 739 663 l 650 342 l 636 240 q 544 55 622 119 q 332 -10 467 -10 q 147 42 213 -10 q 81 190 81 94 q 85 240 81 214 l 100 346 l 140 696 l 268 696 l 206 260 q 203 224 203 235 q 344 97 203 97 q 521 260 503 97 l 569 696 l 619 696 q 696 757 696 696 q 668 814 696 788 l 672 825 q 736 849 707 849 q 778 826 760 849 q 796 771 796 803 m 424 1060 q 491 1035 464 1060 q 518 975 518 1011 q 501 924 518 949 q 444 867 485 900 l 474 817 l 419 786 l 371 868 q 440 961 440 921 q 403 990 440 990 q 321 957 361 990 l 294 997 q 424 1060 354 1060 z "},"Ữ":{"ha":850,"x_min":90,"x_max":924,"o":"m 924 972 q 894 888 924 925 q 813 833 864 851 l 760 438 l 747 335 q 636 78 729 168 q 383 -11 543 -11 q 168 57 246 -11 q 90 250 90 125 q 96 324 90 289 l 113 446 l 165 892 l 300 892 l 225 342 q 221 282 221 308 q 393 107 221 107 q 621 328 596 107 l 685 892 l 733 892 q 818 961 818 892 q 778 1044 818 1004 l 782 1057 q 846 1083 818 1083 q 899 1051 875 1083 q 924 972 924 1018 m 729 1142 l 640 1036 l 626 1031 q 508 1060 589 1036 q 411 1082 425 1082 q 386 1072 399 1082 q 349 1035 374 1061 l 329 1014 l 317 1014 l 275 1056 l 275 1068 l 364 1174 l 379 1178 q 497 1151 418 1172 q 594 1129 571 1129 q 621 1140 607 1129 q 651 1169 635 1151 q 676 1196 667 1186 l 689 1196 l 729 1154 l 729 1142 z "},"ữ":{"ha":758,"x_min":81,"x_max":796,"o":"m 796 771 q 767 696 796 729 q 690 644 739 663 l 650 342 l 636 240 q 544 55 622 119 q 332 -10 467 -10 q 147 42 213 -10 q 81 190 81 94 q 85 240 81 214 l 100 346 l 140 696 l 268 696 l 206 260 q 203 224 203 235 q 344 97 203 97 q 521 260 503 97 l 569 696 l 619 696 q 696 757 696 696 q 668 814 696 788 l 672 825 q 736 849 707 849 q 778 826 760 849 q 796 771 796 803 m 665 946 l 576 840 l 563 835 q 444 864 525 840 q 347 886 361 886 q 322 876 335 886 q 285 839 310 865 l 265 818 l 253 818 l 211 860 l 211 872 l 300 978 l 315 982 q 433 956 354 976 q 531 933 507 933 q 557 944 543 933 q 587 973 571 956 q 613 1000 603 990 l 625 1000 l 665 958 l 665 946 z "},"Ự":{"ha":850,"x_min":90,"x_max":924,"o":"m 924 972 q 894 888 924 925 q 813 833 864 851 l 760 438 l 747 335 q 636 78 729 168 q 383 -11 543 -11 q 168 57 246 -11 q 90 250 90 125 q 96 324 90 289 l 113 446 l 165 892 l 300 892 l 225 342 q 221 282 221 308 q 393 107 221 107 q 621 328 596 107 l 685 892 l 733 892 q 818 961 818 892 q 778 1044 818 1004 l 782 1057 q 846 1083 818 1083 q 899 1051 875 1083 q 924 972 924 1018 m 382 -92 q 434 -111 415 -92 q 453 -164 453 -131 q 432 -222 453 -200 q 376 -243 411 -243 q 304 -169 304 -243 q 325 -112 304 -133 q 382 -92 346 -92 z "},"ự":{"ha":758,"x_min":81,"x_max":796,"o":"m 796 771 q 767 696 796 729 q 690 644 739 663 l 650 342 l 636 240 q 544 55 622 119 q 332 -10 467 -10 q 147 42 213 -10 q 81 190 81 94 q 85 240 81 214 l 100 346 l 140 696 l 268 696 l 206 260 q 203 224 203 235 q 344 97 203 97 q 521 260 503 97 l 569 696 l 619 696 q 696 757 696 696 q 668 814 696 788 l 672 825 q 736 849 707 849 q 778 826 760 849 q 796 771 796 803 m 332 -92 q 384 -111 365 -92 q 403 -164 403 -131 q 382 -222 403 -200 q 326 -243 361 -243 q 254 -169 254 -243 q 275 -112 254 -133 q 332 -92 296 -92 z "},"Ỳ":{"ha":719,"x_min":86,"x_max":781,"o":"m 401 256 l 375 0 l 238 0 l 279 256 l 285 317 l 86 892 l 228 892 l 238 838 l 361 458 l 374 458 l 606 833 l 635 892 l 781 892 l 410 314 l 401 256 m 344 1214 q 619 1067 467 1143 l 596 1008 l 581 1003 q 301 1118 394 1076 l 296 1132 l 331 1211 l 344 1214 z "},"ỳ":{"ha":646,"x_min":75,"x_max":668,"o":"m 357 196 l 338 0 l 211 0 l 240 196 l 244 240 l 75 696 l 210 696 l 219 651 l 321 371 l 329 371 l 511 646 l 536 696 l 668 696 l 364 235 l 357 196 m 293 1036 q 529 831 382 950 l 493 778 l 479 776 q 232 949 368 850 l 229 963 l 279 1035 l 293 1036 z "},"Ỵ":{"ha":719,"x_min":86,"x_max":781,"o":"m 401 256 l 375 0 l 238 0 l 279 256 l 285 317 l 86 892 l 228 892 l 238 838 l 361 458 l 374 458 l 606 833 l 635 892 l 781 892 l 410 314 l 401 256 m 296 -92 q 348 -111 329 -92 q 367 -164 367 -131 q 346 -222 367 -200 q 290 -243 325 -243 q 218 -169 218 -243 q 239 -112 218 -133 q 296 -92 260 -92 z "},"ỵ":{"ha":646,"x_min":75,"x_max":668,"o":"m 357 196 l 338 0 l 211 0 l 240 196 l 244 240 l 75 696 l 210 696 l 219 651 l 321 371 l 329 371 l 511 646 l 536 696 l 668 696 l 364 235 l 357 196 m 267 -92 q 319 -111 300 -92 q 338 -164 338 -131 q 317 -222 338 -200 q 261 -243 296 -243 q 189 -169 189 -243 q 210 -112 189 -133 q 267 -92 231 -92 z "},"Ỷ":{"ha":719,"x_min":86,"x_max":781,"o":"m 401 256 l 375 0 l 238 0 l 279 256 l 285 317 l 86 892 l 228 892 l 238 838 l 361 458 l 374 458 l 606 833 l 635 892 l 781 892 l 410 314 l 401 256 m 440 1254 q 508 1230 481 1254 q 535 1169 535 1206 q 518 1119 535 1143 q 461 1061 501 1094 l 490 1011 l 436 981 l 388 1063 q 457 1156 457 1115 q 419 1185 457 1185 q 338 1151 378 1185 l 311 1192 q 440 1254 371 1254 z "},"ỷ":{"ha":646,"x_min":75,"x_max":668,"o":"m 357 196 l 338 0 l 211 0 l 240 196 l 244 240 l 75 696 l 210 696 l 219 651 l 321 371 l 329 371 l 511 646 l 536 696 l 668 696 l 364 235 l 357 196 m 376 1058 q 444 1034 417 1058 q 471 974 471 1010 q 454 923 471 947 q 397 865 438 899 l 426 815 l 372 785 l 324 867 q 393 960 393 919 q 356 989 393 989 q 274 956 314 989 l 247 996 q 376 1058 307 1058 z "},"Ỹ":{"ha":719,"x_min":86,"x_max":781,"o":"m 401 256 l 375 0 l 238 0 l 279 256 l 285 317 l 86 892 l 228 892 l 238 838 l 361 458 l 374 458 l 606 833 l 635 892 l 781 892 l 410 314 l 401 256 m 683 1140 l 594 1035 l 581 1029 q 463 1058 543 1035 q 365 1081 379 1081 q 340 1070 353 1081 q 303 1033 328 1060 l 283 1013 l 271 1013 l 229 1054 l 229 1067 l 318 1172 l 333 1176 q 451 1150 372 1171 q 549 1128 525 1128 q 575 1139 561 1128 q 605 1167 589 1150 q 631 1194 621 1185 l 643 1194 l 683 1153 l 683 1140 z "},"ỹ":{"ha":646,"x_min":75,"x_max":668,"o":"m 357 196 l 338 0 l 211 0 l 240 196 l 244 240 l 75 696 l 210 696 l 219 651 l 321 371 l 329 371 l 511 646 l 536 696 l 668 696 l 364 235 l 357 196 m 619 944 l 531 839 l 517 833 q 399 863 479 839 q 301 885 315 885 q 276 874 289 885 q 239 838 264 864 l 219 817 l 207 817 l 165 858 l 165 871 l 254 976 l 269 981 q 388 954 308 975 q 485 932 461 932 q 511 943 497 932 q 541 972 525 954 q 567 999 557 989 l 579 999 l 619 957 l 619 944 z "},"–":{"ha":658,"x_min":-21,"x_max":688,"o":"m 672 310 l -12 310 l -21 319 l -3 403 l 681 403 l 688 393 l 672 310 z "},"—":{"ha":1272,"x_min":-22,"x_max":1304,"o":"m 1288 310 l -14 310 l -22 319 l -4 403 l 1296 403 l 1304 393 l 1288 310 z "},"‘":{"ha":250,"x_min":86,"x_max":249,"o":"m 163 583 q 86 697 86 618 q 197 897 86 788 l 246 863 l 249 853 q 190 735 190 790 q 244 651 190 676 l 244 639 q 163 583 217 613 z "},"’":{"ha":250,"x_min":88,"x_max":250,"o":"m 174 896 q 250 782 250 861 q 139 582 250 692 l 90 617 l 88 626 q 146 744 146 689 q 92 828 146 803 l 92 840 q 174 896 119 867 z "},"‚":{"ha":318,"x_min":13,"x_max":201,"o":"m 142 142 q 201 40 201 101 q 58 -164 201 -60 l 13 -124 l 13 -112 q 89 14 89 -51 q 46 86 89 54 l 46 99 q 142 142 93 128 z "},"“":{"ha":438,"x_min":81,"x_max":440,"o":"m 354 583 q 278 697 278 618 q 389 897 278 788 l 438 863 l 440 853 q 382 735 382 790 q 436 651 382 676 l 436 639 q 354 583 408 613 m 157 583 q 81 697 81 618 q 192 897 81 788 l 240 863 l 243 853 q 185 735 185 790 q 239 651 185 676 l 239 639 q 157 583 211 613 z "},"”":{"ha":442,"x_min":85,"x_max":439,"o":"m 363 896 q 439 782 439 861 q 328 582 439 692 l 279 617 l 276 626 q 335 744 335 689 q 281 828 335 803 l 281 840 q 363 896 308 867 m 171 896 q 247 782 247 861 q 136 582 247 692 l 88 617 l 85 626 q 143 744 143 689 q 89 828 143 803 l 89 840 q 171 896 117 867 z "},"„":{"ha":517,"x_min":13,"x_max":397,"o":"m 338 142 q 397 40 397 101 q 254 -164 397 -60 l 208 -124 l 208 -112 q 285 14 285 -51 q 242 86 285 54 l 242 99 q 338 142 289 128 m 142 142 q 201 40 201 101 q 58 -164 201 -60 l 13 -124 l 13 -112 q 89 14 89 -51 q 46 86 89 54 l 46 99 q 142 142 93 128 z "},"†":{"ha":679,"x_min":78,"x_max":651,"o":"m 404 471 l 394 399 l 331 -125 l 244 -131 l 236 -119 l 300 393 l 310 471 l 85 471 l 78 482 l 96 564 l 321 564 l 351 813 l 439 819 l 447 813 l 415 564 l 643 564 l 651 554 l 633 471 l 404 471 z "},"‡":{"ha":678,"x_min":32,"x_max":651,"o":"m 369 201 l 597 201 l 606 192 l 589 110 l 358 110 l 329 -125 l 244 -131 l 236 -119 l 264 110 l 42 110 l 32 119 l 50 201 l 275 201 l 299 393 l 310 482 l 86 482 l 78 492 l 96 574 l 321 574 l 350 813 l 439 819 l 446 813 l 417 574 l 643 574 l 651 564 l 635 482 l 404 482 l 394 399 l 369 201 z "},"•":{"ha":368,"x_min":103,"x_max":278,"o":"m 194 461 q 254 439 233 461 q 276 375 276 416 q 252 309 276 333 q 187 285 228 285 q 103 371 103 285 q 128 437 103 413 q 194 461 152 461 z "},"․":{"ha":319,"x_min":54,"x_max":203,"o":"m 132 144 q 184 125 165 144 q 203 71 203 106 q 182 14 203 35 q 126 -7 161 -7 q 54 67 54 -7 q 75 124 54 103 q 132 144 96 144 z "},"‥":{"ha":576,"x_min":49,"x_max":453,"o":"m 382 144 q 434 125 415 144 q 453 71 453 106 q 432 14 453 35 q 376 -7 411 -7 q 304 67 304 -7 q 325 124 304 103 q 382 144 346 144 m 126 144 q 178 125 160 144 q 197 71 197 106 q 176 14 197 35 q 121 -7 156 -7 q 49 67 49 -7 q 69 124 49 103 q 126 144 90 144 z "},"…":{"ha":833,"x_min":19,"x_max":678,"o":"m 353 144 q 405 125 386 144 q 424 71 424 106 q 403 14 424 35 q 347 -7 382 -7 q 275 67 275 -7 q 296 124 275 103 q 353 144 317 144 m 607 144 q 659 125 640 144 q 678 71 678 106 q 657 14 678 35 q 601 -7 636 -7 q 529 67 529 -7 q 550 124 529 103 q 607 144 571 144 m 97 144 q 149 125 131 144 q 168 71 168 106 q 147 14 168 35 q 92 -7 126 -7 q 19 67 19 -7 q 40 124 19 103 q 97 144 61 144 z "},"‰":{"ha":1688,"x_min":89,"x_max":1628,"o":"m 986 890 l 208 -126 l 154 -92 l 149 -75 l 928 946 l 979 911 l 986 890 m 339 897 q 469 848 424 897 q 514 704 514 799 q 449 483 514 563 q 264 403 385 403 q 134 453 179 403 q 89 597 89 504 q 154 817 89 738 q 339 897 219 897 m 319 807 q 214 757 250 807 q 178 614 178 707 q 279 489 178 489 q 424 682 424 489 q 319 807 424 807 m 933 488 q 1063 438 1018 488 q 1108 294 1108 389 q 1044 73 1108 153 q 858 -7 979 -7 q 728 44 774 -7 q 683 188 683 94 q 749 408 683 328 q 933 488 814 488 m 1453 488 q 1583 438 1538 488 q 1628 294 1628 389 q 1563 73 1628 153 q 1378 -7 1499 -7 q 1248 44 1293 -7 q 1203 188 1203 94 q 1268 408 1203 328 q 1453 488 1333 488 m 914 397 q 808 347 844 397 q 772 204 772 297 q 874 79 772 79 q 1018 272 1018 79 q 914 397 1018 397 m 1433 397 q 1328 347 1364 397 q 1292 204 1292 297 q 1393 79 1292 79 q 1538 272 1538 79 q 1433 397 1538 397 z "},"′":{"ha":249,"x_min":110,"x_max":260,"o":"m 188 607 l 119 597 l 110 607 l 147 881 l 251 889 l 260 878 l 188 607 z "},"″":{"ha":425,"x_min":110,"x_max":436,"o":"m 364 607 l 296 597 l 286 607 l 324 881 l 428 889 l 436 878 l 364 607 m 188 607 l 119 597 l 110 607 l 147 881 l 251 889 l 260 878 l 188 607 z "},"‹":{"ha":326,"x_min":40,"x_max":329,"o":"m 43 331 l 269 568 l 329 532 l 329 517 l 142 314 l 281 111 l 275 96 l 207 61 l 40 306 l 43 331 z "},"›":{"ha":332,"x_min":13,"x_max":301,"o":"m 299 300 l 72 63 l 13 99 l 13 114 l 200 317 l 61 519 l 67 535 l 135 569 l 301 325 l 299 300 z "},"⁄":{"ha":118,"x_min":-374,"x_max":464,"o":"m 464 890 l -315 -126 l -368 -92 l -374 -75 l 406 946 l 457 911 l 464 890 z "},"⁰":{"ha":524,"x_min":97,"x_max":522,"o":"m 347 979 q 477 925 432 979 q 522 768 522 871 q 458 526 522 613 q 272 439 393 439 q 142 494 188 439 q 97 650 97 549 q 163 892 97 804 q 347 979 228 979 m 328 881 q 222 826 258 881 q 186 668 186 771 q 288 532 186 532 q 432 744 432 532 q 328 881 432 881 z "},"⁴":{"ha":494,"x_min":67,"x_max":492,"o":"m 399 579 l 389 451 l 381 444 l 293 440 l 288 446 l 307 579 l 150 579 l 74 576 l 67 585 l 75 654 l 346 974 l 447 974 l 407 663 l 486 663 l 492 651 l 478 576 l 399 579 m 318 663 l 342 851 l 335 851 l 175 663 l 318 663 z "},"⁵":{"ha":431,"x_min":58,"x_max":461,"o":"m 440 889 l 431 881 l 358 889 l 233 889 l 217 779 l 275 765 q 417 636 417 735 q 344 492 417 547 q 156 438 271 438 q 58 447 110 438 l 61 524 l 69 532 q 168 519 119 519 q 269 546 232 519 q 307 618 307 572 q 285 662 307 644 q 217 690 264 679 l 131 706 l 124 714 l 156 961 l 172 975 l 224 974 l 365 974 l 457 976 l 461 969 l 440 889 z "},"⁶":{"ha":474,"x_min":83,"x_max":465,"o":"m 322 768 q 428 729 390 768 q 465 628 465 690 q 410 492 465 546 q 257 438 356 438 q 128 483 174 438 q 83 610 83 528 q 163 826 83 729 q 388 981 243 924 l 394 981 l 458 933 l 457 924 q 299 844 357 886 q 214 744 240 801 l 219 738 q 322 768 271 768 m 365 603 q 285 692 372 692 q 190 663 240 692 l 188 639 q 186 610 186 628 q 265 506 186 506 q 365 603 354 506 z "},"⁷":{"ha":422,"x_min":101,"x_max":467,"o":"m 422 974 l 467 975 l 458 894 l 260 561 l 193 435 l 106 458 l 101 476 l 347 883 l 189 883 l 106 878 l 101 888 l 121 975 l 219 974 l 422 974 z "},"⁸":{"ha":483,"x_min":83,"x_max":475,"o":"m 326 979 q 435 947 394 979 q 475 861 475 914 q 447 783 475 814 q 368 726 419 753 l 367 721 q 435 674 411 700 q 460 606 460 649 q 402 483 460 529 q 250 438 344 438 q 127 472 171 438 q 83 565 83 507 q 211 703 83 658 l 211 708 q 132 818 132 749 q 185 935 132 892 q 326 979 239 979 m 317 906 q 251 885 275 906 q 226 829 226 864 q 247 784 226 801 q 304 751 267 767 q 365 792 344 771 q 386 846 386 813 q 367 890 386 874 q 317 906 349 906 m 275 675 q 203 638 229 661 q 178 576 178 615 q 199 526 178 544 q 261 508 221 508 q 338 532 310 508 q 367 592 367 556 q 344 639 367 622 q 275 675 322 656 z "},"⁹":{"ha":475,"x_min":106,"x_max":488,"o":"m 314 981 q 442 935 397 981 q 488 807 488 890 q 408 591 488 688 q 183 438 328 494 l 176 438 l 113 483 l 114 494 q 272 572 214 531 q 357 672 331 614 l 350 681 q 249 650 300 650 q 143 689 181 650 q 106 789 106 728 q 160 926 106 872 q 314 981 214 981 m 286 725 q 381 756 331 725 l 383 778 q 385 807 385 789 q 306 911 385 911 q 206 814 217 911 q 286 725 201 725 z "},"₣":{"ha":563,"x_min":7,"x_max":594,"o":"m 236 388 l 360 388 l 490 390 l 494 379 l 478 299 l 342 301 l 225 301 l 214 218 l 211 193 l 372 193 l 376 186 l 365 132 l 206 132 l 192 0 l 81 0 l 99 132 l 11 132 l 7 138 l 17 193 l 107 193 l 110 208 l 165 693 l 589 693 l 594 683 l 575 603 l 399 607 l 267 607 l 236 388 z "},"€":{"ha":676,"x_min":14,"x_max":674,"o":"m 490 700 q 674 654 594 700 l 642 563 l 632 560 q 478 607 568 607 q 265 454 322 607 l 507 454 l 514 446 l 500 379 l 244 379 q 236 297 239 351 l 489 297 l 493 289 l 481 222 l 242 222 q 410 85 265 85 q 589 136 506 85 l 600 128 l 579 40 q 394 -8 492 -8 q 119 222 143 -8 l 18 222 l 14 231 l 26 297 l 121 297 q 131 379 126 349 l 36 379 l 32 388 l 44 454 l 149 454 q 276 637 189 574 q 490 700 363 700 z "},"ℓ":{"ha":515,"x_min":72,"x_max":465,"o":"m 443 0 l 72 0 l 104 208 l 158 696 l 286 696 l 219 219 l 208 106 l 457 106 l 465 96 l 443 0 z "},"™":{"ha":813,"x_min":101,"x_max":778,"o":"m 367 883 l 356 832 l 290 835 l 267 835 l 243 665 l 233 563 l 163 563 l 178 660 l 197 835 l 172 835 l 104 832 l 101 838 l 111 890 l 364 890 l 367 883 m 768 563 l 706 563 l 711 661 l 713 782 l 707 782 l 604 596 l 547 596 l 496 782 l 492 782 l 464 669 l 443 563 l 381 563 l 457 890 l 542 890 l 551 842 l 589 690 l 593 690 l 674 840 l 696 890 l 778 890 l 768 563 z "},"Ω":{"ha":997,"x_min":8,"x_max":928,"o":"m 567 901 q 758 856 681 901 q 874 734 836 811 q 913 561 913 657 q 854 322 913 442 q 686 110 796 203 l 689 104 l 811 104 l 921 115 l 928 107 l 897 -6 l 758 0 l 578 0 l 526 -3 l 521 3 l 532 106 q 707 309 644 189 q 769 550 769 429 q 717 724 769 658 q 556 790 665 790 q 404 746 467 790 q 310 624 342 701 q 279 451 279 547 q 314 259 279 353 q 413 106 349 165 l 401 3 l 393 -3 l 342 0 l 138 0 l 15 -4 l 8 6 l 39 114 l 154 104 l 260 104 l 261 110 q 169 266 200 175 q 138 453 138 357 q 188 676 138 574 q 335 840 238 778 q 567 901 432 901 z "},"℮":{"ha":1103,"x_min":71,"x_max":1094,"o":"m 583 904 q 840 842 722 904 q 1026 674 957 781 q 1094 443 1094 568 l 1094 432 l 265 432 q 258 426 258 432 l 258 175 q 271 146 258 161 q 412 47 331 82 q 585 11 493 11 q 767 51 682 11 q 914 163 853 92 l 989 163 q 811 31 918 79 q 583 -17 704 -17 q 327 45 444 -17 q 140 213 210 107 q 71 443 71 318 q 140 674 71 568 q 327 842 210 781 q 583 904 444 904 m 585 876 q 414 841 494 876 q 272 743 333 806 q 258 711 258 729 l 258 464 q 265 457 258 457 l 901 457 q 908 464 908 457 l 908 717 q 894 747 908 733 q 753 842 833 808 q 585 876 674 876 z "},"←":{"ha":725,"x_min":32,"x_max":688,"o":"m 46 1058 l 46 1038 l -225 760 l -299 779 l -299 799 l -100 1004 l -600 999 l -610 1008 l -604 1094 l -99 1089 l -299 1296 l -299 1315 l -225 1335 l 46 1058 z "},"↑":{"ha":725,"x_min":72,"x_max":647,"o":"m 349 656 l 369 656 l 647 385 l 628 311 l 608 311 l 403 510 l 408 10 l 399 0 l 313 6 l 318 511 l 111 311 l 92 311 l 72 385 l 349 656 z "},"→":{"ha":725,"x_min":33,"x_max":689,"o":"m 675 -408 l 675 -387 l 946 -110 l 1019 -129 l 1019 -149 l 821 -354 l 1321 -349 l 1331 -358 l 1325 -444 l 819 -439 l 1019 -646 l 1019 -665 l 946 -685 l 675 -408 z "},"↓":{"ha":725,"x_min":75,"x_max":650,"o":"m 374 -7 l 353 -7 l 75 264 l 94 338 l 114 338 l 319 139 l 314 639 l 324 649 l 410 643 l 404 138 l 611 338 l 631 338 l 650 264 l 374 -7 z "},"↖":{"ha":725,"x_min":132,"x_max":636,"o":"m 146 1079 l 161 1064 l 166 676 l 100 638 l 86 652 l 82 937 l -268 580 l -282 580 l -339 645 l 23 998 l -265 1003 l -279 1017 l -241 1083 l 146 1079 z "},"↗":{"ha":725,"x_min":83,"x_max":589,"o":"m 559 42 l 573 57 l 961 62 l 1000 -4 l 986 -18 l 700 -23 l 1058 -372 l 1058 -386 l 993 -443 l 639 -82 l 634 -369 l 621 -383 l 555 -345 l 559 42 z "},"↘":{"ha":725,"x_min":85,"x_max":589,"o":"m 575 -434 l 560 -420 l 555 -32 l 621 7 l 634 -7 l 639 -293 l 989 64 l 1003 64 l 1060 0 l 698 -354 l 986 -359 l 1000 -372 l 961 -438 l 575 -434 z "},"↙":{"ha":725,"x_min":133,"x_max":639,"o":"m 163 609 l 149 594 l -239 590 l -277 655 l -264 669 l 22 674 l -335 1024 l -335 1037 l -271 1094 l 83 733 l 88 1021 l 102 1034 l 167 996 l 163 609 z "},"∂":{"ha":714,"x_min":40,"x_max":672,"o":"m 269 994 q 569 769 465 907 q 672 446 672 631 q 668 369 672 410 q 553 90 649 190 q 303 -11 457 -11 q 107 56 174 -11 q 40 239 40 124 q 43 286 40 253 q 143 508 58 422 q 360 593 228 593 q 521 532 443 589 l 535 543 q 156 914 483 797 l 158 928 l 258 994 l 269 994 m 319 86 q 469 157 414 86 q 540 363 525 228 l 544 411 q 372 488 460 488 q 168 286 192 488 q 165 247 165 258 q 204 128 165 169 q 319 86 243 86 z "},"∆":{"ha":781,"x_min":-22,"x_max":715,"o":"m -22 0 l 392 892 l 551 892 l 715 0 l -22 0 m 153 111 l 565 111 l 457 756 l 446 756 l 153 111 z "},"∏":{"ha":938,"x_min":101,"x_max":942,"o":"m 844 781 l 775 279 l 747 0 l 611 0 l 651 268 l 710 782 l 336 782 l 267 279 l 239 0 l 101 0 l 143 268 l 200 781 l 132 779 l 124 790 l 147 892 l 933 892 l 942 879 l 918 779 l 844 781 z "},"∑":{"ha":690,"x_min":4,"x_max":731,"o":"m 707 775 l 569 782 l 268 782 l 496 461 l 494 438 l 183 108 l 471 108 l 628 117 l 636 104 l 613 -1 l 119 0 l 4 -1 l 15 94 l 346 450 l 106 789 l 118 892 l 722 893 l 731 881 l 707 775 z "}}}
